<?xml version="1.0" standalone="no"?>
<!DOCTYPE svg PUBLIC "-//W3C//DTD SVG 1.1//EN" "http://www.w3.org/Graphics/SVG/1.1/DTD/svg11.dtd" >
<svg>
<metadata>
Created by FontForge 20090622 at Thu Aug  4 14:19:57 2016
 By deploy user
Copyright (c) ParaGraph Intl, 1990-1994. All Rights Reserved. Garamond is a registered trade mark of International Typeface Corporation.
</metadata>
<defs>
<font id="GaramondC-Light" horiz-adv-x="610" >
  <font-face 
    font-family="GaramondC"
    font-weight="300"
    font-stretch="normal"
    units-per-em="1000"
    panose-1="4 0 4 0 0 0 0 0 0 0"
    ascent="720"
    descent="-280"
    x-height="501"
    cap-height="700"
    bbox="-70 -280 1140 891"
    underline-thickness="50"
    underline-position="-50"
    unicode-range="U+0020-U+2122"
  />
<missing-glyph horiz-adv-x="233" 
 />
    <glyph glyph-name=".notdef" horiz-adv-x="233" 
 />
    <glyph glyph-name=".null" horiz-adv-x="0" 
 />
    <glyph glyph-name="nonmarkingreturn" horiz-adv-x="333" 
 />
    <glyph glyph-name="space" unicode=" " horiz-adv-x="233" 
 />
    <glyph glyph-name="space" unicode="&#xa0;" horiz-adv-x="233" 
 />
    <glyph glyph-name="exclam" unicode="!" horiz-adv-x="254" 
d="M127 721q21 0 36.5 -17t15.5 -57q0 -25 -6 -77q-24 -208 -28 -328q0 -1 -0.5 -6.5t-0.5 -7.5t-0.5 -7t-2 -7.5t-3.5 -5t-4.5 -4t-6.5 -1.5t-6.5 1.5t-4.5 4t-3.5 5t-2 7.5t-0.5 7t-0.5 7.5t-0.5 6.5q-4 120 -28 328q-6 52 -6 77q0 40 15.5 57t36.5 17zM128 94
q21 0 35.5 -15.5t14.5 -38.5q0 -26 -14.5 -43.5t-36.5 -17.5q-20 0 -35.5 14.5t-15.5 42.5t16 43t36 15z" />
    <glyph glyph-name="quotedbl" unicode="&#x22;" horiz-adv-x="360" 
d="M66 448l-22 170q-4 26 -4 37q0 36 14 51t31 15t31 -15t14 -50q0 -12 -4 -38l-22 -170q-2 -21 -19 -21t-19 21zM256 448l-22 170q-4 24 -4 36q0 37 14 52t31 15t31 -15t14 -52q0 -12 -4 -36l-22 -170q-2 -21 -19 -21t-19 21z" />
    <glyph glyph-name="numbersign" unicode="#" horiz-adv-x="642" 
d="M133 571h135l57 129h40l-57 -129h114l57 129h40l-57 -129h135l-24 -55h-135l-40 -90h135l-24 -55h-135l-54 -122h-40l54 122h-114l-54 -122h-40l54 122h-135l24 55h135l40 90h-135zM284 516l-40 -90h114l40 90h-114z" />
    <glyph glyph-name="dollar" unicode="$" horiz-adv-x="473" 
d="M233 763h32l-8 -56h10q23 0 47 -3l9 59h32l-9 -63q32 -6 56 -18q8 -4 10.5 -13t3.5 -44l1 -41q0 -22 -11 -22t-15 15q-20 69 -51 88l-33 -225q121 -57 121 -169q0 -73 -52.5 -121.5t-121.5 -59.5l-13 -90h-32l13 86q-2 0 -8 -0.5t-8 -0.5q-28 0 -42 2l-13 -87h-32l14 93
q-52 12 -78 33q-9 8 -10 28v41q2 64 8 71q3 4 11 4q7 0 9 -5.5t4 -26.5q6 -79 61 -112l41 279q-59 26 -86 66.5t-27 81.5q0 55 45 100t113 52zM253 684l-31 -207l55 -24l33 225q-24 6 -48 6h-9zM209 391l-41 -279q20 -4 39 -6h18l39 259q-36 18 -55 26zM193 493l28 187
q-37 -3 -65 -28t-28 -65q0 -58 65 -94zM293 348l-35 -237q44 10 74 43t30 75q0 78 -69 119z" />
    <glyph glyph-name="percent" unicode="%" horiz-adv-x="767" 
d="M206 370q-80 0 -125.5 51.5t-45.5 112.5q0 62 45.5 113.5t125.5 51.5q72 0 120.5 -47t48.5 -118q0 -70 -48.5 -117t-120.5 -47zM205 392q31 0 54 14t33.5 31t16.5 41t7 35.5t1 21.5q0 8 -0.5 18.5t-6.5 34.5t-17 42t-34 32.5t-54 14.5q-48 0 -80 -37.5t-32 -104.5
q0 -65 31.5 -104t80.5 -39zM649 703h39l-566 -713h-39zM563 0q-80 0 -125.5 51.5t-45.5 112.5q0 62 45.5 113.5t125.5 51.5q72 0 120.5 -47t48.5 -118q0 -70 -48.5 -117t-120.5 -47zM562 22q31 0 54 14t33.5 31t16.5 41t7 35.5t1 21.5q0 8 -0.5 18.5t-6.5 34.5t-17 42
t-34 32.5t-54 14.5q-48 0 -80 -37.5t-32 -104.5q0 -65 31.5 -104t80.5 -39z" />
    <glyph glyph-name="ampersand" unicode="&#x26;" horiz-adv-x="878" 
d="M370 408l181 -193q93 122 93 149q0 8 -4 13t-10 7t-14 2.5t-16 0t-16 0.5l-15 1.5t-9.5 4.5t-4.5 11q0 12 12 15h9q34 -3 135 -3l93 3h11q18 -1 18 -15q0 -15 -18 -17q-4 0 -22.5 -1.5t-26 -3t-26 -8.5t-33 -19.5t-37 -36t-47.5 -56.5l-52 -69l73 -83q2 -2 10.5 -12
t11 -12.5l11 -11t14 -12l15.5 -9.5t19.5 -9t23 -6t28.5 -5q3 0 9.5 -0.5t9 -1l7.5 -1.5t7 -3t3.5 -5t1.5 -8q0 -14 -24 -14q-19 0 -54.5 3t-53.5 3q-26 0 -78 -3t-78 -3q-33 0 -33 18q0 16 21 16h22q36 0 36 14q0 12 -38 55l-21 24q-123 -148 -265 -148q-94 0 -149 59
t-55 134q0 35 12 64.5t30 49.5t49 39.5t57 32t66 29.5q8 3 12 5q-47 47 -69 86.5t-22 82.5q0 71 58.5 115.5t139.5 44.5q83 0 135.5 -45t52.5 -112q0 -29 -11.5 -51t-37.5 -38.5t-56 -30t-77 -31.5q-9 -3 -14 -5zM353 431q69 26 102.5 55t33.5 85q0 50 -30.5 88.5
t-90.5 38.5q-49 0 -82.5 -28t-33.5 -74q0 -67 101 -165zM496 146l-209 225q-75 -30 -114.5 -70.5t-39.5 -101.5q0 -68 47.5 -115t116.5 -47q102 0 199 109z" />
    <glyph glyph-name="quotesingle" unicode="'" horiz-adv-x="182" 
d="M72 448l-22 164q-5 40 -5 46q0 33 14 48t32 15q19 0 32.5 -16.5t13.5 -48.5q0 -6 -5 -44l-22 -164q-2 -21 -19 -21t-19 21z" />
    <glyph glyph-name="parenleft" unicode="(" horiz-adv-x="440" 
d="M85 232q0 161 83 288t231 189q16 7 28 7q8 0 8 -10q0 -3 -1.5 -5.5t-4.5 -4.5t-6 -3.5t-8.5 -4t-8.5 -3.5q-100 -48 -168 -165t-68 -288t68 -288t168 -165q3 -1 8.5 -3.5t8.5 -4t6 -3.5t4.5 -4.5t1.5 -5.5q0 -10 -8 -10q-12 0 -28 7q-148 62 -231 189t-83 288z" />
    <glyph glyph-name="parenright" unicode=")" horiz-adv-x="440" 
d="M355 232q0 -161 -83 -288t-231 -189q-16 -7 -28 -7q-8 0 -8 10q0 3 1.5 5.5t4.5 4.5t6 3.5t8.5 4t8.5 3.5q100 48 168 165t68 288t-68 288t-168 165q-3 1 -8.5 3.5t-8.5 4t-6 3.5t-4.5 4.5t-1.5 5.5q0 10 8 10q12 0 28 -7q148 -62 231 -189t83 -288z" />
    <glyph glyph-name="asterisk" unicode="*" horiz-adv-x="300" 
d="M209 609l-18 -1q-18 -2 -23 -9q5 -7 23 -9l18 -1q50 -3 50 -35q0 -16 -9.5 -24t-23.5 -8q-17 0 -38 31l-10 15q-9 14 -19 15q-4 -9 4 -24l8 -16q9 -18 9 -34q0 -14 -8 -23t-22 -9t-22.5 8.5t-8.5 23.5q0 16 10 34l8 16q8 15 4 24q-10 -1 -19 -15l-10 -15l-8.5 -11.5
t-8 -9t-11 -7.5t-12.5 -2q-27 0 -32 26q-2 6 0 12q6 26 51 28l18 1q18 2 22 9q-4 7 -22 9l-18 1q-51 3 -51 40q0 11 11 18.5t24 7.5q18 0 37 -30l10 -15q11 -17 19 -15q6 6 -4 24l-8 16q-10 18 -10 34q0 14 8.5 23t22.5 9t22.5 -9t8.5 -23q0 -16 -10 -34l-8 -16
q-8 -18 -4 -24q8 -1 19 15l10 15q1 1 3.5 5t4 5.5t4 5t4 5t4.5 3.5t5 3t5.5 2t6.5 1q14 0 24.5 -7t10.5 -19v-7t-2.5 -9.5t-7 -11t-15.5 -7.5t-26 -5z" />
    <glyph glyph-name="plus" unicode="+" 
d="M333 68h-55v255h-255v54h255v255h55v-255h254v-54h-254v-255z" />
    <glyph glyph-name="comma" unicode="," horiz-adv-x="217" 
d="M99 91q30 0 51.5 -21.5t21.5 -75.5q0 -49 -19 -85t-54 -74q-29 -31 -41 -31t-12 11q0 6 12 18q74 74 74 130q0 29 -22 29q-2 0 -6 -0.5t-6 -0.5q-20 0 -36.5 12.5t-16.5 35.5q0 20 13 36t41 16z" />
    <glyph glyph-name="hyphen" unicode="-" horiz-adv-x="398" 
d="M64 296h289l-18 -62h-290z" />
    <glyph glyph-name="hyphen" unicode="&#xad;" horiz-adv-x="398" 
d="M64 296h289l-18 -62h-290z" />
    <glyph glyph-name="period" unicode="." horiz-adv-x="192" 
d="M95 94q20 0 36 -15t16 -43t-15.5 -42.5t-35.5 -14.5q-22 0 -36.5 17.5t-14.5 43.5q0 23 14.5 38.5t35.5 15.5z" />
    <glyph glyph-name="slash" unicode="/" horiz-adv-x="476" 
d="M73 -253l-43 18l403 953l43 -18z" />
    <glyph glyph-name="zero" unicode="0" 
d="M303 721q79 0 140.5 -55.5t92 -139.5t30.5 -179q0 -155 -71 -261.5t-188 -106.5q-80 0 -141 54.5t-91.5 138t-30.5 178.5q0 174 77 272.5t182 98.5zM303 691q-23 0 -43.5 -7t-44.5 -29.5t-41 -60t-28.5 -104.5t-11.5 -156q0 -94 15 -161t41 -101t54.5 -48.5t62.5 -14.5
q169 0 169 354q0 38 -3 74t-13.5 84.5t-28 84t-51 60.5t-77.5 25z" />
    <glyph glyph-name="one" unicode="1" 
d="M366 610v-488q0 -21 2 -37t7.5 -25.5l9 -15.5t15 -8.5t15.5 -3.5t19.5 -1h20.5q19 -1 19 -16t-21 -15q-22 0 -66 3.5t-66 3.5t-66 -3.5t-67 -3.5q-21 0 -21 15t20 16h20.5t19.5 1t15.5 3.5t15 8.5l9 15.5t7.5 25.5t2 37v474q0 38 -17 38q-14 0 -55 -17q-39 -17 -46 -17
q-12 0 -12 12t17 21.5t65 27.5q5 2 8 3l89 35q6 3 12.5 7t9.5 5.5t7 1.5q3 0 5.5 -0.5t4 -2.5t2.5 -3t1.5 -4t0.5 -4v-5v-4z" />
    <glyph glyph-name="two" unicode="2" 
d="M174 81l229 2q54 1 71 10t24 40l3 13q0 1 1 5t2 6l2.5 5t4 4.5t5.5 1.5q15 0 15 -14q0 -5 -0.5 -13t-1 -27t-0.5 -46l-1 -53v-1q0 -5 -0.5 -7.5t-4 -4.5t-11.5 -2q-36 0 -100 2t-95 2q-35 0 -108 -2t-112 -2q-23 0 -23 14q0 11 40 64l47 58.5l67 77.5t54 62
q80 95 105 138q37 65 37 125q0 71 -44.5 110t-99.5 39q-33 0 -61.5 -11t-49 -31t-32.5 -36t-25 -38q-7 -12 -17 -12q-11 0 -11 13q0 11 18 40q34 53 88 80.5t115 27.5q83 0 151 -49t68 -135q0 -36 -12 -68.5t-40.5 -65.5t-46 -50t-57.5 -52l-91 -81.5t-46.5 -44.5t-28 -33
t-21.5 -26q-19 -19 -16 -30q1 -5 9 -5z" />
    <glyph glyph-name="three" unicode="3" 
d="M258 413l2 -3q39 11 77 11q96 0 151.5 -58.5t55.5 -142.5q0 -65 -34.5 -127t-87 -104.5t-113 -69t-113.5 -26.5q-51 0 -80 21t-29 46q0 20 13.5 31.5t31.5 11.5q5 0 9.5 -1t8.5 -3l7 -3.5t6.5 -5l5.5 -5.5t5 -7t4 -6t4.5 -6.5t3.5 -6.5q20 -32 52 -32q31 0 69 17.5
t73.5 48t59.5 79.5t24 105q0 78 -47.5 136.5t-135.5 58.5q-83 0 -143 -50q-13 -11 -18 -11q-10 0 -10 12q0 15 42 44l46 32q12 9 42 29l43.5 29.5t35.5 28t32 32.5t18 33.5t8 40.5q0 44 -31.5 70.5t-75.5 26.5q-41 0 -78.5 -23t-58.5 -64q-7 -14 -17 -14q-8 0 -10.5 6
t3.5 19q66 108 194 108q80 0 120.5 -38.5t40.5 -82.5q0 -27 -13 -50t-45.5 -47.5t-55 -38t-72.5 -40.5z" />
    <glyph glyph-name="four" unicode="4" 
d="M401 700h62v-488h113v-41h-113v-249h-90v249h-359v37zM373 212v402q0 3 -1 3t-2 -1l-304 -392q-4 -4 -2 -8t10 -4h299z" />
    <glyph glyph-name="five" unicode="5" 
d="M173 682l313 39q5 1 7.5 0t0.5 -8l-19 -70q-2 -8 -13 -10l-270 -32q-8 -1 -10 -1.5t-5.5 -3.5t-5.5 -11l-27 -87q-5 -9 0 -14t11 -6.5t23 -3.5q6 -1 10 -1q124 -13 185 -36q153 -57 153 -199q0 -105 -93.5 -192.5t-261.5 -117.5q-33 -6 -67 -6q-19 0 -19 13t21 13
q28 1 66.5 9t88.5 28t90.5 48t69 74.5t28.5 102.5q0 36 -14 65t-33 47.5t-51.5 33t-56.5 21.5t-62 12.5t-54.5 6.5t-46.5 3q-21 1 -30 6.5t-7.5 12t2.5 12.5z" />
    <glyph glyph-name="six" unicode="6" 
d="M361 461q100 0 158.5 -67.5t58.5 -158.5q0 -106 -73.5 -181t-191.5 -75q-82 0 -148.5 46.5t-99.5 115t-33 140.5q0 99 49.5 191.5t127.5 159t162.5 113t164.5 68.5q35 9 35 -6q0 -9 -8.5 -14t-26 -9.5t-22.5 -6.5q-176 -64 -284 -191t-108 -286q0 -139 64.5 -215
t146.5 -76q71 0 113 55t42 145q0 99 -46.5 156.5t-112.5 57.5q-36 0 -66 -22q-8 -6 -15 -13t-11 -10t-8 -3q-8 0 -11 8q-1 4 0 8q5 21 46 45.5t97 24.5z" />
    <glyph glyph-name="seven" unicode="7" 
d="M224 -43h-40l275 609q10 25 10 34q0 11 -8 14t-34 3h-123q-164 0 -203 -7q-11 -2 -19 -7q-9 -7 -11 -7q-3 0 -5.5 1.5t-3.5 5.5t-1 6.5t-0.5 9t-0.5 8.5l-3 51q-2 22 13 22h34q31 0 194.5 -4t220.5 3l21 1q14 0 14 -6q0 -11 -6 -26z" />
    <glyph glyph-name="eight" unicode="8" 
d="M235 349q-159 52 -159 185q0 76 66.5 131.5t178.5 55.5q101 0 162.5 -46.5t61.5 -121.5q0 -69 -46.5 -107t-123.5 -62q30 -8 58 -21.5t60 -36t51.5 -59t19.5 -81.5q0 -81 -73.5 -144t-190.5 -63q-116 0 -185 57.5t-69 135.5q0 34 14 61.5t43 48.5t58 35t74 32zM336 395
q53 15 94 53t41 98q0 62 -46.5 103.5t-114.5 41.5q-71 0 -114.5 -35.5t-43.5 -88.5q0 -70 49 -108.5t135 -63.5zM276 336q-150 -52 -150 -168q0 -64 42.5 -111.5t130.5 -47.5q75 0 127 41t52 105q0 62 -47.5 110.5t-154.5 70.5z" />
    <glyph glyph-name="nine" unicode="9" 
d="M249 239q-100 0 -158.5 67.5t-58.5 158.5q0 105 72 180.5t193 75.5q87 0 153 -45t97 -111.5t31 -141.5q0 -82 -33 -159t-86 -136t-120.5 -109t-134.5 -82t-130 -50q-35 -9 -35 7q0 8 6.5 12.5t25 9.5l25.5 7q176 64 284 191t108 286q0 139 -64.5 215t-146.5 76
q-71 0 -113 -55t-42 -145q0 -99 46.5 -156.5t112.5 -57.5q53 0 86 39q7 9 14 9q12 0 12 -14q0 -7 -21 -28q-51 -44 -123 -44z" />
    <glyph glyph-name="colon" unicode=":" horiz-adv-x="192" 
d="M95 410q20 0 36 -15t16 -43t-15.5 -42.5t-35.5 -14.5q-22 0 -36.5 17.5t-14.5 43.5q0 23 14.5 38.5t35.5 15.5zM95 94q20 0 36 -15t16 -43t-15.5 -42.5t-35.5 -14.5q-22 0 -36.5 17.5t-14.5 43.5q0 23 14.5 38.5t35.5 15.5z" />
    <glyph glyph-name="semicolon" unicode=";" horiz-adv-x="217" 
d="M95 413q20 0 36 -15t16 -43t-15.5 -42.5t-35.5 -14.5q-22 0 -36.5 17.5t-14.5 43.5q0 23 14.5 38.5t35.5 15.5zM99 91q28 0 50.5 -18t22.5 -66q0 -91 -73 -172q-29 -31 -41 -31t-12 10q0 7 11 19l9 9l13 14.5l14 16t14.5 20l12 21.5t9.5 24.5t3 24.5q0 29 -22 29
q-2 0 -6 -0.5t-6 -0.5q-22 0 -37.5 14t-15.5 34t13 36t41 16z" />
    <glyph glyph-name="less" unicode="&#x3c;" 
d="M43 346l500 316l25 -40l-432 -276l432 -276l-25 -40z" />
    <glyph glyph-name="equal" unicode="=" 
d="M23 233v55h564v-55h-564zM23 412v55h564v-55h-564z" />
    <glyph glyph-name="greater" unicode="&#x3e;" 
d="M568 346l-500 -316l-25 40l433 276l-433 276l25 40z" />
    <glyph glyph-name="question" unicode="?" horiz-adv-x="394" 
d="M127 249l-12 60q-6 11 -4.5 27t19.5 30l93 71q78 60 78 144q0 42 -29.5 74t-64.5 32t-62 -36q-2 -3 -7.5 -9.5t-7.5 -9.5t-7 -8.5t-8 -7.5t-7.5 -4t-8.5 -2q-13 0 -21 18t-8 47q0 15 7 23t25 13q32 10 65 10q70 0 128.5 -49t58.5 -140q0 -59 -22 -95.5t-67 -70.5l-74 -56
q-29 -22 -31 -68v-20q0 -20 -14 -20q-4 0 -7 2.5t-4.5 7.5t-2.5 10t-2.5 13.5t-2.5 13.5zM148 94q20 0 36 -15t16 -43t-15.5 -42.5t-35.5 -14.5q-22 0 -36.5 17.5t-14.5 43.5q0 23 14.5 38.5t35.5 15.5z" />
    <glyph glyph-name="at" unicode="@" horiz-adv-x="820" 
d="M595 61l12 -38q-84 -37 -190 -37q-89 0 -160.5 30t-115.5 80t-67.5 111.5t-23.5 128.5q0 164 111.5 271t275.5 107q147 0 240 -91t93 -223q0 -106 -56.5 -180t-136.5 -74q-57 0 -84.5 37t-27.5 87q0 42 21 84q-143 -208 -241 -208q-34 0 -53.5 24.5t-19.5 64.5
q0 67 44.5 140t116.5 122.5t144 49.5q33 0 58 -15q6 -4 12 3q1 1 3.5 5.5t4 6t5 4.5t8 4t11.5 1h37q17 0 17 -11q0 -3 -1.5 -7.5t-6.5 -16t-10 -25.5l-64 -186q-17 -51 -17 -80q0 -22 15 -36t39 -14q52 0 96 60.5t44 159.5q0 119 -79.5 196.5t-210.5 77.5q-141 0 -239 -94.5
t-98 -239.5q0 -140 88.5 -227t237.5 -87q86 0 168 35zM262 250q0 -43 35 -43q31 0 88.5 59.5t101.5 128t44 94.5q0 5 -2 12t-14.5 16t-33.5 9q-51 0 -103.5 -49t-84 -113.5t-31.5 -113.5z" />
    <glyph glyph-name="A" unicode="A" horiz-adv-x="665" 
d="M369 644l209 -545q15 -39 30.5 -52t43.5 -15q2 0 6.5 -0.5t6 -1t5 -1t4.5 -2t3 -3t2.5 -4t0.5 -6.5q0 -14 -24 -14q-18 0 -54 3t-54 3q-21 0 -63 -3t-63 -3q-33 0 -33 18q0 17 21 17h22q50 -3 50 28q0 16 -8 37l-50 134q-5 12 -11 18t-8 6h-11h-179q-7 0 -11.5 -0.5
t-8 -1.5t-5 -2t-3 -3t-2 -3.5t-1.5 -5t-2 -5.5l-45 -134q-6 -18 -6 -31q0 -21 18 -29.5t56 -10.5q16 -2 21 -5t5 -12q0 -15 -21 -15q-17 0 -51.5 3t-51.5 3q-14 0 -29.5 -1t-34.5 -2.5t-29 -2.5h-12q-17 2 -17 15q0 6 1.5 9t9 6t23.5 3q15 1 20 1.5t16 6.5t19.5 20.5
t18.5 40.5l193 517l28 82q6 19 17 19q3 0 5 -0.5t3.5 -1.5t3 -2.5t2 -2.5t1.5 -3.5t1.5 -3.5t1.5 -4t1 -4q6 -23 19 -54zM393 316l-86 225q-5 12 -8 12q-5 0 -8 -12l-83 -228q-3 -9 -3 -16q0 -5 8 -5h168q21 0 12 24z" />
    <glyph glyph-name="B" unicode="B" horiz-adv-x="697" 
d="M148 92v506q0 39 -11 52t-34 13q-15 0 -33.5 -5t-21.5 -5q-13 0 -13 12q0 14 19 20q76 27 257 27q301 0 301 -166q0 -39 -15 -68.5t-40 -45.5t-49 -24.5t-49 -11.5v-4q82 -8 140 -57.5t58 -136.5q0 -38 -13.5 -71.5t-44 -64t-88 -48.5t-135.5 -18q-30 0 -91 3.5t-92 3.5
q-21 0 -61 -1.5t-61 -1.5t-21 15q0 16 20 16q2 0 15.5 0.5t18.5 1.5t15.5 4.5t15 9.5t9 17.5t4.5 27.5zM238 627v-189q0 -24 9.5 -29.5t31.5 -5.5h74q83 0 121 38.5t38 91.5q0 65 -43.5 108.5t-135.5 43.5q-59 0 -77 -13.5t-18 -44.5zM238 342v-181q0 -70 10 -92
q21 -44 110 -44q105 0 152 50t47 121q0 78 -52 126.5t-165 48.5h-72q-30 0 -30 -29z" />
    <glyph glyph-name="C" unicode="C" horiz-adv-x="705" 
d="M663 630l4 -45q2 -23 -0.5 -31.5t-12.5 -8.5q-4 0 -6.5 1t-5 4.5t-4.5 7t-6.5 12t-9.5 15.5q-33 56 -76 81t-109 25q-130 0 -211 -94t-81 -239q0 -160 84.5 -254.5t205.5 -94.5q61 0 104 28q17 11 30.5 24t25 29.5t18 27.5t16 30t12.5 24q6 12 16 12q7 0 10.5 -4t4 -12.5
t0 -15.5t-2 -19.5t-1.5 -18.5l-2 -36q-1 -12 -2 -17.5t-11 -16.5t-30 -21q-95 -44 -202 -44q-155 0 -265.5 103t-110.5 263q0 153 111.5 264.5t284.5 111.5q107 0 199 -37q12 -5 16 -13t7 -41z" />
    <glyph glyph-name="D" unicode="D" horiz-adv-x="824" 
d="M133 122v481q0 44 -11.5 54t-50.5 1q-27 -6 -33 -6q-11 0 -13 10q-1 4 0 8q2 8 27 15q144 36 281 36q111 0 198 -30t140 -81t80.5 -114t27.5 -134q0 -70 -27.5 -134t-78.5 -115.5t-132 -82t-179 -30.5q-31 0 -93 3t-92 3q-20 0 -60 -3t-61 -3t-21 15q0 16 20 16
q5 0 17.5 0.5t17.5 1t14 3.5t12.5 8.5t8.5 15t6.5 25.5t1.5 37zM223 603v-428q0 -87 15 -109q24 -36 101 -36q166 0 253 92.5t87 237.5q0 153 -95 242t-239 89q-98 0 -115 -27q-7 -11 -7 -61z" />
    <glyph glyph-name="E" unicode="E" horiz-adv-x="614" 
d="M133 122v456q0 25 -3.5 42t-6.5 26.5t-13.5 14.5t-14.5 6t-20 1.5t-21 0.5q-19 1 -19 16t21 15q18 0 52 -1.5t52 -1.5h213q81 0 133 2q45 3 48 -2q1 -2 1 -6q0 -3 -0.5 -13t-0.5 -18l-1 -47v-34.5v-16v-8.5q0 -15 -11 -15q-13 0 -21 23q-17 45 -34.5 65t-56 29.5
t-115.5 9.5q-64 0 -78 -6.5t-14 -33.5v-193q0 -11 1 -16t8.5 -10t23.5 -5h98q26 0 44.5 6.5t27.5 18t13 20t7 20.5q6 24 19 24q14 0 14 -19q0 -18 -4 -37.5t-5 -44t6 -115.5q4 -35 -12 -35q-4 0 -6.5 1t-4.5 3.5l-3.5 4.5t-3 7l-2.5 8.5t-2.5 10l-2.5 10.5q-11 46 -34 64.5
t-90 18.5h-70q-11 0 -16 -5.5t-5.5 -9t-0.5 -13.5v-199q0 -24 2 -38t10.5 -32.5t29 -27t53.5 -8.5h72q40 0 68 8.5t46 26.5t27.5 35.5t20.5 45.5q10 24 20 24q12 0 12 -15q0 -13 -7.5 -45.5t-11.5 -84.5q-1 -9 -2.5 -15.5t-2.5 -9.5t-4 -4.5t-4.5 -2t-6.5 0t-7 0.5l-124 1
q-60 1 -132 3.5t-92 2.5q-22 0 -65.5 -3t-65.5 -3q-24 0 -24 15q0 16 20 16q5 0 17.5 0.5t17.5 1t14 3.5t12.5 8.5t8.5 15t6.5 25.5t1.5 37z" />
    <glyph glyph-name="F" unicode="F" horiz-adv-x="585" 
d="M133 122v456q0 25 -3.5 42t-6.5 26.5t-13.5 14.5t-14.5 6t-20 1.5t-21 0.5q-19 1 -19 16t21 15q22 0 67 -1.5t67 -1.5h183q81 0 133 2q45 3 48 -2q1 -2 1 -6v-9q-1 -22 -2 -69v-47v-12q0 -15 -11 -15q-5 0 -8.5 2.5t-7 8t-5.5 10.5l-5.5 13.5l-5.5 13.5q-21 48 -57 63.5
t-138 15.5q-46 0 -65.5 -3.5t-23 -9t-3.5 -21.5v-6v-193q0 -11 1 -16t8.5 -10t23.5 -5h98q26 0 44.5 6.5t27.5 18t13 20t7 20.5q6 24 19 24q16 0 13 -30q-3 -22 -5 -42t-2.5 -32.5t0 -30.5t1 -24.5t2 -28t2.5 -28.5q4 -35 -12 -35q-4 0 -6.5 1t-4.5 3.5l-3.5 4.5t-3 7
l-2.5 8.5t-2.5 10l-2.5 10.5q-11 46 -34 64.5t-90 18.5h-70q-11 0 -16 -5.5t-5.5 -9t-0.5 -13.5v-218q0 -21 2 -36t7.5 -24.5t10 -15t16 -8.5t17.5 -4t22 -1.5t24 -1.5q16 -2 18 -10q1 -3 1 -6q0 -15 -21 -15q-22 0 -66 3t-66 3t-66 -3t-66 -3q-21 0 -21 15q0 16 20 16
q5 0 17.5 0.5t17.5 1t14 3.5t12.5 8.5t8.5 15t6.5 25.5t1.5 37z" />
    <glyph glyph-name="G" unicode="G" horiz-adv-x="803" 
d="M700 216v-65q0 -33 1 -44.5t1 -32.5q0 -19 -12 -31q-27 -25 -102 -44.5t-146 -19.5q-104 0 -194.5 45t-146.5 129t-56 187q0 71 30.5 138.5t84.5 122t136.5 87.5t178.5 33q86 0 177 -33q10 -4 14 -6.5t8.5 -9t5.5 -16.5l2 -20q4 -40 4 -76q0 -21 -16 -21q-5 0 -8 2
t-4 3.5t-3.5 7t-3.5 6.5l-19 39q-46 94 -170 94q-136 0 -226.5 -94t-90.5 -253q0 -81 28.5 -146.5t74.5 -105.5t101 -61.5t112 -21.5q51 0 83 8.5t45.5 26.5t17 32.5t3.5 39.5v100q0 21 -1.5 36.5t-7.5 25t-9 15.5t-14 8.5t-14.5 3.5t-19.5 1h-20q-19 0 -19 16q0 15 21 15
t63 -3t63 -3t62.5 3t62.5 3t21 -15q0 -16 -19 -16h-16t-15.5 -0.5t-13 -2.5t-12 -5.5t-9 -10t-7.5 -15.5t-4 -23.5t-2 -32.5z" />
    <glyph glyph-name="H" unicode="H" horiz-adv-x="816" 
d="M133 122v456q0 25 -3.5 42t-6.5 26.5t-13.5 14.5t-14.5 6t-20 1.5t-21 0.5q-19 1 -19 16t21 15q20 0 61 -3t61 -3t61 3t61 3q21 0 21 -15q0 -16 -20 -16q-5 0 -17.5 -0.5t-17.5 -1t-14 -3.5t-12.5 -8.5t-8.5 -15t-6.5 -25.5t-1.5 -37v-178q0 -10 10 -10h350q10 0 10 10
v178q0 25 -3.5 42t-6.5 26.5t-13.5 14.5t-14.5 6t-20 1.5t-21 0.5q-19 1 -19 16t21 15q20 0 61 -3t61 -3t61 3t61 3q21 0 21 -15q0 -16 -20 -16q-5 0 -17.5 -0.5t-17.5 -1t-14 -3.5t-12.5 -8.5t-8.5 -15t-6.5 -25.5t-1.5 -37v-456q0 -25 3.5 -42t6.5 -26.5t13.5 -14.5
t14.5 -6t20 -1.5t21 -0.5q19 -1 19 -16t-21 -15q-20 0 -61 3t-61 3t-61 -3t-61 -3q-21 0 -21 15q0 16 20 16q5 0 17.5 0.5t17.5 1t14 3.5t12.5 8.5t8.5 15t6.5 25.5t1.5 37v224q0 10 -10 10h-350q-10 0 -10 -10v-224q0 -25 3.5 -42t6.5 -26.5t13.5 -14.5t14.5 -6t20 -1.5
t21 -0.5q19 -1 19 -16t-21 -15q-20 0 -61 3t-61 3t-61 -3t-61 -3q-21 0 -21 15q0 16 20 16q5 0 17.5 0.5t17.5 1t14 3.5t12.5 8.5t8.5 15t6.5 25.5t1.5 37z" />
    <glyph glyph-name="I" unicode="I" horiz-adv-x="356" 
d="M223 608v-516q0 -16 4.5 -27.5t9 -17.5t15.5 -9.5t16 -4.5t18.5 -1.5t15.5 -0.5q19 -1 19 -16t-21 -15q-20 0 -61 3t-61 3t-61 -3t-61 -3q-21 0 -21 15q0 16 20 16q2 0 15.5 0.5t18.5 1.5t15.5 4.5t15 9.5t9 17.5t4.5 27.5v516q0 16 -4.5 27.5t-9 17.5t-15.5 9.5t-16 4.5
t-18.5 1.5t-15.5 0.5q-19 1 -19 16t21 15q20 0 61 -3t61 -3t61 3t61 3q21 0 21 -15q0 -16 -20 -16q-2 0 -15.5 -0.5t-18.5 -1.5t-15.5 -4.5t-15 -9.5t-9 -17.5t-4.5 -27.5z" />
    <glyph glyph-name="J" unicode="J" horiz-adv-x="395" 
d="M262 578v-469q0 -72 -28 -139q-29 -63 -95 -119t-131 -56q-34 0 -56 15.5t-22 42.5q0 22 13.5 36.5t36.5 14.5q14 0 25 -6.5t15 -12t12 -17.5q14 -23 35 -23q26 0 53 27q15 15 26 36.5t16 39t8 47.5t3 45t-0.5 51t-0.5 47v440q0 25 -4 41.5t-8 25.5t-16.5 14.5t-18.5 6.5
t-25 1.5t-27 1.5q-16 2 -18 10q-1 3 -1 6q0 15 21 15q22 0 66 -3t66 -3t66 3t66 3q21 0 21 -15q0 -16 -20 -16q-5 0 -17.5 -0.5t-17.5 -1t-14 -3.5t-12.5 -8.5t-8.5 -15t-6.5 -25.5t-1.5 -37z" />
    <glyph glyph-name="K" unicode="K" horiz-adv-x="741" 
d="M223 285v-163q0 -57 13 -73t50 -17h8t7 -0.5t5.5 -0.5t5 -1t4 -2t3.5 -3t1.5 -4.5t0.5 -5.5q0 -15 -21 -15q-20 0 -61 3t-61 3t-61 -3t-61 -3q-21 0 -21 15q0 16 20 16q5 0 17.5 0.5t17.5 1t14 3.5t12.5 8.5t8.5 15t6.5 25.5t1.5 37v456q0 25 -3.5 42t-6.5 26.5
t-13.5 14.5t-14.5 6t-20 1.5t-21 0.5q-19 1 -19 16t21 15q20 0 61 -3t61 -3t61 3t61 3q21 0 21 -15q0 -4 -1 -6.5t-3.5 -4.5t-4.5 -3t-6 -1.5t-6.5 -1t-7.5 -0.5h-7q-36 -1 -49 -17t-13 -73v-222q0 -4 2 -6t5 -1.5t6 3.5l220 222q5 6 17.5 17.5t19 18.5t12.5 16.5t6 17.5
q0 13 -12 17.5t-40 7.5q-20 2 -20 16q0 15 20 15q21 0 62 -3t61 -3t61 3t61 3q21 0 21 -15t-20 -16q-52 -2 -94 -19.5t-59.5 -32.5t-58.5 -55q-8 -7 -12 -11l-123 -121q-9 -9 -9 -14q0 -6 6 -12l264 -300q31 -35 55 -52t33 -18.5t30 -2.5q19 0 19 -16q0 -15 -21 -15t-61 3
t-61 3q-25 0 -76.5 -3t-77.5 -3q-22 0 -22 15q0 14 20 16q54 2 64 9q10 6 10 21q0 19 -20 43l-213 243q-4 6 -12 6q-7 0 -13 -6l-41 -42q-9 -9 -9 -20z" />
    <glyph glyph-name="L" unicode="L" horiz-adv-x="558" 
d="M223 578v-431q0 -72 21.5 -94t83.5 -22q32 0 56 3.5t53 14t52 36t37 63.5q9 27 23 27t14 -17q0 -4 -11 -86q-8 -65 -13 -69q-2 -3 -11 -3h-68q-74 0 -164 3t-117 3q-21 0 -62 -3t-61 -3q-21 0 -21 15q0 16 20 16q5 0 17.5 0.5t17.5 1t14 3.5t12.5 8.5t8.5 15t6.5 25.5
t1.5 37v456q0 25 -3.5 42t-6.5 26.5t-13.5 14.5t-14.5 6t-20 1.5t-21 0.5q-19 1 -19 16t25 15q22 0 64.5 -3t63.5 -3t64.5 3t65.5 3q23 0 23 -15q0 -16 -20 -16q-3 0 -20 -1t-24 -2t-18.5 -5t-18.5 -11q-17 -18 -17 -72z" />
    <glyph glyph-name="M" unicode="M" horiz-adv-x="926" 
d="M263 682l199 -498q4 -12 7 -12t7 12l214 503q0 1 1 3t1.5 2.5t1.5 2.5t3 2.5t4.5 1t7 1t9.5 0.5q14 0 37 -1t33 -1q11 0 35 1t36 1q21 0 21 -15q0 -11 -6 -13t-30 -4q-37 -2 -48 -15t-10 -60l17 -490q1 -42 13.5 -56t43.5 -15q17 -1 23 -2.5t9 -4.5t3 -10q0 -15 -21 -15
q-20 0 -62 3t-62 3t-61 -3t-61 -3q-22 0 -22 15q0 14 20 16q4 0 21 0.5t22 1.5t17 6.5t16 14.5t8 26t3 42l-13 468q0 13 -4 13q-5 0 -9 -11l-214 -505q-9 -21 -13 -32t-8 -20q-4 -11 -12 -11t-12 11l-21 52l-203 502q-2 6 -5.5 5t-3.5 -8l-22 -446q-2 -39 1.5 -62
t14.5 -32.5t22.5 -12t31.5 -2.5h15q13 0 17 -4t4 -12q0 -15 -21 -15q-17 0 -52.5 3t-53.5 3q-16 0 -49 -3t-50 -3q-22 0 -22 15q0 16 20 16h16t16.5 1t13 4t13 9l9 16t8 26.5t3.5 38.5l33 471q0 17 0.5 32.5t-10 27t-31.5 12.5q0 1 -19 1l-19 -1q-19 0 -19 16q0 15 21 15
q10 0 30 -1t57 -1q31 0 46 1q5 0 13 0.5t13 0.5q8 0 10.5 -2t7.5 -16z" />
    <glyph glyph-name="N" unicode="N" horiz-adv-x="817" 
d="M244 677l399 -515v372v20q0 30 -0.5 44.5t-4.5 33t-14.5 26.5t-27.5 9l-34 2q-19 1 -19 16t21 15q17 0 51 -3t51 -3q16 0 47.5 3t47.5 3q21 0 21 -15q0 -16 -20 -16l-32 -2q-39 -2 -45 -52q-2 -14 -2 -83v-510q0 -31 -13 -31q-6 0 -12 5.5t-15 18.5t-12 16l-455 585
l2 -331q0 -184 8 -216q2 -9 7.5 -16t9.5 -10.5t14.5 -6t13.5 -3t16.5 -1.5t14.5 -1q19 -1 19 -16t-21 -15q-17 0 -51.5 3t-51.5 3t-50.5 -3t-50.5 -3q-21 0 -21 15q0 16 20 16q6 0 18.5 0.5t17.5 1t14 3.5t12.5 8.5t8.5 15.5t6.5 25.5t1.5 36.5l2 456q0 25 -3.5 42
t-6.5 26.5t-13.5 14.5t-14 6t-20.5 1.5t-21 0.5q-19 1 -19 16t21 15h153q8 0 13.5 -3t7.5 -5.5t11 -14.5z" />
    <glyph glyph-name="O" unicode="O" horiz-adv-x="867" 
d="M434 -21q-89 0 -164 32.5t-123.5 85.5t-75 120t-26.5 138q0 79 33 148.5t87.5 116.5t126 74t148.5 27q116 0 205 -55t133 -138.5t44 -177.5q0 -151 -110.5 -261t-277.5 -110zM434 9q125 0 206.5 95t81.5 235q0 88 -31.5 166.5t-98.5 132t-158 53.5q-53 0 -103 -20.5
t-92.5 -60t-68 -106t-25.5 -149.5q0 -152 82 -249t207 -97z" />
    <glyph glyph-name="P" unicode="P" horiz-adv-x="616" 
d="M133 122v456q0 57 -13 73t-50 17h-8t-7 0.5t-5.5 0.5t-5 1t-4 2t-3.5 3t-1.5 4.5t-0.5 5.5q0 15 21 15q20 0 61 -2t62 -2q16 0 98 5q38 2 58 2q114 0 185 -50.5t71 -144.5q0 -86 -61 -144t-158 -58q-55 0 -110 19q-24 8 -30 8q-9 0 -9 -19v-192q0 -21 2 -36t7.5 -24.5
t10 -15t16 -8.5t17.5 -4t22 -1.5t24 -1.5q16 -2 18 -10q1 -3 1 -6q0 -15 -21 -15q-22 0 -66 3t-66 3t-66 -3t-66 -3q-21 0 -21 15q0 4 1 6.5t3.5 4.5t4.5 3t6 1.5t6.5 1t7.5 0.5h7q36 1 49 17t13 73zM223 583v-186q0 -23 15 -31q46 -22 97 -22q76 0 123 46t47 119
q0 10 -1 20t-5 27t-11 31t-21.5 30t-34 27t-49.5 18t-67 7q-70 0 -85 -23q-8 -13 -8 -63z" />
    <glyph glyph-name="Q" unicode="Q" horiz-adv-x="867" 
d="M436 721q72 0 135 -21t108 -57t78 -83.5t49 -101t16 -108.5q0 -133 -88.5 -237.5t-240.5 -129.5q-32 -5 -18 -41q10 -26 39 -54t60 -45q60 -33 145 -33q41 0 63.5 9t28.5 9q7 0 9 -7q2 -3 0 -7q-6 -19 -59 -31t-105 -12q-118 0 -201 58.5t-83 126.5q0 8 4 16q2 5 0 7
t-18 5q-55 8 -109.5 37t-100.5 75.5t-74.5 115t-28.5 146.5q0 157 117.5 260t273.5 103zM440 9q120 0 201 94.5t81 235.5q0 65 -18.5 127t-53.5 112.5t-91 81.5t-124 31q-54 0 -104 -20.5t-92.5 -60t-68 -106t-25.5 -149.5q0 -86 26.5 -154.5t70 -109t94.5 -61.5t104 -21z
" />
    <glyph glyph-name="R" unicode="R" horiz-adv-x="663" 
d="M133 122v456q0 25 -3.5 42t-6.5 26.5t-13.5 14.5t-14.5 6t-20 1.5t-21 0.5q-19 1 -19 16t21 15q20 0 61 -3t61 -3q22 0 69 3t95 3q18 0 32.5 -1t45.5 -5t55 -15.5t49 -29.5t38.5 -49.5t13.5 -72.5q0 -24 -7 -46.5t-25 -47t-56 -43.5t-93 -27v-4q30 -3 54 -46l125 -225
q18 -32 33.5 -44t36.5 -13h15q19 0 19 -16q0 -14 -21 -15h-32h-37q-7 0 -20.5 -1t-21.5 -1q-9 0 -16.5 1.5t-11.5 3.5t-8 6.5t-5.5 7t-4.5 9t-5 9.5l-129 246q-16 31 -31.5 45.5t-27 16.5t-35.5 2h-9q-30 0 -35 -4t-5 -23v-196q0 -25 3.5 -42t6.5 -26.5t13.5 -14.5t14.5 -6
t20 -1.5t21 -0.5q19 -1 19 -16t-21 -15q-20 0 -61 3t-61 3t-61 -3t-61 -3q-21 0 -21 15q0 16 20 16q5 0 17.5 0.5t17.5 1t14 3.5t12.5 8.5t8.5 15t6.5 25.5t1.5 37zM223 607v-206q0 -12 1 -16t10 -7t29 -3h42q17 0 33 1.5t43 9.5t46.5 22.5t34 43.5t14.5 69q0 64 -41 106.5
t-131 42.5q-52 0 -66.5 -12t-14.5 -51z" />
    <glyph glyph-name="S" unicode="S" horiz-adv-x="525" 
d="M445 666l3 -91q0 -27 -13 -27t-18 18q-8 26 -15 42t-23.5 38.5t-44.5 33.5t-68 11q-55 0 -97 -27.5t-42 -81.5q0 -30 12 -53.5t37.5 -42.5t47.5 -30.5t61 -28.5q87 -38 121 -65q79 -62 79 -161q0 -90 -66 -156t-192 -66q-71 0 -135 27q-34 14 -43 25.5t-9 27.5l1 51
q1 73 8 84q4 6 12 6q4 0 6.5 -1t4 -3l3 -4t2 -6.5t1 -6.5t1 -8t0.5 -8q18 -154 158 -154q67 0 118.5 38.5t51.5 113.5q0 62 -42.5 101t-134.5 80q-38 17 -61.5 30t-53.5 37t-45.5 56.5t-15.5 72.5q0 75 59.5 129t168.5 54q86 0 148 -30q14 -7 15 -25z" />
    <glyph glyph-name="T" unicode="T" horiz-adv-x="648" 
d="M119 700h455q18 0 24 4t10 16q7 21 14 23q2 1 5 1q4 0 7 -1t4.5 -4t2.5 -5.5t1.5 -6.5t0.5 -6v-6.5v-5.5l-4 -93q-2 -61 -9 -68q-4 -3 -9 -3t-8 2t-5.5 6.5t-3.5 7.5t-2.5 11t-2.5 11q-28 83 -82 83h-119q-21 0 -24 -10q-2 -4 -2 -10v-524q0 -57 14 -73t54 -17h9t9 -0.5
t7.5 -1.5t6.5 -2.5t3.5 -4.5t1.5 -8q0 -15 -21 -15q-22 0 -64 3t-64 3t-65 -3t-65 -3q-21 0 -21 15t19 16q6 1 23 1t22 1t16 6t14.5 14.5t7 26.5t3.5 42v524q0 15 -10 17.5t-49 2.5q-36 0 -52.5 -1.5t-41.5 -9t-44.5 -26.5t-40.5 -51l-7.5 -13t-6.5 -12t-6.5 -7t-9.5 -3
t-9.5 4t-4.5 10q0 10 7 33l40 134q6 21 21 21q14 0 16 -13v-12q2 -20 35 -20z" />
    <glyph glyph-name="U" unicode="U" horiz-adv-x="773" 
d="M213 578v-371q0 -53 13.5 -92t32.5 -59t47 -31.5t48 -14t45 -2.5q61 0 105.5 17.5t66 39.5t33.5 54.5t13.5 49.5t1.5 38v371q0 21 -1.5 36.5t-7 25.5t-9.5 15.5t-14 8.5t-15 3.5t-19 1t-20 0.5q-20 0 -20 16q0 15 21 15q16 0 49 -3t50 -3q16 0 47.5 3t46.5 3q21 0 21 -15
q0 -16 -20 -16h-15t-14 -0.5t-13 -2.5t-11 -5t-9 -10t-7 -16.5t-4.5 -23.5t-1.5 -33v-371q0 -23 -2 -42t-16.5 -56.5t-40.5 -63t-81.5 -46t-132.5 -20.5q-50 0 -90.5 8t-67 20.5t-45.5 32t-29.5 37.5t-16 43.5t-7 44t-1.5 42.5v371q0 25 -3.5 42t-6.5 26.5t-13.5 14.5
t-14.5 6t-20 1.5t-21 0.5q-19 1 -19 16t21 15q20 0 61 -3t61 -3t61 3t61 3q21 0 21 -15q0 -16 -20 -16q-5 0 -17.5 -0.5t-17.5 -1t-14 -3.5t-12.5 -8.5t-8.5 -15t-6.5 -25.5t-1.5 -37z" />
    <glyph glyph-name="V" unicode="V" horiz-adv-x="721" 
d="M187 606l193 -446q1 -2 4 -10t5 -11t6 -3q2 0 3.5 1t3 3.5t2 5t2.5 7t3 8.5l153 375q28 68 28 92q0 38 -66 40q-21 1 -27.5 3.5t-6.5 13.5q0 15 21 15q17 0 51.5 -2t51.5 -2q18 0 50.5 2t42.5 2h11q18 -1 18 -15q0 -16 -18 -17l-16 -1h-11t-10 -0.5t-9 -3t-10 -6.5
t-9.5 -11t-12 -18.5l-13.5 -27t-17 -37l-20 -49.5l-186 -461q-8 -20 -13 -35.5l-8 -25.5q-6 -13 -15 -13t-15 13q-4 10 -9.5 28t-12.5 32l-223 508l-19.5 43t-17 30t-13.5 18.5t-13.5 10t-11.5 4.5t-14 1.5t-16 1.5q-18 4 -18 17q0 14 23 14q18 0 54 -3t54 -3q21 0 63.5 3
t63.5 3q19 0 25.5 -4t6.5 -14q0 -13 -8.5 -15t-40.5 -2q-47 0 -47 -32q0 -9 8 -27z" />
    <glyph glyph-name="W" unicode="W" horiz-adv-x="1065" 
d="M186 608l224 -466q6 -14 10 -14t10 14l93 193l-121 259q-16 34 -35 51t-51 21q-24 3 -24 18q0 16 24 16q17 0 50.5 -2.5t50.5 -2.5q18 0 53 2.5t52 2.5q32 0 32 -18q0 -3 -0.5 -5.5t-1.5 -4l-2 -3t-3.5 -2t-4 -1.5t-4.5 -1t-4.5 -0.5t-5.5 -0.5h-5q-14 0 -21.5 -1
t-15 -6.5t-7.5 -16.5q0 -5 12 -32l74 -157q8 -16 10 -16t10 16l67 135q19 39 19 59q0 8 -4.5 12.5t-12 6t-16.5 2t-17 0t-15 0.5q-17 2 -17 17q0 11 6 14t19 3q16 0 50 -1.5t50 -1.5q2 0 68 3h11q18 0 18 -17q0 -19 -33 -19q-18 -1 -23 -2t-19 -11t-29.5 -36t-38.5 -73
l-75 -149l117 -251q6 -14 10 -14q3 0 9 14l170 389q41 95 41 114q0 20 -46 20h-5q-18 0 -24.5 4t-6.5 14q0 17 21 17q15 0 44 -1.5t44 -1.5q12 0 26 0.5t31.5 1.5t26.5 1h11q18 -2 18 -17t-18 -17q-4 0 -18 -0.5t-18.5 -2t-16.5 -9t-21 -22.5t-24 -42.5t-32 -67.5l-222 -518
q-1 -2 -3 -9.5t-5.5 -11.5t-8.5 -4q-3 0 -5.5 1.5t-4.5 4.5t-3.5 5t-3.5 7.5t-3 7.5l-121 275q-4 12 -9 12q-3 0 -9 -12l-124 -263q-1 -3 -3.5 -9l-4.5 -10.5l-4 -9t-4.5 -7t-5.5 -2.5q-8 0 -24 37l-269 568q-23 49 -36 61q-14 13 -38 18q-4 1 -10.5 2l-10 1.5t-7.5 2.5
t-6 5.5t-2 9.5q0 15 25 15q17 0 50.5 -2.5t50.5 -2.5q18 0 52.5 3t51.5 3q32 0 32 -18q0 -14 -11.5 -18t-25 -2t-25 -2.5t-11.5 -19.5q0 -6 12 -32z" />
    <glyph glyph-name="X" unicode="X" horiz-adv-x="751" 
d="M267 591l120 -161q9 -11 16 0l103 148q37 52 37 67q0 8 -3.5 13t-10 7t-14.5 2.5t-16 0t-16 0.5l-15 1.5t-9.5 4.5t-4.5 11q0 15 15 15h6q126 -3 128 -3q18 0 55 1.5t56 1.5q22 0 22 -15q0 -10 -5.5 -13.5t-28.5 -4.5q-44 -2 -81.5 -25t-94.5 -99l-110 -148l222 -302
q28 -38 42 -48.5t37 -12.5q2 0 6.5 -0.5t6.5 -1t5 -1t4.5 -2t3.5 -3t2.5 -4t0.5 -6.5q0 -14 -24 -14q-18 0 -54 3t-54 3q-21 0 -63 -3t-63 -3q-33 0 -33 18q0 17 19 17h19q52 -3 52 21q0 15 -29 53l-148 198q-6 8 -10 6q-2 -2 -5 -6l-143 -198q-22 -30 -22 -49q0 -28 50 -28
h10.5h11h9.5t9 -1.5l6 -3t4.5 -5t1.5 -7.5q0 -15 -21 -15q-22 0 -66 2t-66 2q-31 0 -93 -4h-12q-18 4 -18 15q0 8 5.5 12t10.5 4.5t19 1.5q37 2 59 17t68 78l163 219l-178 231q-42 55 -59.5 71t-47.5 20q-6 1 -15 1t-14 0.5t-10 1.5t-7.5 4.5t-2.5 9.5q0 14 20 14
q19 0 56 -2.5t55 -2.5q28 0 85 2.5t86 2.5q28 0 28 -17t-21 -18h-16h-18q-42 0 -42 -21q0 -14 29 -53z" />
    <glyph glyph-name="Y" unicode="Y" horiz-adv-x="724" 
d="M210 617l168 -248q12 -17 15 -17t14 17l116 179l18 27l15 23.5l9.5 16t7.5 15t2 9.5q0 6 -2 11t-6 8t-8.5 5t-12.5 3t-13.5 1.5t-16 1t-16.5 0.5q-20 1 -20 16t21 15q20 0 60.5 -3t61.5 -3q16 0 47.5 3t47.5 3q21 0 21 -15q0 -16 -20 -16q-2 0 -13 -0.5t-13.5 -1t-12 -2
t-13.5 -4.5t-13 -8t-16 -13t-17.5 -19t-22 -26.5l-24.5 -34.5l-164 -237q-9 -13 -9 -39v-162q0 -25 3.5 -42t6.5 -26.5t13.5 -14.5t14.5 -6t20 -1.5t21 -0.5q19 -1 19 -16t-21 -15q-20 0 -61 3t-61 3t-61 -3t-61 -3q-21 0 -21 15q0 16 20 16q5 0 17.5 0.5t17.5 1t14 3.5
t12.5 8.5t8.5 15t6.5 25.5t1.5 37v170q0 20 -11 37l-195 288q-15 22 -30 33t-25.5 13.5t-29.5 3.5q-22 1 -28.5 5t-6.5 13q0 15 23 15q22 0 66 -3t66 -3t67 3t68 3t23 -15q0 -10 -6 -13t-26 -4h-3q-6 0 -15.5 -0.5t-14.5 -1t-11.5 -1.5t-10 -2t-6.5 -3t-4.5 -5.5t-1.5 -7.5
q0 -13 11 -30z" />
    <glyph glyph-name="Z" unicode="Z" horiz-adv-x="671" 
d="M493 670h-157q-95 0 -141 -13.5t-76 -69.5q-1 -1 -3 -5t-2.5 -5.5t-2.5 -5t-3.5 -5t-3.5 -4t-4 -3.5t-4.5 -2t-4.5 -1q-11 0 -11 12q0 8 9 38l18 59q5 17 9.5 35l6.5 25.5t4.5 14.5t5.5 9t9 2q9 0 12.5 -4.5t4.5 -14t1 -11.5q4 -21 56 -21h378q3 0 10 0.5t10.5 0t8 -1
t6.5 -3t2 -6.5q0 -6 -9 -19l-456 -616q-8 -11 -8 -16q0 -6 20 -6h126q14 0 61 -0.5t63.5 0t47.5 3t49.5 9.5t33.5 19q43 34 49 110q0 18 14 18t14 -23v-143v-3q0 -9 -0.5 -12.5t-5.5 -7t-16 -3.5h-39q-25 0 -71.5 1t-84.5 1.5t-72 0.5q-49 0 -148 -1.5t-148 -1.5h-9
q-10 0 -12.5 6.5t5.5 19.5l465 630q5 7 5 13q0 1 -12 1z" />
    <glyph glyph-name="bracketleft" unicode="[" horiz-adv-x="303" 
d="M85 -181v829q0 50 6 61.5t29 11.5h157q21 0 21 -16q0 -15 -17 -17h-22q-14 1 -42 1q-37 0 -46 -9.5t-9 -36.5v-819q0 -27 9 -36.5t46 -9.5q28 0 42 1h22q17 -2 17 -17q0 -16 -21 -16h-157q-23 0 -29 11.5t-6 61.5z" />
    <glyph glyph-name="backslash" unicode="\" horiz-adv-x="476" 
d="M433 -253l-403 953l43 18l403 -953z" />
    <glyph glyph-name="bracketright" unicode="]" horiz-adv-x="303" 
d="M218 648v-829q0 -50 -6 -61.5t-29 -11.5h-157q-21 0 -21 16q0 15 17 17h22q14 -1 42 -1q37 0 46 9.5t9 36.5v819q0 27 -9 36.5t-46 9.5q-28 0 -42 -1h-22q-17 2 -17 17q0 16 21 16h157q23 0 29 -11.5t6 -61.5z" />
    <glyph glyph-name="asciicircum" unicode="^" horiz-adv-x="488" 
d="M244 631l-147 -198h-67l214 288l214 -288h-67z" />
    <glyph glyph-name="underscore" unicode="_" horiz-adv-x="579" 
d="M5 -249v47h569v-47h-569z" />
    <glyph glyph-name="grave" unicode="`" horiz-adv-x="272" 
d="M223 593l-187 66q-36 13 -36 39q0 13 9 21.5t23 8.5t32 -10l170 -101q4 -2 11.5 -6.5l11 -6.5l8 -4.5t6 -5t1.5 -5.5q0 -8 -10 -8q-3 0 -39 12z" />
    <glyph glyph-name="a" unicode="a" horiz-adv-x="531" 
d="M421 421l-8 -299v-27q0 -63 33 -63q17 0 36 16q13 11 15 11q12 0 12 -10q0 -9 -19 -26q-48 -44 -86 -44q-57 0 -75 78q-3 7 -6 7q-2 0 -14 -9q-92 -76 -167 -76q-48 0 -68.5 27t-20.5 60q0 48 56.5 92t193.5 95q17 6 23 11.5t6 14.5l3 119q2 16 0 33.5t-6.5 31t-20 22.5
t-41.5 9q-92 0 -123 -85q-13 -37 -33 -49q-19 -12 -49 -12q-11 0 -14 4t-3 12q0 47 62 95q79 63 185 63q44 0 73 -11t40 -29.5t14 -31.5t2 -29zM329 150l2 69q0 14 -7 14t-23 -6q-151 -52 -151 -130q0 -61 54 -61q47 0 85.5 32.5t39.5 81.5z" />
    <glyph glyph-name="b" unicode="b" horiz-adv-x="619" 
d="M84 103v509q0 32 -6.5 43t-20.5 11h-16q-21 0 -21 12q0 11 19 15q54 13 85 29q34 17 35 17q9 0 9 -9v-9.5v-14v-19.5v-218q0 -13 2 -15q6 -6 16 2l18 13q72 53 144 53q98 0 167 -72t69 -187q0 -120 -82.5 -202t-205.5 -82q-32 0 -64 9.5t-44 16t-41 23.5q-11 7 -16.5 2.5
t-20.5 -36.5q-9 -21 -21 -21q-13 0 -15 12.5t3 28.5q7 41 7 89zM168 372v-259q0 -48 32 -76t85 -28q81 0 145.5 63t64.5 182q0 100 -56.5 157t-133.5 57q-50 0 -97 -27q-26 -16 -33 -30t-7 -39z" />
    <glyph glyph-name="c" unicode="c" horiz-adv-x="532" 
d="M494 452l-5 -56q-2 -27 -16 -27q-3 0 -6 1t-6 3.5t-5 4t-5 5.5l-4.5 6t-4.5 7.5t-4 6.5q-14 22 -21.5 32.5t-23 26.5t-34 23t-41.5 7q-73 0 -133.5 -67.5t-60.5 -169.5q0 -108 67 -168.5t152 -60.5q68 0 132 52q11 9 17 9q8 0 8 -9q0 -8 -12 -21q-69 -78 -188 -78
q-115 0 -190 71.5t-75 179.5q0 117 84.5 204.5t212.5 87.5q40 0 83 -11t68 -31q13 -11 11 -28z" />
    <glyph glyph-name="d" unicode="d" horiz-adv-x="631" 
d="M543 698v-613q0 -4 -0.5 -13.5t0 -13t1.5 -9t4.5 -7.5t8.5 -2q10 0 20 10l11 11.5t9 9.5t6.5 5t5.5 2q7 0 7 -13l-1 -24q0 -5 -7.5 -9t-28.5 -11t-36 -13l-54 -22q-24 -10 -26 14l-4 44q-2 24 -20 7q-79 -72 -165 -72q-99 0 -169 75.5t-70 193.5q0 87 43 151.5t105 93.5
t130 29q72 0 133 -29q8 -4 10.5 -3.5t2.5 9.5v113q0 33 -6 43t-21 11h-16q-21 0 -21 12q0 11 19 15q54 13 85 29q34 17 35 17q4 0 6.5 -2t3 -6.5t0.5 -8.5t-0.5 -11.5t-0.5 -12.5zM459 118v257q0 117 -141 117q-51 0 -90.5 -23t-61 -59.5t-32 -74.5t-10.5 -75
q0 -106 58 -166.5t140 -60.5q45 0 91 24t46 61z" />
    <glyph glyph-name="e" unicode="e" horiz-adv-x="536" 
d="M486 341h-325q-21 0 -29 -15t-8 -70q0 -95 57.5 -157.5t148.5 -62.5q74 0 123 40l16.5 15t12.5 11t8 3q12 0 12 -9q0 -13 -21 -35q-78 -82 -194 -82q-109 0 -180.5 76.5t-71.5 193.5q0 116 73 194.5t188 78.5q59 0 103.5 -19t65.5 -47t31 -53t10 -44q0 -18 -20 -18z
M167 368l118 1q82 1 105 14q21 12 21 37q0 27 -31.5 49.5t-80.5 22.5q-82 0 -131 -62q-22 -30 -22 -46t21 -16z" />
    <glyph glyph-name="f" unicode="f" horiz-adv-x="356" 
d="M195 440v-347q0 -33 14 -48t60 -16q27 0 27 -14q0 -15 -31 -15q-17 0 -51 2t-51 2t-51 -2t-51 -2q-31 0 -31 15q0 14 27 14q34 1 44 16t10 48v332q0 14 -0.5 20t-5.5 12t-15 6h-27q-17 0 -17 12q0 7 4 10.5t7.5 4.5t12.5 2q20 3 30 12.5t11.5 16.5t1.5 21q0 91 68.5 144
t152.5 53q42 0 64.5 -15t22.5 -32q0 -13 -12.5 -37.5t-23.5 -24.5q-3 0 -6.5 1t-5.5 2.5t-5 4.5t-4.5 5t-4.5 7t-5 7q-11 15 -18.5 22.5t-22 15.5t-30.5 8q-88 0 -88 -146q0 -39 3 -47.5t17 -8.5h115q9 0 10 -8l2 -19q1 -7 -2 -9t-10 -2h-114q-15 0 -18 -4.5t-3 -18.5z" />
    <glyph glyph-name="g" unicode="g" horiz-adv-x="561" 
d="M419 481l103 2q13 0 17 -15l5 -23q3 -14 -13 -14l-73 2l-4 -5q25 -40 25 -90q0 -76 -55.5 -126t-148.5 -57q-45 -3 -89 -16.5t-44 -27.5q0 -9 23.5 -22t52.5 -13q18 0 59.5 3t80.5 3q56 0 95.5 -12.5t58 -33.5t26.5 -41t8 -41q0 -35 -19 -70.5t-56 -67t-100.5 -51
t-142.5 -19.5q-112 0 -162.5 41.5t-50.5 88.5t54 81q9 6 21.5 13l20.5 11.5t16 9.5t12 9.5t4 7.5t-3 7.5t-8.5 9.5t-11 9l-14 10t-12.5 10q-39 31 -39 49q0 3 2 6t6.5 5.5t9 4t14 5t16.5 6.5q47 18 79 37q-72 28 -101 74.5t-29 97.5q0 71 57 127t159 56q31 0 55.5 -5
t40 -11.5t55.5 -24.5zM268 492q-52 0 -89.5 -46t-37.5 -113q0 -61 35 -104.5t90 -43.5q50 0 86.5 38.5t36.5 109.5q0 69 -35 114t-86 45zM329 7l-68 -3q-22 -1 -41.5 -4t-51 -13t-50.5 -35t-19 -62q0 -48 46.5 -81t117.5 -33q87 0 147.5 39.5t60.5 95.5q0 38 -33 68.5
t-109 27.5z" />
    <glyph glyph-name="h" unicode="h" horiz-adv-x="652" 
d="M190 725v-282q0 -13 2 -13q7 0 11 4q42 44 82.5 66t91.5 22q27 0 53.5 -7t57 -26t49.5 -60.5t19 -101.5v-234q0 -33 10 -48t44 -16q27 0 27 -14q0 -15 -31 -15q-16 0 -46 2t-46 2t-46 -2t-46 -2q-31 0 -31 15q0 14 27 14q34 1 44 16t10 48v220q0 158 -132 158
q-50 0 -100 -33.5t-50 -84.5v-260q0 -33 10 -48t44 -16q27 0 27 -14q0 -15 -31 -15q-16 0 -46 2t-46 2t-46 -2t-46 -2q-31 0 -31 15q0 14 27 14q34 1 44 16t10 48v485q0 36 -11.5 45t-37.5 9h-11q-13 0 -13 10q0 8 13 14q26 11 44.5 20t31.5 18t17.5 12.5t14.5 14l11 11.5
q7 7 15 7q10 0 10 -14z" />
    <glyph glyph-name="i" unicode="i" horiz-adv-x="295" 
d="M197 481v-388q0 -16 1 -23.5t5.5 -18.5t16 -16t31.5 -6q27 0 27 -14q0 -15 -31 -15q-15 0 -46 2t-46 2t-46 -2t-46 -2q-31 0 -31 15q0 13 12 13l15 1q32 2 41 13q13 14 13 51v270q0 36 -11.5 45t-37.5 9h-11q-13 0 -13 10q0 8 13 14q18 7 31.5 13t24.5 13t17 10t14.5 10
t10.5 8.5t11 11l10 10.5q9 7 15 7q5 0 8 -2.5t3.5 -7t0 -9t-1 -12t-0.5 -12.5zM151 710q23 0 37 -16t14 -42q0 -27 -13.5 -41.5t-36.5 -14.5q-25 0 -38 18t-13 42q0 21 13.5 37.5t36.5 16.5z" />
    <glyph glyph-name="j" unicode="j" horiz-adv-x="279" 
d="M194 471v-448q0 -41 -0.5 -56.5t-6 -45t-17.5 -47.5t-35 -44t-59 -54q-38 -30 -49 -30q-12 0 -12 10q0 5 6.5 11.5t21 23.5t29.5 42q38 64 38 185v345q0 36 -11.5 45t-37.5 9h-11q-13 0 -13 10q0 8 13 14q15 6 27.5 12l21.5 10.5t17.5 10l13 8.5t11 9t9 8.5l9 9l8.5 8.5
q7 7 14 7q4 0 6.5 -1.5t4 -4t2 -5.5t1 -8.5t0 -10t-0.5 -11.5v-12zM148 710q23 0 37 -16t14 -42q0 -27 -13.5 -41.5t-36.5 -14.5q-25 0 -38 18t-13 42q0 21 13.5 37.5t36.5 16.5z" />
    <glyph glyph-name="k" unicode="k" horiz-adv-x="604" 
d="M190 696v-419q0 -9 2 -9q5 0 9 3l127 97q84 65 84 81q0 7 -3 12t-11.5 7t-12.5 2.5t-15 1.5h-12q-19 2 -19 14q0 15 31 15q18 0 53 -2t53 -2q13 0 38.5 2t38.5 2q31 0 31 -15q0 -14 -27 -14q-60 -2 -155 -81l-77 -64q-9 -8 -3 -17l178 -227q12 -15 21.5 -25.5t15.5 -16
t13 -8.5t9.5 -3.5t10 -0.5h10.5q19 -2 19 -14q0 -15 -31 -15q-16 0 -46 2t-46 2q-17 0 -50.5 -2t-50.5 -2q-31 0 -31 15q0 14 27 14q28 1 36 13.5t-8 32.5l-140 180q-11 10 -13.5 10t-10.5 -6l-37 -28q-8 -6 -8 -15v-122q0 -14 1 -21.5t5.5 -19t17 -17t31.5 -6.5
q26 0 26 -13q0 -17 -32 -17q-15 0 -45.5 2t-46.5 2q-15 0 -45 -2t-45 -2q-32 0 -32 17q0 13 26 13q19 1 31.5 6.5t17 17t5.5 19t1 21.5v518q0 33 -6 43t-21 11h-16q-21 0 -21 12q0 11 19 15q54 13 85 29q34 17 35 17q4 0 6.5 -1.5t3 -6t0.5 -8.5t-0.5 -12.5t-0.5 -14.5z" />
    <glyph glyph-name="l" unicode="l" horiz-adv-x="296" 
d="M190 696v-602q0 -14 1 -21.5t5.5 -19t17 -17t31.5 -6.5q26 0 26 -13q0 -17 -32 -17q-15 0 -45.5 2t-46.5 2q-15 0 -45 -2t-45 -2q-32 0 -32 17q0 13 26 13q19 1 31.5 6.5t17 17t5.5 19t1 21.5v520q0 31 -6 41t-21 11h-16q-21 0 -21 12q0 11 19 15q54 13 85 29
q34 17 35 17q4 0 6.5 -1.5t3 -6t0.5 -8.5t-0.5 -12.5t-0.5 -14.5z" />
    <glyph glyph-name="m" unicode="m" horiz-adv-x="967" 
d="M113 93v270q0 36 -11.5 45t-37.5 9h-11q-13 0 -13 10q0 8 13 14q30 12 53 24.5t35 21t20.5 16t12 12t6.5 7t6 2.5q8 0 8 -17v-64q0 -10 6 -10q3 0 6.5 2.5t15.5 12.5t26 20q40 29 68.5 41.5t63.5 12.5q104 0 150 -100q88 100 180 100q18 0 35.5 -3t41.5 -14t41.5 -29.5
t30 -53t12.5 -80.5v-249q0 -33 10 -48t44 -16q27 0 27 -14q0 -15 -31 -15q-15 0 -46 2t-46 2t-46 -2t-46 -2q-31 0 -31 15q0 14 27 14q34 1 44 16t10 48v249q0 37 -12 63t-26.5 38t-35.5 18.5t-29 7t-17 0.5q-52 0 -92.5 -35t-40.5 -100v-241q0 -33 10 -48t44 -16
q27 0 27 -14q0 -15 -31 -15q-16 0 -46 2t-46 2t-46 -2t-46 -2q-31 0 -31 15q0 14 27 14q34 1 44 16t10 48v233q0 28 -3 47t-13 44t-35.5 38.5t-65.5 13.5q-50 0 -93 -34.5t-43 -83.5v-258q0 -29 8.5 -44.5t19.5 -17t23 -2.5t18 -1l6 -2q6 -2 6 -11q0 -15 -31 -15
q-15 0 -46 2t-46 2t-46 -2t-46 -2q-31 0 -31 15q0 13 12 13l15 1q32 2 41 13q13 14 13 51z" />
    <glyph glyph-name="n" unicode="n" horiz-adv-x="659" 
d="M113 93v270q0 36 -11.5 45t-37.5 9h-11q-13 0 -13 10q0 8 13 14q26 11 44.5 20t31.5 18t17.5 12.5t14.5 14l11 11.5q7 7 14 7q9 0 9 -7q0 -1 -0.5 -11t-0.5 -25v-38q0 -14 8 -14q3 0 6 2.5t14 13l23 21.5q64 56 137 56q18 0 36 -2.5t46 -14t48.5 -30.5t35.5 -57.5
t15 -90.5v-234q0 -33 10 -48t44 -16q27 0 27 -14q0 -15 -31 -15q-15 0 -46 2t-46 2q-16 0 -46.5 -2t-45.5 -2q-31 0 -31 15q0 14 27 14q34 1 44 16t10 48v220q0 158 -132 158q-50 0 -100 -33.5t-50 -84.5v-260q0 -23 4 -36.5t14.5 -19t15 -6.5t20.5 -2l15 -1q12 0 12 -13
q0 -15 -31 -15q-15 0 -46 2t-46 2t-46 -2t-46 -2q-31 0 -31 15q0 13 12 13l15 1q32 2 41 13q13 14 13 51z" />
    <glyph glyph-name="o" unicode="o" horiz-adv-x="634" 
d="M317 -21q-68 0 -123.5 25.5t-89 66t-51.5 87t-18 92.5t18 93t51.5 87.5t89 66t123.5 25.5t123.5 -25.5t89 -66t51.5 -87.5t18 -93t-18 -92.5t-51.5 -87t-89 -66t-123.5 -25.5zM315 9q83 0 139 63.5t56 178.5q0 62 -20 115t-65.5 89.5t-109.5 36.5q-91 0 -141 -71
t-50 -170q0 -97 50 -169.5t141 -72.5z" />
    <glyph glyph-name="p" unicode="p" horiz-adv-x="649" 
d="M96 -155v567q0 32 -6.5 43t-20.5 11h-17q-21 0 -21 11q0 12 19 16q54 13 86 29q33 17 36 17q4 0 6 -2t2.5 -6t0.5 -8t-0.5 -11.5t-0.5 -12.5v-50q0 -9 7 -9q4 0 8 3t16 14t27 22q56 43 128 43q111 0 179.5 -71t68.5 -182q0 -130 -79 -210t-204 -80q-68 0 -133 27
q-8 5 -13 3t-5 -17v-147q0 -17 3 -28t17.5 -22t42.5 -13q4 0 10.5 -0.5t10.5 -1t8.5 -1.5t6.5 -3.5t2 -7.5q0 -17 -32 -17q-17 0 -51 2t-51 2t-50 -2t-50 -2q-32 0 -32 17q0 13 26 13q25 0 38.5 12.5t15 23t1.5 28.5zM180 356v-209q0 -19 1 -32t9 -35t22.5 -35.5t44.5 -24.5
t72 -11q84 0 140 64t56 172t-57.5 167.5t-135.5 59.5q-56 0 -104 -30.5t-48 -85.5z" />
    <glyph glyph-name="q" unicode="q" horiz-adv-x="624" 
d="M533 399v-555q0 -33 10 -48t44 -16q27 0 27 -14q0 -15 -31 -15q-17 0 -51 2t-51 2t-51 -2t-51 -2q-31 0 -31 15q0 14 27 14q46 1 60 16t14 48v169q0 17 -2 20q-5 7 -16 0q-6 -3 -28.5 -15t-27.5 -14.5t-21.5 -9.5t-24.5 -9t-21.5 -4t-27.5 -2q-105 0 -175 71t-70 188
q0 127 82.5 205.5t203.5 78.5q64 0 157 -35q11 -4 16 1q1 1 29 36q9 12 18.5 11t9.5 -14q0 -1 -9 -33t-9 -89zM449 125v263q0 14 -2.5 25.5t-12 32.5t-36.5 33.5t-69 12.5q-79 0 -142 -66.5t-63 -175.5q0 -103 58 -165t143 -62q35 0 61 9.5t37.5 21.5t18 29.5t7 24.5t0.5 17
z" />
    <glyph glyph-name="r" unicode="r" horiz-adv-x="407" 
d="M113 93v274q0 36 -11.5 45t-37.5 9h-11q-13 0 -13 10q0 8 13 14l21 9.5t18.5 9.5l15 9t13.5 9.5l11 8.5t10 8.5t8 7.5l7.5 7.5l6.5 6.5q7 7 14 7q5 0 8 -2t3.5 -6.5t0.5 -9t-0.5 -12.5t-0.5 -13v-59q0 -11 1 -11q8 0 10 3q28 36 42.5 52t39.5 30.5t52 14.5q33 0 50.5 -19
t17.5 -44q0 -19 -14 -32t-34 -13t-39 21q-20 23 -36 23q-26 0 -54 -39t-28 -99v-220q0 -11 1.5 -19.5t5.5 -14.5t6.5 -11t10.5 -8t10.5 -5t12.5 -3t12 -1.5t14 -0.5l11 -1l15 -1q12 0 12 -13q0 -15 -31 -15q-19 0 -58 2.5t-59 2.5q-16 0 -48.5 -2.5t-48.5 -2.5q-31 0 -31 15
q0 14 27 14q34 1 44 16t10 48z" />
    <glyph glyph-name="s" unicode="s" horiz-adv-x="424" 
d="M366 484v-54q0 -41 -15 -41q-3 0 -6.5 2.5t-6 7t-4.5 8.5t-4 10t-3 8q-6 14 -10 21t-16.5 21.5t-32 22t-46.5 7.5q-51 0 -75.5 -27.5t-24.5 -60.5q0 -59 90 -90l47 -17q30 -11 48 -20t41 -26.5t34.5 -44.5t11.5 -63q0 -71 -58.5 -120t-147.5 -49q-51 0 -105 18t-53 45
l1 71q0 48 17 48q5 0 9 -3.5t6 -10t3.5 -12t2.5 -14t2 -12.5q10 -49 36.5 -77t84.5 -28q51 0 90 28.5t39 77.5q0 76 -91 108q-5 2 -31 10.5t-35.5 13l-31.5 14.5t-32.5 19.5t-23.5 23.5t-18.5 32t-5.5 39q0 64 48 108t139 44q54 0 111 -19q16 -5 16 -19z" />
    <glyph glyph-name="t" unicode="t" horiz-adv-x="377" 
d="M194 595v-77q0 -17 18 -17h109h5.5t4 -1t3.5 -3.5t1 -6.5l-1 -17q-1 -8 -3 -10t-10 -2h-109q-18 0 -18 -19v-294q0 -26 1.5 -42t6.5 -37.5t17.5 -32t33.5 -10.5q32 0 71 31q7 6 12.5 6.5t8 -2.5t2.5 -7q0 -11 -29 -37q-44 -38 -99 -38q-109 0 -109 129v344q0 16 -10 16
h-36q-14 0 -14 11q0 10 22 21q57 31 82 77l5.5 11t5.5 10t5 7t6 5.5t7 1.5q11 0 11 -17z" />
    <glyph glyph-name="u" unicode="u" horiz-adv-x="611" 
d="M522 439v-333q0 -13 0.5 -17.5t2.5 -14t9 -13t18 -3.5h28q14 0 14 -11q0 -5 -2 -8t-4 -4t-8.5 -2.5t-8.5 -2.5q-39 -11 -72 -29q-10 -5 -19.5 -11.5t-15 -9t-9.5 -2.5q-12 0 -11 23l2 37q2 8 1.5 17t-7.5 9q-9 0 -22 -12q-55 -45 -85 -58q-35 -15 -75 -15q-48 0 -83.5 18
t-53 47t-25 57.5t-6.5 56.5l6 250q0 21 -3.5 34t-12 19t-16.5 8t-22 3l-15 1q-12 0 -12 13q0 15 31 15q10 0 30.5 -1t30.5 -1q9 0 26.5 1t27.5 1q15 0 17.5 -6t1.5 -39v-17l-6 -265q-3 -141 129 -141q135 0 135 127v248q0 23 -4 36.5t-14.5 19t-15 6.5t-20.5 2l-15 1
q-12 0 -12 13q0 15 31 15q10 0 30.5 -1t30.5 -1q9 0 26.5 1t27.5 1q15 0 17 -5t2 -32v-25z" />
    <glyph glyph-name="v" unicode="v" horiz-adv-x="544" 
d="M173 411l106 -275q11 -27 14 -27t16 27l73 161q56 124 56 139q0 6 -1.5 11t-5 8.5t-6.5 6t-9 4.5t-9.5 3t-11.5 1.5t-10.5 1t-11 0.5h-9.5q-20 2 -20 14q0 15 31 15q15 0 46 -2t46 -2q11 0 33 2t33 2q31 0 31 -15q0 -13 -12 -13l-15 -1q-12 -1 -23.5 -7.5t-19 -14
t-17 -23t-13.5 -24l-13 -28.5t-12 -26l-149 -322q-4 -8 -10 -26q-2 -8 -4 -12q-5 -10 -13 -10q-9 0 -14 10q-2 4 -5 14.5t-9 25.5l-149 366q-16 39 -27.5 55.5t-18.5 19t-23 2.5q-27 0 -27 14q0 15 31 15q15 0 46 -2t46 -2q17 0 50.5 2t50.5 2q31 0 31 -15q0 -5 -1.5 -7.5
t-5.5 -4t-7.5 -2t-11 -1t-11.5 -0.5q-28 -2 -36.5 -18.5t1.5 -41.5z" />
    <glyph glyph-name="w" unicode="w" horiz-adv-x="860" 
d="M477 417l128 -287l3 -6q2 -6 4 -8.5t6 -2.5q3 0 10 17l76 180q48 114 48 126q0 13 -6 20.5t-21.5 10.5t-20.5 3.5t-24 1.5q-20 2 -20 14q0 15 31 15q15 0 46 -2t46 -2q11 0 33 2t33 2q31 0 31 -15q0 -4 -1.5 -7t-5 -4t-5.5 -1.5t-8 -1t-7 -0.5q-10 -1 -19.5 -6t-17 -10.5
t-15.5 -16.5l-13 -18t-12.5 -22t-10 -21.5t-10 -23.5t-8.5 -20l-142 -330q-1 -2 -2.5 -6t-2.5 -7t-3 -6t-4 -4.5t-5 -1.5q-8 0 -18 25l-136 301l-141 -303q-1 -2 -3.5 -9.5t-5 -10.5t-7.5 -3q-3 0 -5.5 2.5t-4 5.5t-3 8t-2.5 7l-168 379q-29 65 -40 78t-37 13q-27 0 -27 14
q0 15 33 15q34 0 97.5 -2t84.5 -2q67 -1 135 0q21 0 87 2t102 2q33 0 33 -15q0 -5 -2.5 -8t-7.5 -4t-9 -1.5t-12 -0.5h-12q-33 -1 -43 -19t1 -36zM410 358l-35 78q-2 5 -5 9.5l-5.5 8t-6 6t-5.5 4.5t-6.5 3t-6 1.5t-6 1t-5.5 0.5h-6h-5h-122q-12 0 -18 -0.5t-12 -4.5t-6 -12
q0 -17 14 -49l122 -274q8 -19 10 -19q4 0 13 19l92 202q3 6 3.5 10t0.5 5t-2 5z" />
    <glyph glyph-name="x" unicode="x" horiz-adv-x="613" 
d="M351 277l152 -198q25 -32 40 -40.5t38 -9.5q27 0 27 -14q0 -15 -31 -15q-15 0 -45.5 2t-46.5 2q-22 0 -66 -2t-66 -2q-31 0 -31 15q0 14 25 14h10.5t10.5 0.5t9.5 1t9.5 1t8 2t7.5 3t5 4t3.5 6.5t1 8q0 14 -17 36l-91 122q-12 12 -16.5 11t-14.5 -14l-45 -56
q-2 -3 -12.5 -15.5t-16.5 -21l-14.5 -20.5t-12.5 -21.5t-4 -16.5q0 -5 1.5 -9t4 -7t5.5 -5t8 -3.5t8 -2.5t9 -1.5t8.5 -0.5t8 -0.5t6.5 -0.5q19 -2 19 -14q0 -15 -31 -15q-15 0 -46 2t-46 2q-16 0 -46.5 -2t-45.5 -2q-26 0 -26 15q0 14 25 14q57 2 139 100l89 106
q4 5 6.5 8.5l4 5.5t0.5 5t-1.5 4t-4 5t-5.5 6l-137 169q-9 11 -16.5 18t-16 10t-12 4t-16 1.5t-16.5 0.5l-15 1q-12 0 -12 13q0 15 31 15q16 0 46.5 -2t45.5 -2q20 0 62 2t62 2q31 0 31 -15q0 -14 -27 -14q-28 -1 -38 -11t4 -30l80 -107q10 -13 20 0l55 69q34 44 34 54
q0 11 -7 16.5t-13 6.5t-25 2l-15 1q-12 0 -12 13q0 15 31 15q15 0 45 -2t45 -2t46.5 2t47.5 2q31 0 31 -15q0 -5 -1.5 -7.5t-6 -4t-7.5 -2t-10 -1t-11 -0.5q-14 -1 -27 -4.5t-22 -6.5t-20 -10.5t-16.5 -10.5t-16 -14t-13.5 -13.5t-15 -16.5t-14 -16l-66 -74q-9 -13 -9 -15
t9 -13z" />
    <glyph glyph-name="y" unicode="y" horiz-adv-x="511" 
d="M159 408l123 -291l10 -21l10 21l98 231q24 55 24 79q0 44 -56 45q-27 0 -27 14q0 15 31 15q16 0 46 -2t46 -2q8 0 25 2t26 2q26 0 26 -14q0 -13 -12 -14l-12 -1q-10 -1 -17.5 -4.5t-12.5 -7.5t-11 -14.5t-9.5 -18t-11 -25.5l-12.5 -30l-159 -361q-56 -132 -76 -209
q-1 -3 -3 -11l-2.5 -10t-2.5 -8.5t-3 -7.5t-4 -5.5t-5.5 -5.5t-7 -3.5t-9.5 -3t-12 -1t-15 -0.5q-35 0 -48.5 9.5t-13.5 32.5q0 26 12.5 36t37.5 10q4 0 12 -0.5t13 -0.5q18 0 27.5 11.5t25.5 52.5l23 58q11 29 11 33q0 11 -14 43l-169 392q-2 4 -4.5 10.5l-3.5 9t-3.5 7.5
t-4 6.5t-4 5t-4.5 4t-5.5 2.5t-7 2.5t-8 1t-10.5 0.5q-26 0 -26 14q0 15 27 15q15 0 45.5 -2t46.5 -2t48 2t48 2q31 0 31 -15q0 -5 -1.5 -7.5t-5.5 -4t-7.5 -2t-11 -1t-11.5 -0.5q-35 -3 -39.5 -21t9.5 -42z" />
    <glyph glyph-name="z" unicode="z" horiz-adv-x="514" 
d="M471 470l-320 -425q-4 -5 -4 -10t14 -5h106q58 0 86 4t52 24t36 62q6 21 13 23q3 1 6 1q12 0 12 -35l-1 -96q0 -8 -3.5 -10.5t-15.5 -2.5q-19 0 -91 2t-117 2q-66 0 -178 -4h-24q-12 0 -12 8q0 3 12 20l323 432q3 4 3 10q0 1 -8 1h-76q-100 0 -134.5 -9t-61.5 -43
l-8.5 -11l-7.5 -9.5t-6 -4.5t-8 -2q-11 0 -11 14q0 4 15 48l15 44q1 4 3.5 12l4 13t4.5 10.5t7 8t9 2.5q10 0 14 -24l2 -10q3 -13 31 -13h52q128 0 224 3l28 1q23 0 23 -12q0 -6 -8 -19z" />
    <glyph glyph-name="braceleft" unicode="{" horiz-adv-x="384" 
d="M70 214v40q95 5 95 146q0 23 -1.5 59.5t-1.5 73.5q0 174 152 191v-28q-75 -12 -75 -121q0 -55 1 -82q2 -62 2 -94q0 -147 -133 -162v-6q133 -15 133 -162q0 -63 -1.5 -93t-1.5 -85q0 -112 75 -119v-28q-24 1 -46 8t-48 25.5t-42 59t-16 98.5q0 37 1.5 73.5t1.5 59.5
q0 140 -95 146z" />
    <glyph glyph-name="bar" unicode="|" horiz-adv-x="125" 
d="M30 773h65v-1053h-65v1053z" />
    <glyph glyph-name="braceright" unicode="}" horiz-adv-x="384" 
d="M314 254v-40q-95 -6 -95 -146q0 -23 1.5 -59.5t1.5 -73.5q0 -58 -16 -98.5t-42 -59t-48 -25.5t-46 -8v28q75 7 75 119q0 55 -1.5 85t-1.5 93q0 147 133 162v6q-133 15 -133 162q0 32 2 94q1 27 1 82q0 109 -75 121v28q152 -17 152 -191q0 -37 -1.5 -73.5t-1.5 -59.5
q0 -141 95 -146z" />
    <glyph glyph-name="asciitilde" unicode="~" 
d="M96 566l-34 17q32 57 68 84t86 27q13 0 25.5 -1.5t24.5 -5l20.5 -6t20 -8.5t16.5 -9l16.5 -9.5t14.5 -8.5q41 -24 76 -24q49 0 85 78l34 -16q-37 -69 -69.5 -92t-70.5 -23q-25 0 -48 6.5t-36 13t-47 25.5q-55 29 -85 29q-53 0 -97 -77z" />
    <glyph glyph-name="currency" unicode="&#xa4;" horiz-adv-x="680" 
d="M595 640l40 -39l-94 -92q58 -72 58 -163t-58 -163l94 -92l-40 -39l-93 93q-69 -59 -163 -59q-91 0 -161 59l-93 -93l-40 39l93 92q-59 78 -59 163q0 90 59 163l-93 92l40 39l93 -93q65 59 161 59q94 0 163 -59zM131 346q0 -88 62 -151t146 -63q86 0 147 63t61 151
t-61 151t-147 63q-84 0 -146 -63t-62 -151z" />
    <glyph glyph-name="brokenbar" unicode="&#xa6;" horiz-adv-x="125" 
d="M30 773h65v-319h-65v319zM30 39h65v-319h-65v319z" />
    <glyph glyph-name="section" unicode="&#xa7;" horiz-adv-x="504" 
d="M425 48q0 -129 -57.5 -209t-153.5 -80q-61 0 -95.5 24t-34.5 58q0 23 17 37t36 14q25 0 63 -44q32 -45 66 -45q37 0 37 46q0 21 -4 40.5t-18 49.5l-20.5 43.5t-32 58.5l-32.5 58q-39 71 -60 114t-41 110.5t-20 127.5q0 127 60.5 198.5t163.5 71.5q61 0 95.5 -24.5
t34.5 -57.5q0 -21 -14.5 -35.5t-35.5 -14.5q-34 0 -72 46q-38 45 -61 45q-14 0 -27 -12.5t-13 -42.5q0 -45 19 -89t77 -142q30 -52 43 -76.5t36.5 -75t33.5 -97.5t10 -97zM345 -107q30 57 30 143q0 55 -15.5 111.5t-32 90.5t-43.5 83l-36.5 64t-34.5 61t-22.5 48t-20.5 62
t-10 65q-34 -62 -34 -157q0 -49 13.5 -100.5t28 -84t41.5 -85.5l51.5 -97t41 -77t23 -54.5t20.5 -72.5z" />
    <glyph glyph-name="copyright" unicode="&#xa9;" horiz-adv-x="828" 
d="M50 350q0 150 107 257t257 107t257 -107t107 -257t-107 -257t-257 -107t-257 107t-107 257zM100 350q0 -134 92 -229t222 -95t222 95t92 229t-92 229t-222 95t-222 -95t-92 -229zM577 518l2 -25q3 -30 -11 -30q-10 0 -15 13q-30 75 -118 75q-74 0 -120 -55t-46 -141
q0 -89 46 -147.5t117 -58.5q56 0 88 38q10 12 16.5 21.5t12.5 21l8 15.5q5 9 15 9q9 0 9.5 -16t-1.5 -30l-1 -21q-2 -20 -14 -29q-5 -4 -14 -8q-61 -27 -123 -27q-97 0 -163.5 62.5t-66.5 160.5q0 97 67 164t172 67q76 0 124 -22q9 -4 12 -10t4 -27z" />
    <glyph glyph-name="guillemotleft" unicode="&#xab;" horiz-adv-x="436" 
d="M143 267l150 -187q5 -5 3 -11t-9 -6q-3 0 -8 3l-227 191q-7 7 -7 10t7 10l227 191q5 3 8 3q7 0 9 -6t-3 -11zM309 267l80 -110q5 -7 0.5 -11t-10.5 1l-143 110q-13 10 0 20l143 110q4 3 8 2t4 -6q0 -2 -2 -6z" />
    <glyph glyph-name="logicalnot" unicode="&#xac;" 
d="M23 396v55h564v-265h-58v210h-506z" />
    <glyph glyph-name="registered" unicode="&#xae;" horiz-adv-x="828" 
d="M50 350q0 150 107 257t257 107t257 -107t107 -257t-107 -257t-257 -107t-257 107t-107 257zM100 350q0 -134 92 -229t222 -95t222 95t92 229t-92 229t-222 95t-222 -95t-92 -229zM299 207v287q0 21 -2.5 33t-11 17t-13.5 5.5t-21 1.5q-14 0 -14 10q0 8 7 9h6q26 -3 77 -3
q34 0 66 1.5t46 1.5q75 0 106.5 -31.5t31.5 -76.5q0 -86 -114 -103v-3q17 0 34 -29l79 -141q1 -1 3.5 -6t3.5 -6.5t4 -5.5t4.5 -5.5t5 -4.5t6.5 -4l7.5 -2.5t9.5 -1.5q18 -2 20 -5q1 -2 1 -5q0 -8 -13 -10h-20h-23q-5 0 -14 -0.5t-13 -0.5q-13 0 -18 3.5t-14 19.5l-81 155
q-21 40 -45 40h-36q-9 0 -9 -17v-123q0 -16 2 -27t4.5 -16.5t9 -8.5t9.5 -3.5t12.5 -1t12.5 -0.5q12 -1 12 -10q0 -10 -13 -10q-12 0 -38 1.5t-39 1.5t-38.5 -1.5t-38.5 -1.5t-13 10q0 9 12 10q3 0 12.5 0.5t12.5 1t9.5 3.5t9 8.5t4.5 16.5t2 27zM355 508v-126
q0 -10 3.5 -13.5t14.5 -3.5h34q63 0 87 28t24 65t-23 64.5t-79 29.5h-22q-23 -1 -31 -8.5t-8 -35.5z" />
    <glyph glyph-name="degree" unicode="&#xb0;" horiz-adv-x="309" 
d="M45 590q0 51 34.5 80.5t74.5 29.5q41 0 75.5 -29.5t34.5 -80.5t-34.5 -80.5t-75.5 -29.5q-40 0 -74.5 29.5t-34.5 80.5zM86 590q0 -29 20 -49t48 -20q33 0 51 22.5t18 46.5t-18.5 46.5t-50.5 22.5q-28 0 -48 -20t-20 -49z" />
    <glyph glyph-name="plusminus" unicode="&#xb1;" 
d="M23 51v55h564v-55h-564zM332 161h-55v206h-254v55h254v233h55v-233h255v-55h-255v-206z" />
    <glyph glyph-name="mu" unicode="&#xb5;" horiz-adv-x="638" 
d="M183 501v-297v-29t2 -30.5t6 -34t12 -28.5t20 -27t31 -16t44 -7q67 0 106 42t39 106v321h84v-379q0 -24 0.5 -32t3 -26t10 -25t19.5 -7q7 0 14 3t11 5.5t10.5 8t7.5 6.5q10 6 15 3t5 -9q0 -9 -19 -26q-47 -44 -86 -44q-27 0 -46 21.5t-20 56.5q0 15 -3 16q-2 1 -4 1
q-9 0 -22 -13q-26 -25 -45 -40t-50.5 -28.5t-64.5 -13.5q-98 0 -127 98h-5q6 -82 12.5 -145t10 -89.5t3.5 -40.5q0 -27 -12 -41.5t-28 -14.5q-37 0 -37 59q0 18 10 150q9 124 9 253v293h84z" />
    <glyph glyph-name="mu" unicode="&#x3bc;" horiz-adv-x="638" 
d="M183 501v-297v-29t2 -30.5t6 -34t12 -28.5t20 -27t31 -16t44 -7q67 0 106 42t39 106v321h84v-379q0 -24 0.5 -32t3 -26t10 -25t19.5 -7q7 0 14 3t11 5.5t10.5 8t7.5 6.5q10 6 15 3t5 -9q0 -9 -19 -26q-47 -44 -86 -44q-27 0 -46 21.5t-20 56.5q0 15 -3 16q-2 1 -4 1
q-9 0 -22 -13q-26 -25 -45 -40t-50.5 -28.5t-64.5 -13.5q-98 0 -127 98h-5q6 -82 12.5 -145t10 -89.5t3.5 -40.5q0 -27 -12 -41.5t-28 -14.5q-37 0 -37 59q0 18 10 150q9 124 9 253v293h84z" />
    <glyph glyph-name="paragraph" unicode="&#xb6;" horiz-adv-x="576" 
d="M363 700h157q21 0 21 -15q0 -13 -20 -16q-7 0 -20.5 -0.5t-18.5 -1t-15 -3t-13.5 -8.5t-8.5 -15.5t-6.5 -25t-1.5 -37.5v-518q0 -76 -23.5 -138t-60 -99t-77.5 -57t-80 -20q-34 0 -56 15.5t-22 42.5q0 22 13.5 36.5t36.5 14.5q28 0 47 -28q1 -1 5 -7t5 -8t5 -6t7 -5.5
t7.5 -3t10.5 -1.5q19 0 34.5 6.5t26.5 21t18.5 28.5t12.5 39.5t7.5 42.5t4 48t1.5 47v47v13v143q-151 -6 -228 63t-77 177q0 45 15.5 83.5t49 72t95.5 53t148 19.5z" />
    <glyph glyph-name="periodcentered" unicode="&#xb7;" horiz-adv-x="300" 
d="M66 357q0 35 24.5 59.5t59.5 24.5q37 0 60.5 -24t23.5 -60t-23.5 -60t-60.5 -24q-35 0 -59.5 24.5t-24.5 59.5z" />
    <glyph glyph-name="periodcentered" unicode="&#x2219;" horiz-adv-x="300" 
d="M66 357q0 35 24.5 59.5t59.5 24.5q37 0 60.5 -24t23.5 -60t-23.5 -60t-60.5 -24q-35 0 -59.5 24.5t-24.5 59.5z" />
    <glyph glyph-name="guillemotright" unicode="&#xbb;" horiz-adv-x="436" 
d="M293 267l-150 187q-5 5 -3 11t9 6q3 0 8 -3l227 -191q7 -7 7 -10t-7 -10l-227 -191q-5 -3 -8 -3q-7 0 -9 6t3 11zM127 267l-80 110q-2 4 -2 6q0 5 3.5 6.5t8.5 -2.5l143 -110q13 -10 0 -20l-143 -110q-7 -5 -10.5 -0.5t0.5 10.5z" />
    <glyph glyph-name="circumflex" unicode="&#x2c6;" horiz-adv-x="364" 
d="M177 658l-138 -66q-26 -12 -29 -12q-10 0 -10 9q0 3 1.5 5.5t4.5 5l5.5 4.5l7.5 6t8 6l129 101q14 11 26 11t26 -11l129 -101q3 -2 8 -6l7.5 -6l5.5 -4.5t4.5 -5t1.5 -5.5q0 -9 -10 -9q-3 0 -29 12l-138 66q-5 2 -10 0z" />
    <glyph glyph-name="tilde" unicode="&#x2dc;" horiz-adv-x="420" 
d="M108 710q40 0 106 -37q64 -36 101 -36q44 0 73 41q1 2 6 9.5t8.5 10.5t7.5 3q10 0 10 -10q0 -13 -13 -31q-16 -26 -45 -46t-65 -20q-49 0 -130 44q-54 30 -80 30q-34 0 -57 -32q-2 -2 -4.5 -6.5l-4 -7t-4.5 -4.5t-6 -2q-11 0 -11 11q0 7 11 24q44 59 97 59z" />
    <glyph glyph-name="afii10023" unicode="&#x401;" horiz-adv-x="614" 
d="M133 122v456q0 25 -3.5 42t-6.5 26.5t-13.5 14.5t-14.5 6t-20 1.5t-21 0.5q-19 1 -19 16t21 15q18 0 52 -1.5t52 -1.5h213q81 0 133 2q45 3 48 -2q1 -2 1 -6q0 -3 -0.5 -13t-0.5 -18l-1 -47v-34.5v-16v-8.5q0 -15 -11 -15q-12 0 -21 23q-23 53 -35 66q-32 34 -137 37
q-16 1 -34 1q-64 0 -78 -6.5t-14 -33.5v-193q0 -11 1 -16t8.5 -10t23.5 -5h98q26 0 44.5 6.5t27.5 18t13 20t7 20.5q6 24 19 24q14 0 14 -19q0 -18 -4 -37.5t-5 -44t6 -115.5q4 -35 -12 -35q-4 0 -6.5 1t-4.5 3.5l-3.5 4.5t-3 7l-2.5 8.5t-2.5 10l-2.5 10.5q-11 46 -34 64.5
t-90 18.5h-70q-11 0 -16 -5.5t-5.5 -9t-0.5 -13.5v-199q0 -24 2 -38t10.5 -32.5t29 -27t53.5 -8.5h72q40 0 68 8.5t46 26.5t27.5 35.5t20.5 45.5q10 24 20 24q12 0 12 -15q0 -13 -7.5 -45.5t-11.5 -84.5q-1 -9 -2.5 -15.5t-2.5 -9.5t-4 -4.5t-4.5 -2t-6.5 0t-7 0.5l-124 1
q-60 1 -132 3.5t-92 2.5q-22 0 -65.5 -3t-65.5 -3q-24 0 -24 15q0 16 20 16q5 0 17.5 0.5t17.5 1t14 3.5t12.5 8.5t8.5 15t6.5 25.5t1.5 37zM217 853q23 0 38.5 -17t15.5 -44q0 -26 -15 -42.5t-38 -16.5q-21 0 -37 17t-16 46q0 26 16 41.5t36 15.5zM417 853q23 0 38.5 -17
t15.5 -44q0 -26 -15 -42.5t-38 -16.5q-21 0 -37 17t-16 46q0 26 16 41.5t36 15.5z" />
    <glyph glyph-name="afii10051" unicode="&#x402;" horiz-adv-x="842" 
d="M119 700h466q16 0 25 27q6 17 18 17q15 0 15 -19q0 -29 -3 -76l-5 -85q0 -19 -14 -19q-11 0 -16 16q-7 26 -12.5 40t-16 31.5t-26.5 25.5t-38 8h-122q-23 0 -23 -20v-272q0 -4 6 -4q3 0 7 2.5l14.5 9t24.5 13.5q74 36 145 36q23 0 44.5 -2t60.5 -14t67 -33t49.5 -64.5
t21.5 -102.5q0 -96 -47.5 -166t-144.5 -70q-27 0 -59 8.5t-57.5 26.5t-26.5 39q-1 0 0 18v18q2 47 5.5 61t16.5 14q6 0 9 -1t4.5 -5t2 -7t1 -11t0.5 -13q5 -66 35.5 -92t66.5 -26q35 0 57 30t29.5 69.5t7.5 89.5q0 49 -15 85t-35 54t-49 28.5t-47.5 12.5t-39.5 2
q-62 0 -108 -22.5t-46 -68.5v-278q0 -10 -10 -11h-10q-5 0 -20 2t-24 2q-19 0 -55 -2t-55 -2q-21 0 -21 15q0 5 1.5 8t3.5 4.5t6.5 2.5t7 1.5t9 0.5h9.5q40 1 54 17t14 73v523q0 15 -9 18t-45 3q-73 0 -107.5 -15t-71.5 -73l-7.5 -13t-6.5 -12t-6.5 -7t-9.5 -3t-9.5 4
t-4.5 10q0 5 16 62l31 105q6 21 21 21q14 0 16 -13v-12q2 -20 35 -20z" />
    <glyph glyph-name="afii10052" unicode="&#x403;" horiz-adv-x="541" 
d="M133 122v486q0 16 -4.5 27.5t-9 17.5t-15.5 9.5t-16 4.5t-18.5 1.5t-15.5 0.5q-19 1 -19 16t21 15q20 0 60 -2q25 -1 74 -1h173q82 0 101.5 1.5t67.5 1.5q13 0 14 -9v-9q-2 -42 -2 -74v-52v-12q0 -15 -14 -15q-8 0 -13 4.5t-11 22.5q-25 71 -66 90t-127 19q-67 0 -78 -7
q-12 -8 -12 -32v-504q0 -21 2 -36t7.5 -24.5t10 -15t16 -8.5t17.5 -4t22 -1.5t24 -1.5q16 -2 18 -10q1 -3 1 -6q0 -15 -21 -15q-22 0 -66 3t-66 3t-66 -3t-66 -3q-21 0 -21 15q0 16 20 16q5 0 17.5 0.5t17.5 1t14 3.5t12.5 8.5t8.5 15t6.5 25.5t1.5 37zM436 795l-187 -66
q-36 -12 -40 -12q-12 0 -12 9q0 3 2 6.5t7 7t9 5.5t11 6t10 6l170 101q18 10 34 10q14 0 23.5 -8.5t9.5 -23.5q0 -28 -37 -41z" />
    <glyph glyph-name="afii10053" unicode="&#x404;" horiz-adv-x="705" 
d="M340 366h-164q-9 0 -13.5 -2t-7.5 -11.5t-3 -29.5q1 -129 80 -221.5t205 -92.5q128 0 193 140q1 3 3 7l3 6t2.5 5.5t2.5 5t2.5 4t3 3.5l3 2t3.5 1.5t4 0.5q7 0 10.5 -4t4 -12.5t0 -15.5t-2 -19.5t-1.5 -18.5l-2 -36q-2 -27 -17 -39q-29 -24 -95.5 -42t-128.5 -18
q-168 0 -274 102t-106 263q0 168 114 272.5t281 104.5q103 0 200 -37q12 -5 16 -13t7 -41l4 -45q2 -23 -0.5 -31.5t-12.5 -8.5q-4 0 -6.5 1t-5 4.5t-4.5 7t-6.5 12t-9.5 15.5q-31 52 -72.5 79t-112.5 27q-67 0 -120.5 -25t-82.5 -59.5t-48 -75.5t-25 -68.5t-6 -42.5
q0 -20 32 -20h192q19 0 34 4t23.5 8.5t15.5 14t9.5 15t6.5 18.5t6 17q5 14 16 14q14 0 14 -16q0 -27 -4.5 -45t-4.5 -59q0 -23 3.5 -54.5t3.5 -55.5q0 -21 -13 -21q-4 0 -6.5 1t-5 3.5t-3.5 5l-3 7.5t-2.5 8t-2 10t-2.5 10q-11 48 -33.5 64.5t-90.5 16.5z" />
    <glyph glyph-name="afii10054" unicode="&#x405;" horiz-adv-x="525" 
d="M445 666l3 -91q0 -27 -13 -27t-18 18q-8 26 -15 42t-23.5 38.5t-44.5 33.5t-68 11q-55 0 -97 -27.5t-42 -81.5q0 -30 12 -53.5t37.5 -42.5t47.5 -30.5t61 -28.5q87 -38 121 -65q79 -62 79 -161q0 -90 -66 -156t-192 -66q-71 0 -135 27q-34 14 -43 25.5t-9 27.5l1 51
q1 73 8 84q4 6 12 6q4 0 6.5 -1t4 -3l3 -4t2 -6.5t1 -6.5t1 -8t0.5 -8q18 -154 158 -154q67 0 118.5 38.5t51.5 113.5q0 62 -42.5 101t-134.5 80q-38 17 -61.5 30t-53.5 37t-45.5 56.5t-15.5 72.5q0 75 59.5 129t168.5 54q86 0 148 -30q14 -7 15 -25z" />
    <glyph glyph-name="afii10055" unicode="&#x406;" horiz-adv-x="356" 
d="M223 608v-516q0 -16 4.5 -27.5t9 -17.5t15.5 -9.5t16 -4.5t18.5 -1.5t15.5 -0.5q19 -1 19 -16t-21 -15q-20 0 -61 3t-61 3t-61 -3t-61 -3q-21 0 -21 15q0 16 20 16q2 0 15.5 0.5t18.5 1.5t15.5 4.5t15 9.5t9 17.5t4.5 27.5v516q0 16 -4.5 27.5t-9 17.5t-15.5 9.5t-16 4.5
t-18.5 1.5t-15.5 0.5q-19 1 -19 16t21 15q20 0 61 -3t61 -3t61 3t61 3q21 0 21 -15q0 -16 -20 -16q-2 0 -15.5 -0.5t-18.5 -1.5t-15.5 -4.5t-15 -9.5t-9 -17.5t-4.5 -27.5z" />
    <glyph glyph-name="afii10056" unicode="&#x407;" horiz-adv-x="356" 
d="M223 608v-516q0 -16 4.5 -27.5t9 -17.5t15.5 -9.5t16 -4.5t18.5 -1.5t15.5 -0.5q19 -1 19 -16t-21 -15q-20 0 -61 3t-61 3t-61 -3t-61 -3q-21 0 -21 15q0 16 20 16q2 0 15.5 0.5t18.5 1.5t15.5 4.5t15 9.5t9 17.5t4.5 27.5v516q0 16 -4.5 27.5t-9 17.5t-15.5 9.5t-16 4.5
t-18.5 1.5t-15.5 0.5q-19 1 -19 16t21 15q20 0 61 -3t61 -3t61 3t61 3q21 0 21 -15q0 -16 -20 -16q-2 0 -15.5 -0.5t-18.5 -1.5t-15.5 -4.5t-15 -9.5t-9 -17.5t-4.5 -27.5zM67 853q23 0 38.5 -17t15.5 -44q0 -26 -15 -42.5t-38 -16.5q-21 0 -37 17t-16 46q0 26 16 41.5
t36 15.5zM287 853q23 0 38.5 -17t15.5 -44q0 -26 -15 -42.5t-38 -16.5q-21 0 -37 17t-16 46q0 26 16 41.5t36 15.5z" />
    <glyph glyph-name="afii10057" unicode="&#x408;" horiz-adv-x="395" 
d="M262 578v-469q0 -72 -28 -139q-29 -63 -95 -119t-131 -56q-34 0 -56 15.5t-22 42.5q0 22 13.5 36.5t36.5 14.5q14 0 25 -6.5t15 -12t12 -17.5q14 -23 35 -23q26 0 53 27q15 15 26 36.5t16 39t8 47.5t3 45t-0.5 51t-0.5 47v440q0 25 -4 41.5t-8 25.5t-16.5 14.5t-18.5 6.5
t-25 1.5t-27 1.5q-16 2 -18 10q-1 3 -1 6q0 15 21 15q22 0 66 -3t66 -3t66 3t66 3q21 0 21 -15q0 -16 -20 -16q-5 0 -17.5 -0.5t-17.5 -1t-14 -3.5t-12.5 -8.5t-8.5 -15t-6.5 -25.5t-1.5 -37z" />
    <glyph glyph-name="afii10058" unicode="&#x409;" horiz-adv-x="997" 
d="M476 122v486q0 21 -5 33.5t-18.5 17.5t-23.5 6t-32 1h-74q-15 0 -25.5 -2t-18.5 -5t-13 -11.5t-8 -14.5t-4.5 -21.5l-2.5 -26t-2 -35t-2 -40.5q-11 -151 -31 -254q-54 -277 -173 -277q-23 0 -40.5 13.5t-17.5 38.5q0 29 17 43t39 14q18 0 36 -11q14 -8 22 -8
q35 0 61.5 110t37 220.5t10.5 175.5q0 16 -1 29t-4 22t-4.5 16t-8.5 11.5t-8.5 7t-12 4.5t-12 2.5t-14.5 1t-15 0.5q-20 2 -20 16q0 15 21 15q17 0 50 -1t50 -1q15 0 43 1t43 1h94q19 0 56 -2t56 -2q21 0 61 2t61 2t21 -15t-19 -16q-2 0 -15.5 -0.5t-18.5 -1.5t-16 -4.5
t-15.5 -9.5t-9 -17.5t-4.5 -27.5v-174v-9t1.5 -8.5t5 -6.5t10.5 -3.5t18 0.5q72 10 114 10q124 0 190.5 -58t66.5 -148q0 -35 -12.5 -69.5t-40 -69t-80 -55.5t-123.5 -21q-34 0 -100.5 3.5t-99.5 3.5q-19 0 -58.5 -1.5t-59.5 -1.5q-21 0 -21 15q0 4 1 6.5t3 4.5t4 3t6.5 1.5
t6.5 1t7.5 0.5h7.5q37 1 50 17t13 73zM566 347v-182q0 -34 1 -48.5t6.5 -36.5t17 -31t34 -16t56.5 -7q94 0 142.5 53t48.5 131q0 83 -56 129t-151 46q-61 0 -80 -9t-19 -29z" />
    <glyph glyph-name="afii10059" unicode="&#x40a;" horiz-adv-x="1115" 
d="M684 578v-144v-9t1.5 -8.5t5 -6.5t10.5 -3.5t18 0.5q72 10 114 10q124 0 190.5 -58t66.5 -148q0 -35 -12.5 -69.5t-40 -69t-80 -55.5t-123.5 -21q-34 0 -100 3.5t-100 3.5q-19 0 -58.5 -1.5t-59.5 -1.5q-21 0 -21 15q0 16 20 16q5 0 17.5 0.5t17.5 1t14 3.5t12.5 8.5
t8.5 15t6.5 25.5t1.5 37v224q0 10 -10 10h-350q-10 0 -10 -10v-224q0 -25 3.5 -42t6.5 -26.5t13.5 -14.5t14.5 -6t20 -1.5t21 -0.5q19 -1 19 -16t-21 -15q-20 0 -61 3t-61 3t-61 -3t-61 -3q-21 0 -21 15q0 16 20 16q5 0 17.5 0.5t17.5 1t14 3.5t12.5 8.5t8.5 15t6.5 25.5
t1.5 37v456q0 25 -3.5 42t-6.5 26.5t-13.5 14.5t-14.5 6t-20 1.5t-21 0.5q-19 1 -19 16t21 15q20 0 61 -3t61 -3t61 3t61 3q21 0 21 -15q0 -16 -20 -16q-5 0 -17.5 -0.5t-17.5 -1t-14 -3.5t-12.5 -8.5t-8.5 -15t-6.5 -25.5t-1.5 -37v-178q0 -10 10 -10h350q10 0 10 10v178
q0 25 -3.5 42t-6.5 26.5t-13.5 14.5t-14.5 6t-20 1.5t-21 0.5q-19 1 -19 16t21 15q20 0 61 -3t61 -3t61 3t62 3t21 -15q0 -16 -19 -16h-18t-18 -1l-13.5 -3.5t-13 -8.5t-8.5 -15.5t-6.5 -25.5t-1.5 -37zM684 347v-182q0 -34 1 -48.5t6.5 -36.5t17 -31t34 -16t56.5 -7
q94 0 142.5 53t48.5 131q0 83 -56 129t-151 46q-61 0 -80 -9t-19 -29z" />
    <glyph glyph-name="afii10060" unicode="&#x40b;" horiz-adv-x="876" 
d="M119 700h455h6h6.5t5.5 1t6.5 3t5 6t4.5 10q7 20 12 22q3 2 7 2q18 0 16 -35l-3 -60q-1 -16 -2 -41q-1 -39 -4 -51t-13 -12q-5 0 -8 2t-5.5 6.5t-3.5 8l-3 10.5t-3 11q-12 40 -30.5 61.5t-55.5 21.5h-119q-26 0 -26 -20v-272q0 -2 1.5 -3t6 -0.5t11.5 4.5q96 56 206 56
q51 0 88 -15t56.5 -35.5t30 -51t13 -53t2.5 -50.5v-104q0 -19 1.5 -33t3.5 -24t6.5 -16.5t7.5 -9.5t10.5 -5t11.5 -2.5t13.5 -0.5h14.5q20 -1 20 -16t-21 -15q-20 0 -59 3t-58 3t-59 -3t-59 -3q-21 0 -21 15t19 16q5 0 21 0.5t20 1.5t14.5 6t13.5 14.5t6.5 26.5t3.5 42v100
q0 24 -1 39.5t-8.5 40.5t-21 40t-40.5 26.5t-66 11.5q-90 0 -154 -34q-21 -11 -27.5 -22.5t-6.5 -34.5v-167q0 -25 3.5 -42t7 -26.5t14.5 -14.5t16 -6t22 -1t23 -1q19 -1 19 -16t-21 -15t-64 3t-64 3t-64.5 -3t-65.5 -3q-21 0 -21 15t19 16q6 1 23 1t22 1t16 6t14.5 14.5
t7 26.5t3.5 42v523q0 15 -9 18t-48 3q-44 0 -72.5 -5t-48 -19.5t-28.5 -25.5t-27 -39l-5.5 -10.5t-5.5 -9.5t-5 -7t-6.5 -5.5t-7.5 -1.5q-5 0 -9.5 4t-4.5 10q0 10 7 33l40 134q6 21 21 21q14 0 16 -13v-12q2 -20 35 -20z" />
    <glyph glyph-name="afii10061" unicode="&#x40c;" horiz-adv-x="707" 
d="M133 122v456q0 25 -3.5 42t-6.5 26.5t-13.5 14.5t-14.5 6t-20 1.5t-21 0.5q-19 1 -19 16t21 15q20 0 61 -3t61 -3t61 3t61 3q21 0 21 -15q0 -16 -20 -16q-5 0 -17.5 -0.5t-17.5 -1t-14 -3.5t-12.5 -8.5t-8.5 -15t-6.5 -25.5t-1.5 -37v-172q0 -12 1 -16t10 -7t29 -3h22
q104 0 154 137l30 82q42 112 136 112q29 0 48 -18t19 -46q0 -26 -17.5 -40.5t-38.5 -14.5q-28 0 -45 34q-10 20 -24 20q-5 0 -10 -2t-9 -7.5l-7 -10t-6.5 -13.5t-5.5 -15l-5.5 -17t-5.5 -16l-25 -75q-4 -12 -10.5 -25.5t-20.5 -35t-38.5 -38.5t-54.5 -23v-4q90 -11 154 -109
l91 -141q31 -48 50 -65t44 -18h15q19 0 19 -16q0 -14 -21 -15h-27q-23 0 -35 -1q-3 0 -11 -0.5t-11 -0.5q-22 0 -39 6t-29.5 19t-18.5 21t-15 23l-101 167q-31 51 -60.5 78t-48 32.5t-42.5 5.5q-29 0 -35 -4q-5 -4 -5 -23v-201q0 -25 3.5 -42t6.5 -26.5t13.5 -14.5t14.5 -6
t20 -1.5t21 -0.5q19 -1 19 -16t-21 -15q-20 0 -61 3t-61 3t-61 -3t-61 -3q-21 0 -21 15q0 16 20 16q5 0 17.5 0.5t17.5 1t14 3.5t12.5 8.5t8.5 15t6.5 25.5t1.5 37zM520 798l-187 -66q-36 -12 -40 -12q-12 0 -12 9q0 3 2 6.5t7 7t9 5.5t11 6t10 6l170 101q18 10 34 10
q14 0 23.5 -8.5t9.5 -23.5q0 -28 -37 -41z" />
    <glyph glyph-name="afii10062" unicode="&#x40e;" horiz-adv-x="667" 
d="M189 606l178 -340q2 -4 4.5 -11t4.5 -10t6 -3q3 0 5 3.5t5 11t4 10.5l130 269q30 63 30 92q0 37 -66 40q-21 1 -27.5 3.5t-6.5 13.5q0 15 21 15q17 0 51.5 -2t51.5 -2q18 0 50.5 2t42.5 2h11q18 -1 18 -15q0 -11 -6.5 -14t-31.5 -4h-8q-8 -1 -13.5 -3t-10.5 -4.5
t-10 -9.5l-9 -13t-11 -20l-12.5 -26l-16 -34.5l-19.5 -42.5l-163 -341q-45 -95 -75 -131q-52 -63 -116 -63q-27 0 -47 15t-20 41q0 25 16 39t38 14q4 0 7.5 -0.5t7 -1.5t6 -2t5.5 -3t5 -3.5t4.5 -4l4 -4t4 -4.5t3.5 -4q15 -15 27 -15q37 0 65 78q5 19 4 23t-8 17l-212 396
q-43 78 -54 90q-13 14 -33 17q-4 1 -11 1.5t-10.5 1t-8 2.5t-6.5 5.5t-2 8.5q0 14 23 14q18 0 54 -3t54 -3q21 0 63.5 3t63.5 3q19 0 25.5 -4t6.5 -14q0 -16 -19 -17h-30q-46 0 -46 -32q0 -11 9 -27zM535 856q-66 -140 -183 -140q-61 0 -102 29.5t-41 57.5q0 22 26 55t47 33
q10 0 12.5 -6.5t1.5 -18t1 -26.5q8 -70 80 -70q56 0 100 67q4 7 10 16.5t9.5 14.5l7.5 10.5t8 8t9 2.5q19 0 19 -14q0 -9 -5 -19z" />
    <glyph glyph-name="afii10145" unicode="&#x40f;" horiz-adv-x="828" 
d="M695 578v-456q0 -25 3.5 -42t6.5 -26.5t13.5 -14.5t14.5 -6t20 -1.5t21 -0.5q19 -1 19 -16t-21 -15q-20 0 -61 3t-61 3q-29 0 -88.5 -3t-89.5 -3h-34l13 -127q2 -16 2 -23q0 -19 -11 -29.5t-28 -10.5t-28 10.5t-11 29.5q0 7 2 23l13 127h-34q-30 0 -89 3t-88 3
q-21 0 -62 -3t-61 -3q-21 0 -21 15q0 4 1 6.5t3.5 4.5t4.5 3t6 1.5t6.5 1t7.5 0.5h7q36 1 49 17t13 73v456q0 57 -13 73t-50 17h-8t-7 0.5t-5.5 0.5t-5 1t-4 2t-3.5 3t-1.5 4.5t-0.5 5.5q0 15 21 15q20 0 61 -3t61 -3t61 3t61 3q21 0 21 -15q0 -4 -1 -6.5t-3.5 -4.5t-4.5 -3
t-6 -1.5t-6.5 -1t-7.5 -0.5h-7q-36 -1 -49 -17t-13 -73v-447q0 -32 3 -47.5t17 -28.5t42 -17t78 -4h103q50 0 77.5 4t41.5 17t17 28.5t3 47.5v447q0 57 -13 73t-50 17h-8t-7 0.5t-5.5 0.5t-5 1t-4 2t-3.5 3t-1.5 4.5t-0.5 5.5q0 15 21 15q20 0 61 -3t61 -3t61 3t61 3
q21 0 21 -15q0 -4 -1 -6.5t-3.5 -4.5t-4.5 -3t-6 -1.5t-6.5 -1t-7.5 -0.5h-7q-36 -1 -49 -17t-13 -73z" />
    <glyph glyph-name="afii10017" unicode="&#x410;" horiz-adv-x="665" 
d="M369 644l209 -545q15 -39 30.5 -52t43.5 -15q2 0 6.5 -0.5t6 -1t5 -1t4.5 -2t3 -3t2.5 -4t0.5 -6.5q0 -14 -24 -14q-18 0 -54 3t-54 3q-21 0 -63 -3t-63 -3q-33 0 -33 18q0 17 21 17h22q50 -3 50 28q0 16 -8 37l-50 134q-5 12 -11 18t-8 6h-11h-179q-7 0 -11.5 -0.5
t-8 -1.5t-5 -2t-3 -3t-2 -3.5t-1.5 -5t-2 -5.5l-45 -134q-6 -18 -6 -31q0 -21 18 -29.5t56 -10.5q16 -2 21 -5t5 -12q0 -15 -21 -15q-17 0 -51.5 3t-51.5 3q-14 0 -29.5 -1t-34.5 -2.5t-29 -2.5h-12q-17 2 -17 15q0 6 1.5 9t9 6t23.5 3q15 1 20 1.5t16 6.5t19.5 20.5
t18.5 40.5l193 517l28 82q6 19 17 19q3 0 5 -0.5t3.5 -1.5t3 -2.5t2 -2.5t1.5 -3.5t1.5 -3.5t1.5 -4t1 -4q6 -23 19 -54zM393 316l-86 225q-5 12 -8 12q-5 0 -8 -12l-83 -228q-3 -9 -3 -16q0 -5 8 -5h168q21 0 12 24z" />
    <glyph glyph-name="afii10018" unicode="&#x411;" horiz-adv-x="669" 
d="M223 626v-193q0 -9 0.5 -12.5t3.5 -9t10 -4.5t21 0q77 10 115 10q123 0 189.5 -59t66.5 -146q0 -35 -12.5 -69.5t-40 -69t-81.5 -56t-127 -21.5q-33 0 -97.5 3.5t-96.5 3.5q-19 0 -58.5 -1.5t-59.5 -1.5q-21 0 -21 15q0 16 20 16q2 0 15 0.5t18.5 1t16 4.5t15 10.5
t9 18.5t4.5 29v510q0 17 -4.5 29t-9 18.5t-15 10.5t-16 4.5t-19 1t-15.5 0.5q-19 1 -19 16t21 15q20 0 58 -2q24 -1 71 -1h196q70 0 111 1.5t58 1.5h10q9 0 9 -8v-9q-2 -36 -2 -69q0 -32 1 -48v-12q0 -14 -12 -14q-14 0 -24 29q-1 3 -1 4q-16 40 -40.5 61t-44 25t-52.5 4
h-66q-78 0 -91.5 -4.5t-13.5 -31.5v-1zM223 347v-177q0 -74 7 -94q18 -50 100 -50q91 0 145 49.5t54 135.5q0 83 -55.5 128.5t-146.5 45.5q-64 0 -84 -9t-20 -29z" />
    <glyph glyph-name="afii10019" unicode="&#x412;" horiz-adv-x="697" 
d="M148 92v506q0 39 -11 52t-34 13q-15 0 -33.5 -5t-21.5 -5q-13 0 -13 12q0 14 19 20q76 27 257 27q301 0 301 -166q0 -39 -15 -68.5t-40 -45.5t-49 -24.5t-49 -11.5v-4q82 -8 140 -57.5t58 -136.5q0 -38 -13.5 -71.5t-44 -64t-88 -48.5t-135.5 -18q-30 0 -91 3.5t-92 3.5
q-21 0 -61 -1.5t-61 -1.5t-21 15q0 16 20 16q2 0 15.5 0.5t18.5 1.5t15.5 4.5t15 9.5t9 17.5t4.5 27.5zM238 627v-189q0 -24 9.5 -29.5t31.5 -5.5h74q83 0 121 38.5t38 91.5q0 65 -43.5 108.5t-135.5 43.5q-59 0 -77 -13.5t-18 -44.5zM238 342v-181q0 -70 10 -92
q21 -44 110 -44q105 0 152 50t47 121q0 78 -52 126.5t-165 48.5h-72q-30 0 -30 -29z" />
    <glyph glyph-name="afii10020" unicode="&#x413;" horiz-adv-x="541" 
d="M133 122v486q0 16 -4.5 27.5t-9 17.5t-15.5 9.5t-16 4.5t-18.5 1.5t-15.5 0.5q-19 1 -19 16t21 15q20 0 60 -2q25 -1 74 -1h173q82 0 101.5 1.5t67.5 1.5q13 0 14 -9v-9q-2 -42 -2 -74v-52v-12q0 -15 -14 -15q-8 0 -13 4.5t-11 22.5q-25 71 -66 90t-127 19q-67 0 -78 -7
q-12 -8 -12 -32v-504q0 -21 2 -36t7.5 -24.5t10 -15t16 -8.5t17.5 -4t22 -1.5t24 -1.5q16 -2 18 -10q1 -3 1 -6q0 -15 -21 -15q-22 0 -66 3t-66 3t-66 -3t-66 -3q-21 0 -21 15q0 16 20 16q5 0 17.5 0.5t17.5 1t14 3.5t12.5 8.5t8.5 15t6.5 25.5t1.5 37z" />
    <glyph glyph-name="afii10021" unicode="&#x414;" horiz-adv-x="695" 
d="M573 578v-473q0 -14 0.5 -20.5t3.5 -18t9 -17.5t18.5 -11.5t30.5 -6.5h25q2 0 7.5 0.5t8.5 0.5q14 0 14 -13q0 -2 -3 -56l-4 -66q-1 -8 -1 -19.5t-0.5 -17.5t-1 -14t-2 -12t-3.5 -8t-5 -5.5t-8 -1.5q-17 0 -19 16q-1 8 -4.5 29.5t-6 35.5t-7 32t-11 31t-15.5 20
q-13 11 -39.5 15.5t-49.5 4.5t-60.5 -1.5t-50.5 -1.5h-153q-10 0 -36.5 0.5t-39 0t-32.5 -2t-34.5 -5.5t-26.5 -11q-42 -24 -55 -90l-9 -49q-4 -24 -21 -24q-7 0 -11.5 4t-5.5 13t-1 16.5t0.5 20.5t0.5 19v56v36q-1 34 1 40.5t13 7.5h18h14q27 1 48 17.5t45 66.5
q45 92 76.5 232.5t31.5 245.5q0 17 -2.5 30t-8 21t-10.5 13t-15 7t-16 2.5t-18 1t-18 0.5q-20 2 -20 16q0 15 21 15q17 0 52 -1t53 -1q16 0 46 1t46 1h84q20 0 58 -1t58 -1q13 0 54.5 1.5t63.5 0.5q21 -1 21 -15q0 -16 -13 -16h-6q-26 0 -36.5 -1.5t-22.5 -10t-16 -27
t-4 -52.5zM483 141v467q0 18 -1 25t-7.5 16.5t-23 13t-45.5 3.5h-70q-25 0 -40 -5.5t-22 -19t-9 -24.5t-3 -34q-9 -135 -32.5 -246.5t-89.5 -269.5q-5 -7 -3 -13.5t17 -11.5q24 -8 90 -8h135q62 0 76 8q26 14 28 86v13z" />
    <glyph glyph-name="afii10022" unicode="&#x415;" horiz-adv-x="614" 
d="M133 122v456q0 25 -3.5 42t-6.5 26.5t-13.5 14.5t-14.5 6t-20 1.5t-21 0.5q-19 1 -19 16t21 15q18 0 52 -1.5t52 -1.5h213q81 0 133 2q45 3 48 -2q1 -2 1 -6q0 -3 -0.5 -13t-0.5 -18l-1 -47v-34.5v-16v-8.5q0 -15 -11 -15q-13 0 -21 23q-17 45 -34.5 65t-56 29.5
t-115.5 9.5q-64 0 -78 -6.5t-14 -33.5v-193q0 -11 1 -16t8.5 -10t23.5 -5h98q26 0 44.5 6.5t27.5 18t13 20t7 20.5q6 24 19 24q14 0 14 -19q0 -18 -4 -37.5t-5 -44t6 -115.5q4 -35 -12 -35q-4 0 -6.5 1t-4.5 3.5l-3.5 4.5t-3 7l-2.5 8.5t-2.5 10l-2.5 10.5q-11 46 -34 64.5
t-90 18.5h-70q-11 0 -16 -5.5t-5.5 -9t-0.5 -13.5v-199q0 -24 2 -38t10.5 -32.5t29 -27t53.5 -8.5h72q40 0 68 8.5t46 26.5t27.5 35.5t20.5 45.5q10 24 20 24q12 0 12 -15q0 -13 -7.5 -45.5t-11.5 -84.5q-1 -9 -2.5 -15.5t-2.5 -9.5t-4 -4.5t-4.5 -2t-6.5 0t-7 0.5l-124 1
q-60 1 -132 3.5t-92 2.5q-22 0 -65.5 -3t-65.5 -3q-24 0 -24 15q0 16 20 16q5 0 17.5 0.5t17.5 1t14 3.5t12.5 8.5t8.5 15t6.5 25.5t1.5 37z" />
    <glyph glyph-name="afii10024" unicode="&#x416;" horiz-adv-x="1028" 
d="M559 323v-201q0 -25 3.5 -42t6.5 -26.5t13.5 -14.5t14.5 -6t20 -1.5t21 -0.5q19 -1 19 -16t-21 -15q-20 0 -61 3t-61 3t-60.5 -3t-61.5 -3t-21 15t19 16q5 0 21 0.5t20 1.5t14.5 6t13.5 14.5t6.5 26.5t3.5 42v201v6.5v6.5t-0.5 5t-2.5 4t-5.5 2.5t-9 2t-13.5 0.5
q-45 0 -80.5 -28.5t-86.5 -115.5l-93 -159q-29 -49 -81 -49q-15 0 -30 1t-34 1h-27q-21 1 -21 15q0 16 19 16h15q20 0 35.5 11.5t25 24.5t31.5 48l89 142q28 45 64 74t94 33v4q-30 6 -54.5 23t-38.5 38.5t-20.5 35t-10.5 25.5l-25 75q-2 5 -5.5 16l-5.5 17t-5.5 15
t-6.5 13.5l-7 10t-9 7.5t-10 2q-14 0 -24 -20q-17 -34 -45 -34q-21 0 -38.5 14.5t-17.5 40.5q0 28 19 46t48 18q94 0 136 -113l30 -80q52 -138 154 -138h7q20 0 29 3t10 7t1 16v172q0 25 -3.5 42t-6.5 26.5t-13.5 14.5t-14 6t-20 1.5t-20.5 0.5q-20 0 -20 16q0 15 21 15
t61.5 -3t60.5 -3t61 3t61 3q21 0 21 -15q0 -16 -20 -16q-5 0 -17.5 -0.5t-17.5 -1t-14 -3.5t-12.5 -8.5t-8.5 -15t-6.5 -25.5t-1.5 -37v-172q0 -12 1 -16t10 -7t29 -3h7q102 0 154 138l30 80q42 113 136 113q29 0 48 -18t19 -46q0 -26 -17.5 -40.5t-38.5 -14.5q-28 0 -45 34
q-10 20 -24 20q-5 0 -10 -2t-9 -7.5l-7 -10t-6.5 -13.5t-5.5 -15l-5.5 -17t-5.5 -16l-25 -75q-4 -12 -10.5 -25.5t-20.5 -35t-38.5 -38.5t-54.5 -23v-4q58 -4 94 -33t64 -74l88 -142q30 -49 47 -66t46 -18h15q19 0 19 -16q0 -14 -21 -15h-27q-24 0 -36 -1q-9 -1 -28 -1
q-52 0 -81 49l-93 159q-51 87 -86.5 115.5t-80.5 28.5q-9 0 -15 -1t-9.5 -2t-5 -4.5t-2 -4.5t0 -7t0.5 -8z" />
    <glyph glyph-name="afii10025" unicode="&#x417;" horiz-adv-x="595" 
d="M236 405h32q16 0 30.5 1.5t39.5 9.5t42.5 21.5t31 41.5t13.5 66q0 62 -36 104t-103 42q-42 0 -73.5 -11.5t-50.5 -32t-29 -37.5t-19 -39q-1 -3 -3.5 -9.5t-3.5 -9.5t-3.5 -7t-4.5 -6t-5.5 -3.5t-7.5 -1.5q-14 0 -17.5 11t0.5 27l8 66q3 23 7.5 32.5t15.5 15.5
q25 13 78.5 24t108.5 11q116 0 177 -46t61 -119q0 -62 -43.5 -109t-115.5 -57v-5q30 -3 60.5 -14t60.5 -31t49 -56t19 -82q0 -88 -69.5 -155.5t-201.5 -67.5q-77 0 -138 20.5t-91 44.5q-13 10 -14 26l-5 68q-2 30 1.5 39t17.5 9q15 0 21 -17q52 -160 202 -160
q86 0 131.5 56.5t45.5 136.5q0 82 -55.5 123t-133.5 41h-44h-2h-7t-5 1t-3 2.5v4.5l7 25q2 6 24 6z" />
    <glyph glyph-name="afii10026" unicode="&#x418;" horiz-adv-x="823" 
d="M223 186l377 403v4q0 20 -4 34.5t-8 22t-14.5 12t-15.5 5.5t-19 1.5t-18 0.5q-19 1 -19 16t21 15t61 -3t61 -3t61 3t61 3t21 -15q0 -16 -20 -16q-5 0 -17.5 -0.5t-17.5 -1t-14 -3.5t-12.5 -8.5t-8.5 -15t-6.5 -25.5t-1.5 -37v-456q0 -25 3.5 -42t6.5 -26.5t13.5 -14.5
t14.5 -6t20 -1.5t21 -0.5q19 -1 19 -16t-21 -15t-61 3t-61 3t-61 -3t-61 -3t-21 15q0 16 20 16q5 0 17.5 0.5t17.5 1t14 3.5t12.5 8.5t8.5 15t6.5 25.5t1.5 37v411l-377 -402v-19q0 -22 4 -38t8.5 -24t14 -12.5t15.5 -5t19 -1t18 -0.5q19 -1 19 -16t-21 -15q-20 0 -61 3
t-61 3t-61 -3t-61 -3q-21 0 -21 15q0 16 20 16q5 0 17.5 0.5t17.5 1t14 3.5t12.5 8.5t8.5 15t6.5 25.5t1.5 37v456q0 25 -3.5 42t-6.5 26.5t-13.5 14.5t-14.5 6t-20 1.5t-21 0.5q-19 1 -19 16t21 15q20 0 61 -3t61 -3t61 3t61 3q21 0 21 -15q0 -16 -20 -16q-5 0 -17.5 -0.5
t-17.5 -1t-14 -3.5t-12.5 -8.5t-8.5 -15t-6.5 -25.5t-1.5 -37v-392z" />
    <glyph glyph-name="afii10027" unicode="&#x419;" horiz-adv-x="823" 
d="M223 186l377 403v4q0 20 -4 34.5t-8 22t-14.5 12t-15.5 5.5t-19 1.5t-18 0.5q-19 1 -19 16t21 15t61 -3t61 -3t61 3t61 3t21 -15q0 -16 -20 -16q-5 0 -17.5 -0.5t-17.5 -1t-14 -3.5t-12.5 -8.5t-8.5 -15t-6.5 -25.5t-1.5 -37v-456q0 -25 3.5 -42t6.5 -26.5t13.5 -14.5
t14.5 -6t20 -1.5t21 -0.5q19 -1 19 -16t-21 -15t-61 3t-61 3t-61 -3t-61 -3t-21 15q0 16 20 16q5 0 17.5 0.5t17.5 1t14 3.5t12.5 8.5t8.5 15t6.5 25.5t1.5 37v411l-377 -402v-19q0 -22 4 -38t8.5 -24t14 -12.5t15.5 -5t19 -1t18 -0.5q19 -1 19 -16t-21 -15q-20 0 -61 3
t-61 3t-61 -3t-61 -3q-21 0 -21 15q0 16 20 16q5 0 17.5 0.5t17.5 1t14 3.5t12.5 8.5t8.5 15t6.5 25.5t1.5 37v456q0 25 -3.5 42t-6.5 26.5t-13.5 14.5t-14.5 6t-20 1.5t-21 0.5q-19 1 -19 16t21 15q20 0 61 -3t61 -3t61 3t61 3q21 0 21 -15q0 -16 -20 -16q-5 0 -17.5 -0.5
t-17.5 -1t-14 -3.5t-12.5 -8.5t-8.5 -15t-6.5 -25.5t-1.5 -37v-392zM603 856q-31 -69 -79.5 -104.5t-103.5 -35.5q-61 0 -102 27.5t-41 59.5q0 22 26 55t47 33q10 0 12.5 -6.5t1.5 -18t1 -26.5q8 -70 80 -70q56 0 100 67q4 7 10 16.5t9.5 14.5l7.5 10.5t8 8t9 2.5
q19 0 19 -14q0 -9 -5 -19z" />
    <glyph glyph-name="afii10028" unicode="&#x41a;" horiz-adv-x="707" 
d="M133 122v456q0 25 -3.5 42t-6.5 26.5t-13.5 14.5t-14.5 6t-20 1.5t-21 0.5q-19 1 -19 16t21 15q20 0 61 -3t61 -3t61 3t61 3q21 0 21 -15q0 -16 -20 -16q-5 0 -17.5 -0.5t-17.5 -1t-14 -3.5t-12.5 -8.5t-8.5 -15t-6.5 -25.5t-1.5 -37v-172q0 -12 1 -16t10 -7t29 -3h22
q104 0 154 137l30 82q42 112 136 112q29 0 48 -18t19 -46q0 -26 -17.5 -40.5t-38.5 -14.5q-28 0 -45 34q-10 20 -24 20q-5 0 -10 -2t-9 -7.5l-7 -10t-6.5 -13.5t-5.5 -15l-5.5 -17t-5.5 -16l-25 -75q-4 -12 -10.5 -25.5t-20.5 -35t-38.5 -38.5t-54.5 -23v-4q90 -11 154 -109
l91 -141q31 -48 50 -65t44 -18h15q19 0 19 -16q0 -14 -21 -15h-27q-23 0 -35 -1q-3 0 -11 -0.5t-11 -0.5q-22 0 -39 6t-29.5 19t-18.5 21t-15 23l-101 167q-31 51 -60.5 78t-48 32.5t-42.5 5.5q-29 0 -35 -4q-5 -4 -5 -23v-201q0 -25 3.5 -42t6.5 -26.5t13.5 -14.5t14.5 -6
t20 -1.5t21 -0.5q19 -1 19 -16t-21 -15q-20 0 -61 3t-61 3t-61 -3t-61 -3q-21 0 -21 15q0 16 20 16q5 0 17.5 0.5t17.5 1t14 3.5t12.5 8.5t8.5 15t6.5 25.5t1.5 37z" />
    <glyph glyph-name="afii10029" unicode="&#x41b;" horiz-adv-x="708" 
d="M485 122v486q0 21 -5 33.5t-18.5 17.5t-23.5 6t-32 1h-63q-47 0 -57.5 -18.5t-15.5 -96.5q-2 -30 -3 -47q-12 -158 -35 -265q-55 -260 -187 -260q-25 0 -42.5 13.5t-17.5 38.5q0 29 17 43t39 14q18 0 36 -12q13 -9 22 -9q26 0 53 55.5t47.5 176.5t20.5 276q0 26 -4 44
t-8 27.5t-15 14.5t-16 6t-21 1.5t-21 0.5q-20 2 -20 16q0 16 27 15q22 -4 100 -2t86 2h90q18 0 56 -2t56 -2q20 0 61 2t61 2q21 0 21 -15t-19 -16q-2 0 -15.5 -0.5t-18.5 -1.5t-16 -4.5t-15.5 -9.5t-9 -17.5t-4.5 -27.5v-486q0 -25 3.5 -42t6.5 -26.5t13.5 -14.5t14.5 -6
t20 -1.5t21 -0.5q19 -1 19 -16t-21 -15q-20 0 -61 3t-62 3q-20 0 -60.5 -3t-61.5 -3t-21 15q0 14 20 16q5 0 18 0.5t17.5 1t14 3.5t13 8.5t8.5 15t6.5 25.5t1.5 37z" />
    <glyph glyph-name="afii10030" unicode="&#x41c;" horiz-adv-x="926" 
d="M263 682l199 -498q4 -12 7 -12t7 12l214 503q0 1 1 3t1.5 2.5t1.5 2.5t3 2.5t4.5 1t7 1t9.5 0.5q14 0 37 -1t33 -1q11 0 35 1t36 1q21 0 21 -15q0 -11 -6 -13t-30 -4q-37 -2 -48 -15t-10 -60l17 -490q1 -42 13.5 -56t43.5 -15q17 -1 23 -2.5t9 -4.5t3 -10q0 -15 -21 -15
q-20 0 -62 3t-62 3t-61 -3t-61 -3q-22 0 -22 15q0 14 20 16q4 0 21 0.5t22 1.5t17 6.5t16 14.5t8 26t3 42l-13 468q0 13 -4 13q-5 0 -9 -11l-214 -505q-9 -21 -13 -32t-8 -20q-4 -11 -12 -11t-12 11l-21 52l-203 502q-2 6 -5.5 5t-3.5 -8l-22 -446q-2 -39 1.5 -62
t14.5 -32.5t22.5 -12t31.5 -2.5h15q13 0 17 -4t4 -12q0 -15 -21 -15q-17 0 -52.5 3t-53.5 3q-16 0 -49 -3t-50 -3q-22 0 -22 15q0 16 20 16h16t16.5 1t13 4t13 9l9 16t8 26.5t3.5 38.5l33 471q0 17 0.5 32.5t-10 27t-31.5 12.5q0 1 -19 1l-19 -1q-19 0 -19 16q0 15 21 15
q10 0 30 -1t57 -1q31 0 46 1q5 0 13 0.5t13 0.5q8 0 10.5 -2t7.5 -16z" />
    <glyph glyph-name="afii10031" unicode="&#x41d;" horiz-adv-x="816" 
d="M133 122v456q0 25 -3.5 42t-6.5 26.5t-13.5 14.5t-14.5 6t-20 1.5t-21 0.5q-19 1 -19 16t21 15q20 0 61 -3t61 -3t61 3t61 3q21 0 21 -15q0 -16 -20 -16q-5 0 -17.5 -0.5t-17.5 -1t-14 -3.5t-12.5 -8.5t-8.5 -15t-6.5 -25.5t-1.5 -37v-178q0 -10 10 -10h350q10 0 10 10
v178q0 25 -3.5 42t-6.5 26.5t-13.5 14.5t-14.5 6t-20 1.5t-21 0.5q-19 1 -19 16t21 15q20 0 61 -3t61 -3t61 3t61 3q21 0 21 -15q0 -16 -20 -16q-5 0 -17.5 -0.5t-17.5 -1t-14 -3.5t-12.5 -8.5t-8.5 -15t-6.5 -25.5t-1.5 -37v-456q0 -25 3.5 -42t6.5 -26.5t13.5 -14.5
t14.5 -6t20 -1.5t21 -0.5q19 -1 19 -16t-21 -15q-20 0 -61 3t-61 3t-61 -3t-61 -3q-21 0 -21 15q0 16 20 16q5 0 17.5 0.5t17.5 1t14 3.5t12.5 8.5t8.5 15t6.5 25.5t1.5 37v224q0 10 -10 10h-350q-10 0 -10 -10v-224q0 -25 3.5 -42t6.5 -26.5t13.5 -14.5t14.5 -6t20 -1.5
t21 -0.5q19 -1 19 -16t-21 -15q-20 0 -61 3t-61 3t-61 -3t-61 -3q-21 0 -21 15q0 16 20 16q5 0 17.5 0.5t17.5 1t14 3.5t12.5 8.5t8.5 15t6.5 25.5t1.5 37z" />
    <glyph glyph-name="afii10032" unicode="&#x41e;" horiz-adv-x="867" 
d="M434 -21q-89 0 -164 32.5t-123.5 85.5t-75 120t-26.5 138q0 79 33 148.5t87.5 116.5t126 74t148.5 27q116 0 205 -55t133 -138.5t44 -177.5q0 -151 -110.5 -261t-277.5 -110zM434 9q125 0 206.5 95t81.5 235q0 88 -31.5 166.5t-98.5 132t-158 53.5q-53 0 -103 -20.5
t-92.5 -60t-68 -106t-25.5 -149.5q0 -152 82 -249t207 -97z" />
    <glyph glyph-name="afii10033" unicode="&#x41f;" horiz-adv-x="828" 
d="M133 122v456q0 25 -3.5 42t-6.5 26.5t-13.5 14.5t-14.5 6t-20 1.5t-21 0.5q-19 1 -19 16t21 15q20 0 61 -3t61 -3q29 0 88.5 3t89.5 3h116q29 0 88.5 -3t88.5 -3q21 0 62 3t61 3q21 0 21 -15q0 -16 -20 -16q-5 0 -17.5 -0.5t-17.5 -1t-14 -3.5t-12.5 -8.5t-8.5 -15
t-6.5 -25.5t-1.5 -37v-456q0 -25 3.5 -42t6.5 -26.5t13.5 -14.5t14.5 -6t20 -1.5t21 -0.5q19 -1 19 -16t-21 -15q-20 0 -61 3t-61 3t-61 -3t-61 -3q-21 0 -21 15q0 16 20 16q5 0 17.5 0.5t17.5 1t14 3.5t12.5 8.5t8.5 15t6.5 25.5t1.5 37v453q0 25 -0.5 33.5t-7 23.5
t-20.5 20t-41.5 9.5t-70.5 4.5h-103q-51 0 -80.5 -4.5t-42 -17.5t-14.5 -24t-2 -37v-8v-453q0 -25 3.5 -42t6.5 -26.5t13.5 -14.5t14.5 -6t20 -1.5t21 -0.5q19 -1 19 -16t-21 -15q-20 0 -61 3t-61 3t-61 -3t-61 -3q-21 0 -21 15q0 16 20 16q5 0 17.5 0.5t17.5 1t14 3.5
t12.5 8.5t8.5 15t6.5 25.5t1.5 37z" />
    <glyph glyph-name="afii10034" unicode="&#x420;" horiz-adv-x="616" 
d="M133 122v456q0 57 -13 73t-50 17h-8t-7 0.5t-5.5 0.5t-5 1t-4 2t-3.5 3t-1.5 4.5t-0.5 5.5q0 15 21 15q20 0 61 -2t62 -2q16 0 98 5q38 2 58 2q114 0 185 -50.5t71 -144.5q0 -86 -61 -144t-158 -58q-55 0 -110 19q-24 8 -30 8q-9 0 -9 -19v-192q0 -21 2 -36t7.5 -24.5
t10 -15t16 -8.5t17.5 -4t22 -1.5t24 -1.5q16 -2 18 -10q1 -3 1 -6q0 -15 -21 -15q-22 0 -66 3t-66 3t-66 -3t-66 -3q-21 0 -21 15q0 4 1 6.5t3.5 4.5t4.5 3t6 1.5t6.5 1t7.5 0.5h7q36 1 49 17t13 73zM223 583v-186q0 -23 15 -31q46 -22 97 -22q76 0 123 46t47 119
q0 10 -1 20t-5 27t-11 31t-21.5 30t-34 27t-49.5 18t-67 7q-70 0 -85 -23q-8 -13 -8 -63z" />
    <glyph glyph-name="afii10035" unicode="&#x421;" horiz-adv-x="705" 
d="M663 630l4 -45q2 -23 -0.5 -31.5t-12.5 -8.5q-4 0 -6.5 1t-5 4.5t-4.5 7t-6.5 12t-9.5 15.5q-33 56 -76 81t-109 25q-130 0 -211 -94t-81 -239q0 -160 84.5 -254.5t205.5 -94.5q61 0 104 28q17 11 30.5 24t25 29.5t18 27.5t16 30t12.5 24q6 12 16 12q7 0 10.5 -4t4 -12.5
t0 -15.5t-2 -19.5t-1.5 -18.5l-2 -36q-1 -12 -2 -17.5t-11 -16.5t-30 -21q-95 -44 -202 -44q-155 0 -265.5 103t-110.5 263q0 153 111.5 264.5t284.5 111.5q107 0 199 -37q12 -5 16 -13t7 -41z" />
    <glyph glyph-name="afii10036" unicode="&#x422;" horiz-adv-x="648" 
d="M119 700h455q18 0 24 4t10 16q7 21 14 23q2 1 5 1q4 0 7 -1t4.5 -4t2.5 -5.5t1.5 -6.5t0.5 -6v-6.5v-5.5l-4 -93q-2 -61 -9 -68q-4 -3 -9 -3t-8 2t-5.5 6.5t-3.5 7.5t-2.5 11t-2.5 11q-28 83 -82 83h-119q-21 0 -24 -10q-2 -4 -2 -10v-524q0 -57 14 -73t54 -17h9t9 -0.5
t7.5 -1.5t6.5 -2.5t3.5 -4.5t1.5 -8q0 -15 -21 -15q-22 0 -64 3t-64 3t-65 -3t-65 -3q-21 0 -21 15t19 16q6 1 23 1t22 1t16 6t14.5 14.5t7 26.5t3.5 42v524q0 15 -10 17.5t-49 2.5q-36 0 -52.5 -1.5t-41.5 -9t-44.5 -26.5t-40.5 -51l-7.5 -13t-6.5 -12t-6.5 -7t-9.5 -3
t-9.5 4t-4.5 10q0 10 7 33l40 134q6 21 21 21q14 0 16 -13v-12q2 -20 35 -20z" />
    <glyph glyph-name="afii10037" unicode="&#x423;" horiz-adv-x="667" 
d="M189 606l178 -340q2 -4 4.5 -11t4.5 -10t6 -3q3 0 5 3.5t5 11t4 10.5l130 269q30 63 30 92q0 37 -66 40q-21 1 -27.5 3.5t-6.5 13.5q0 15 21 15q17 0 51.5 -2t51.5 -2q18 0 50.5 2t42.5 2h11q18 -1 18 -15q0 -11 -6.5 -14t-31.5 -4h-8q-8 -1 -13.5 -3t-10.5 -4.5
t-10 -9.5l-9 -13t-11 -20l-12.5 -26l-16 -34.5l-19.5 -42.5l-163 -341q-45 -95 -75 -131q-52 -63 -116 -63q-27 0 -47 15t-20 41q0 25 16 39t38 14q4 0 7.5 -0.5t7 -1.5t6 -2t5.5 -3t5 -3.5t4.5 -4l4 -4t4 -4.5t3.5 -4q15 -15 27 -15q37 0 65 78q5 19 4 23t-8 17l-212 396
q-43 78 -54 90q-13 14 -33 17q-4 1 -11 1.5t-10.5 1t-8 2.5t-6.5 5.5t-2 8.5q0 14 23 14q18 0 54 -3t54 -3q21 0 63.5 3t63.5 3q19 0 25.5 -4t6.5 -14q0 -16 -19 -17h-30q-46 0 -46 -32q0 -11 9 -27z" />
    <glyph glyph-name="afii10038" unicode="&#x424;" horiz-adv-x="876" 
d="M483 122v-30q0 -16 4.5 -27.5t9 -17.5t15.5 -9.5t16 -4.5t18.5 -1.5t15.5 -0.5q19 -1 19 -16t-21 -15q-20 0 -61 3t-61 3t-61 -3t-61 -3q-21 0 -21 15q0 16 20 16q2 0 15.5 0.5t18.5 1.5t15.5 4.5t15 9.5t9 17.5t4.5 27.5v30h-30q-74 1 -132 18t-92 42t-56 59t-30 66
t-8 66q0 47 18 89t54.5 77.5t100 57.5t146.5 23h29v9q0 16 -4.5 27.5t-9 17.5t-15.5 9.5t-16 4.5t-18.5 1.5t-15.5 0.5q-19 1 -19 16t21 15q20 0 61 -3t61 -3t61 3t61 3q21 0 21 -15q0 -16 -20 -16q-2 0 -15.5 -0.5t-18.5 -1.5t-15.5 -4.5t-15 -9.5t-9 -17.5t-4.5 -27.5v-9
q90 2 157.5 -17t102.5 -46t56 -65t26.5 -66t5.5 -57q0 -50 -20 -94t-60 -79.5t-109 -55.5t-159 -18zM393 150v442q-9 1 -26 1q-101 0 -161.5 -59t-60.5 -162q0 -105 63 -164t160 -59q17 0 25 1zM483 592v-442q64 -5 118 14t92 72t38 134q0 64 -23.5 111.5t-61.5 71t-79 33.5
t-84 6z" />
    <glyph glyph-name="afii10039" unicode="&#x425;" horiz-adv-x="751" 
d="M267 591l120 -161q9 -11 16 0l103 148q37 52 37 67q0 8 -3.5 13t-10 7t-14.5 2.5t-16 0t-16 0.5l-15 1.5t-9.5 4.5t-4.5 11q0 15 15 15h6q126 -3 128 -3q18 0 55 1.5t56 1.5q22 0 22 -15q0 -10 -5.5 -13.5t-28.5 -4.5q-44 -2 -81.5 -25t-94.5 -99l-110 -148l222 -302
q28 -38 42 -48.5t37 -12.5q2 0 6.5 -0.5t6.5 -1t5 -1t4.5 -2t3.5 -3t2.5 -4t0.5 -6.5q0 -14 -24 -14q-18 0 -54 3t-54 3q-21 0 -63 -3t-63 -3q-33 0 -33 18q0 17 19 17h19q52 -3 52 21q0 15 -29 53l-148 198q-6 8 -10 6q-2 -2 -5 -6l-143 -198q-22 -30 -22 -49q0 -28 50 -28
h10.5h11h9.5t9 -1.5l6 -3t4.5 -5t1.5 -7.5q0 -15 -21 -15q-22 0 -66 2t-66 2q-31 0 -93 -4h-12q-18 4 -18 15q0 8 5.5 12t10.5 4.5t19 1.5q37 2 59 17t68 78l163 219l-178 231q-42 55 -59.5 71t-47.5 20q-6 1 -15 1t-14 0.5t-10 1.5t-7.5 4.5t-2.5 9.5q0 14 20 14
q19 0 56 -2.5t55 -2.5q28 0 85 2.5t86 2.5q28 0 28 -17t-21 -18h-16h-18q-42 0 -42 -21q0 -14 29 -53z" />
    <glyph glyph-name="afii10040" unicode="&#x426;" horiz-adv-x="836" 
d="M133 122v456q0 21 -1.5 37t-6.5 25.5t-8.5 15.5t-13 8.5l-13.5 3.5t-18 1h-18q-19 1 -19 16t21 15q20 0 61 -3t61 -3t61 3t61 3q21 0 21 -15q0 -16 -20 -16q-5 0 -17.5 -0.5t-17.5 -1t-14 -3.5t-12.5 -8.5t-8.5 -15t-6.5 -25.5t-1.5 -37v-447q0 -32 3 -47.5t17 -28.5
t42 -17t78 -4h103q50 0 77.5 4t41.5 17t17 28.5t3 47.5v447q0 25 -3.5 42t-6.5 26.5t-13.5 14.5t-14.5 6t-20 1.5t-21 0.5q-19 1 -19 16t21 15q20 0 61 -3t61 -3t61 3t61 3q21 0 21 -15q0 -16 -20 -16q-5 0 -17.5 -0.5t-17.5 -1t-14 -3.5t-12.5 -8.5t-8.5 -15t-6.5 -25.5
t-1.5 -37v-473q0 -17 1 -25t6 -21t19 -20t36 -8h20q2 0 7.5 0.5t8.5 0.5q14 0 14 -13q0 -2 -3 -56l-4 -66q-1 -8 -1 -19.5t-0.5 -17.5t-1 -14t-2 -12t-3.5 -8t-5 -5.5t-8 -1.5q-17 0 -19 16q-1 8 -4.5 29.5t-6 35.5t-7 32t-11 31t-15.5 20q-13 11 -39.5 15.5t-49.5 4.5
t-60.5 -1.5t-50.5 -1.5h-160q-30 0 -89 3t-88 3q-21 0 -62 -3t-61 -3q-21 0 -21 15q0 16 20 16q5 0 17.5 0.5t17.5 1t14 3.5t12.5 8.5t8.5 15t6.5 25.5t1.5 37z" />
    <glyph glyph-name="afii10041" unicode="&#x427;" horiz-adv-x="732" 
d="M509 122v219q0 13 -12 7q-95 -49 -197 -49q-42 0 -76 9t-55 21.5t-36.5 33t-22.5 36.5t-11 40t-4.5 35.5t-0.5 29.5v74q0 19 -1.5 33t-3.5 24t-6.5 16.5t-7.5 9.5t-10.5 5t-11.5 2.5t-13.5 0.5h-14.5q-20 1 -20 16t21 15q20 0 59 -3t58 -3t58.5 3t59.5 3q21 0 21 -15
t-19 -16q-5 0 -21 -0.5t-20 -1.5t-14.5 -6t-13.5 -14.5t-6.5 -26.5t-3.5 -42v-70q0 -27 1.5 -44.5t9.5 -41t23 -38t43.5 -24.5t69.5 -10q81 0 146 27q20 8 26 17.5t6 31.5v152q0 25 -3.5 42t-6.5 26.5t-13.5 14.5t-14 6t-20.5 1.5t-21 0.5q-20 1 -20 16t21 15t62 -3t61 -3
t60.5 3t61.5 3t21 -15t-19 -16q-5 0 -21 -0.5t-20 -1.5t-14.5 -6t-13.5 -14.5t-6.5 -26.5t-3.5 -42v-456q0 -25 3.5 -42t6.5 -26.5t13.5 -14.5t14.5 -6t20 -1.5t21 -0.5q19 -1 19 -16t-21 -15q-20 0 -61 3t-61 3t-61.5 -3t-61.5 -3q-21 0 -21 15q0 16 20 16q5 0 18 0.5
t17.5 1t14 3.5t13 8.5t8.5 15t6.5 25.5t1.5 37z" />
    <glyph glyph-name="afii10042" unicode="&#x428;" horiz-adv-x="1116" 
d="M223 578v-447q0 -32 3 -47.5t17 -28.5t41.5 -17t77.5 -4h11q50 0 78 4t42 17t17 28.5t3 47.5v447q0 25 -3.5 42t-6.5 26.5t-13.5 14.5t-14.5 6t-20 1.5t-21 0.5q-19 1 -19 16t21 15q20 0 61 -3t61 -3t61 3t61 3q21 0 21 -15q0 -16 -20 -16q-5 0 -17.5 -0.5t-17.5 -1
t-14 -3.5t-12.5 -8.5t-8.5 -15t-6.5 -25.5t-1.5 -37v-447q0 -32 3 -47.5t17 -28.5t41.5 -17t77.5 -4h12q50 0 77.5 4t41.5 17t17 28.5t3 47.5v447q0 25 -3.5 42t-6.5 26.5t-13.5 14.5t-14.5 6t-20 1.5t-21 0.5q-19 1 -19 16t21 15t61.5 -3t60.5 -3t61 3t61 3q21 0 21 -15
q0 -16 -20 -16q-5 0 -17.5 -0.5t-17.5 -1t-14 -3.5t-12.5 -8.5t-8.5 -15t-6.5 -25.5t-1.5 -37v-456q0 -25 3.5 -42t6.5 -26.5t13.5 -14.5t14.5 -6t20 -1.5t21 -0.5q19 -1 19 -16t-21 -15q-20 0 -61 3t-61 3q-29 0 -88.5 -3t-89.5 -3h-25q-29 0 -89 3t-89 3t-88 -3t-89 -3
h-24q-30 0 -89.5 3t-88.5 3q-20 0 -61 -3t-61 -3q-21 0 -21 15q0 16 20 16q5 0 17.5 0.5t17.5 1t14 3.5t12.5 8.5t8.5 15t6.5 25.5t1.5 37v456q0 25 -3.5 42t-6.5 26.5t-13.5 14.5t-14.5 6t-20 1.5t-21 0.5q-19 1 -19 16t21 15q20 0 61 -3t61 -3t61 3t61 3q21 0 21 -15
q0 -16 -20 -16q-5 0 -17.5 -0.5t-17.5 -1t-14 -3.5t-12.5 -8.5t-8.5 -15t-6.5 -25.5t-1.5 -37z" />
    <glyph glyph-name="afii10043" unicode="&#x429;" horiz-adv-x="1124" 
d="M223 578v-447q0 -32 3 -47.5t17 -28.5t41.5 -17t77.5 -4h11q50 0 78 4t42 17t17 28.5t3 47.5v447q0 25 -3.5 42t-6.5 26.5t-13.5 14.5t-14.5 6t-20 1.5t-21 0.5q-19 1 -19 16t21 15q20 0 61 -3t61 -3t61 3t61 3q21 0 21 -15q0 -16 -20 -16q-5 0 -17.5 -0.5t-17.5 -1
t-14 -3.5t-12.5 -8.5t-8.5 -15t-6.5 -25.5t-1.5 -37v-447q0 -32 3 -47.5t17 -28.5t41.5 -17t77.5 -4h12q50 0 77.5 4t41.5 17t17 28.5t3 47.5v447q0 25 -3.5 42t-6.5 26.5t-13.5 14.5t-14.5 6t-20 1.5t-21 0.5q-19 1 -19 16t21 15t61.5 -3t60.5 -3t61 3t61 3q21 0 21 -15
q0 -16 -20 -16q-5 0 -17.5 -0.5t-17.5 -1t-14 -3.5t-12.5 -8.5t-8.5 -15t-6.5 -25.5t-1.5 -37v-473q0 -17 1 -25t6 -21t19 -20t36 -8h20q2 0 7.5 0.5t8.5 0.5q14 0 14 -13q0 -2 -3 -56l-4 -66q-1 -8 -1 -19.5t-0.5 -17.5t-1 -14t-2 -12t-3.5 -8t-5 -5.5t-8 -1.5
q-17 0 -19 16q-1 8 -4.5 29.5t-6 35.5t-7 32t-11 31t-15.5 20q-13 11 -39.5 15.5t-49.5 4.5t-60.5 -1.5t-50.5 -1.5h-69q-29 0 -89 3t-89 3t-88 -3t-89 -3h-24q-30 0 -89.5 3t-88.5 3q-20 0 -61 -3t-61 -3q-21 0 -21 15q0 16 20 16q5 0 17.5 0.5t17.5 1t14 3.5t12.5 8.5
t8.5 15t6.5 25.5t1.5 37v456q0 25 -3.5 42t-6.5 26.5t-13.5 14.5t-14.5 6t-20 1.5t-21 0.5q-19 1 -19 16t21 15q20 0 61 -3t61 -3t61 3t61 3q21 0 21 -15q0 -16 -20 -16q-5 0 -17.5 -0.5t-17.5 -1t-14 -3.5t-12.5 -8.5t-8.5 -15t-6.5 -25.5t-1.5 -37z" />
    <glyph glyph-name="afii10044" unicode="&#x42a;" horiz-adv-x="782" 
d="M351 578v-144v-9t1.5 -8.5t5 -6.5t10.5 -3.5t18 0.5q72 10 114 10q124 0 190.5 -58t66.5 -148q0 -35 -12.5 -69.5t-40 -69t-80 -55.5t-123.5 -21q-33 0 -100 3.5t-100 3.5q-19 0 -58 -1.5t-59 -1.5q-21 0 -21 15t19 16q5 0 19.5 0.5t19.5 1.5t15 5t14 12t7.5 22.5
t3.5 35.5v541q0 15 -7.5 18t-44.5 3q-66 0 -99.5 -19.5t-65.5 -71.5q-3 -4 -7 -12.5t-6.5 -12.5t-7 -7.5t-10.5 -3.5q-13 0 -13 14q0 7 29 110q15 51 21.5 65t17.5 14q14 0 16 -14v-12q2 -20 35 -20h309q22 0 22 -15q0 -16 -20 -16q-5 0 -18 -0.5t-17.5 -1t-14 -3.5
t-13 -8.5t-8.5 -15t-6.5 -25.5t-1.5 -37zM351 347v-182q0 -34 1 -48.5t6.5 -36.5t17 -31t34 -16t56.5 -7q94 0 142.5 53t48.5 131q0 83 -56 129t-151 46q-61 0 -80 -9t-19 -29z" />
    <glyph glyph-name="afii10045" unicode="&#x42b;" horiz-adv-x="955" 
d="M133 122v456q0 25 -3.5 42t-6.5 26.5t-13.5 14.5t-14.5 6t-20 1.5t-21 0.5q-19 1 -19 16t21 15q20 0 61 -3t61 -3t61 3t61 3q21 0 21 -15q0 -16 -20 -16q-5 0 -17.5 -0.5t-17.5 -1t-14 -3.5t-12.5 -8.5t-8.5 -15t-6.5 -25.5t-1.5 -37v-144v-9t1.5 -8.5t5 -6.5t10.5 -3.5
t18 0.5q72 10 114 10q124 0 190.5 -58t66.5 -148q0 -35 -12.5 -69.5t-40 -69t-80 -55.5t-123.5 -21q-33 0 -99.5 3.5t-100.5 3.5q-19 0 -58 -1.5t-59 -1.5q-21 0 -21 15q0 16 20 16q5 0 17.5 0.5t17.5 1t14 3.5t12.5 8.5t8.5 15t6.5 25.5t1.5 37zM223 347v-182
q0 -34 1 -48.5t6.5 -36.5t17 -31t34 -16t56.5 -7q94 0 142.5 53t48.5 131q0 83 -56 129t-151 46q-61 0 -80 -9t-19 -29zM732 122v456q0 25 -3.5 42t-6.5 26.5t-13.5 14.5t-14.5 6t-20 1.5t-21 0.5q-19 1 -19 16t21 15t61 -3t61 -3t61 3t61 3t21 -15q0 -16 -20 -16
q-5 0 -17.5 -0.5t-17.5 -1t-14 -3.5t-12.5 -8.5t-8.5 -15t-6.5 -25.5t-1.5 -37v-456q0 -25 3.5 -42t6.5 -26.5t13.5 -14.5t14.5 -6t20 -1.5t21 -0.5q19 -1 19 -16t-21 -15t-61 1.5t-61 1.5t-61 -1.5t-61 -1.5t-21 15q0 16 20 16q5 0 17.5 0.5t17.5 1t14 3.5t12.5 8.5t8.5 15
t6.5 25.5t1.5 37z" />
    <glyph glyph-name="afii10046" unicode="&#x42c;" horiz-adv-x="654" 
d="M133 122v456q0 25 -3.5 42t-6.5 26.5t-13.5 14.5t-14.5 6t-20 1.5t-21 0.5q-19 1 -19 16t21 15q20 0 61 -3t61 -3t61 3t61 3q21 0 21 -15q0 -16 -20 -16q-5 0 -17.5 -0.5t-17.5 -1t-14 -3.5t-12.5 -8.5t-8.5 -15t-6.5 -25.5t-1.5 -37v-144v-9t1.5 -8.5t5 -6.5t10.5 -3.5
t18 0.5q72 10 114 10q124 0 190.5 -58t66.5 -148q0 -35 -12.5 -69.5t-40 -69t-80 -55.5t-123.5 -21q-33 0 -99.5 3.5t-100.5 3.5q-19 0 -58 -1.5t-59 -1.5q-21 0 -21 15q0 16 20 16q5 0 17.5 0.5t17.5 1t14 3.5t12.5 8.5t8.5 15t6.5 25.5t1.5 37zM223 347v-182
q0 -34 1 -48.5t6.5 -36.5t17 -31t34 -16t56.5 -7q94 0 142.5 53t48.5 131q0 83 -56 129t-151 46q-61 0 -80 -9t-19 -29z" />
    <glyph glyph-name="afii10047" unicode="&#x42d;" horiz-adv-x="710" 
d="M353 392h179q26 0 26 24q0 39 -18 85t-50.5 89.5t-85.5 72t-116 28.5q-74 0 -118.5 -30.5t-80.5 -99.5q-9 -16 -18 -16q-10 0 -12.5 8.5t-0.5 31.5l4 45q3 33 7 41t16 13q95 37 204 37q166 0 271 -102t105 -252q0 -70 -25 -138t-72 -124.5t-123.5 -91t-170.5 -34.5
q-69 0 -130 18.5t-88 41.5q-15 12 -17 39l-2 36q0 6 -1.5 17t-2 19t0 16.5t4.5 13t11 4.5q4 0 7 -2t6.5 -8l6.5 -11.5t8.5 -17.5l10.5 -22q58 -114 189 -114q129 0 207 89.5t81 221.5q1 27 -3.5 32.5t-18.5 5.5h-157q-67 0 -90.5 -17t-33.5 -64l-2.5 -10.5t-2.5 -10
l-2.5 -8.5t-3 -7l-3.5 -4.5t-4.5 -3.5t-6.5 -1q-16 0 -12 35q1 7 3 30t3 31.5t2 28t1 31.5t-1.5 30t-3.5 35q-3 30 13 30q13 0 19 -24q9 -36 24 -49q22 -18 68 -18z" />
    <glyph glyph-name="afii10048" unicode="&#x42e;" horiz-adv-x="1185" 
d="M229 384h155q14 151 126 244t258 93q113 0 199.5 -54.5t129.5 -138t43 -178.5q0 -151 -108 -261t-270 -110q-100 0 -185.5 45t-139 130.5t-54.5 195.5h-154q-6 0 -6 -6v-222q0 -25 3.5 -42t6.5 -26.5t13.5 -14.5t14.5 -6t20 -1.5t21 -0.5q19 -1 19 -16t-21 -15
q-20 0 -61 3t-61 3t-61 -3t-61 -3q-21 0 -21 15q0 16 20 16q5 0 17.5 0.5t17.5 1t14 3.5t12.5 8.5t8.5 15t6.5 25.5t1.5 37v456q0 25 -3.5 42t-6.5 26.5t-13.5 14.5t-14.5 6t-20 1.5t-21 0.5q-19 1 -19 16t21 15q20 0 61 -3t61 -3t61 3t61 3q21 0 21 -15q0 -16 -20 -16
q-5 0 -17.5 -0.5t-17.5 -1t-14 -3.5t-12.5 -8.5t-8.5 -15t-6.5 -25.5t-1.5 -37v-187q0 -7 6 -7zM762 9q120 0 199 95t79 235q0 88 -30.5 166.5t-95.5 132t-152 53.5q-124 0 -201.5 -95t-77.5 -241q0 -87 25.5 -155.5t67 -109t89 -61t97.5 -20.5z" />
    <glyph glyph-name="afii10049" unicode="&#x42f;" horiz-adv-x="671" 
d="M448 122v192q0 19 -5.5 23t-20.5 4h-15q-12 0 -22 -1.5t-17 -3t-14 -6t-10.5 -6.5t-9 -10t-7 -10.5l-7.5 -13t-8 -13.5l-139 -232q-2 -4 -7 -15.5t-8.5 -16t-13 -9t-23.5 -4.5q-9 0 -25 0.5t-24 0.5q-11 0 -33.5 -0.5t-34.5 -0.5q-19 0 -19 15q0 12 16 15q3 0 15 0.5
t17 2.5t15 7t20 17.5t22 31.5l139 225q23 37 55 36v3q-72 2 -130 43.5t-58 120.5q0 20 3 39.5t17 47.5t36.5 48t67 34.5t103.5 14.5q44 0 66 -1q12 0 33 -1t38 -1.5t33 -0.5q21 0 61 1.5t61 1.5t21 -15q0 -16 -20 -16q-5 0 -17.5 -0.5t-17.5 -1t-14 -3.5t-12.5 -8.5
t-8.5 -15t-6.5 -25.5t-1.5 -37v-456q0 -25 3.5 -42t6.5 -26.5t13.5 -14.5t14.5 -6t20 -1.5t21 -0.5q19 -1 19 -16t-21 -15t-61 3t-61 3t-61 -3t-61 -3t-21 15q0 16 20 16q5 0 17.5 0.5t17.5 1t14 3.5t12.5 8.5t8.5 15t6.5 25.5t1.5 37zM448 400v204q0 24 -1 33t-9 20
t-26.5 14t-52.5 3q-75 0 -119 -39t-44 -109q0 -40 13.5 -70t33.5 -46t49.5 -25t53.5 -11.5t53 -2.5h10.5h9.5h7.5t6.5 0.5t5 1.5t4 2.5t2.5 3.5t2 5t1 7t0.5 9z" />
    <glyph glyph-name="afii10065" unicode="&#x430;" horiz-adv-x="531" 
d="M421 421l-8 -299v-27q0 -63 33 -63q17 0 36 16q13 11 15 11q12 0 12 -10q0 -9 -19 -26q-48 -44 -86 -44q-57 0 -75 78q-3 7 -6 7q-2 0 -14 -9q-92 -76 -167 -76q-48 0 -68.5 27t-20.5 60q0 48 56.5 92t193.5 95q17 6 23 11.5t6 14.5l3 119l1 20q0 21 -1 21q-5 55 -68 55
q-92 0 -123 -85q-13 -37 -33 -49q-19 -12 -49 -12q-11 0 -14 4t-3 12q0 47 62 95q79 63 185 63q44 0 73 -11t40 -29.5t14 -31.5t2 -29zM329 150l2 69q0 14 -7 14t-23 -6q-151 -52 -151 -130q0 -61 54 -61q47 0 85.5 32.5t39.5 81.5z" />
    <glyph glyph-name="afii10066" unicode="&#x431;" horiz-adv-x="613" 
d="M356 490q91 0 156.5 -66.5t65.5 -178.5q0 -113 -77 -189.5t-186 -76.5q-118 0 -194 81t-76 218q0 88 31 183t90 157q43 46 91.5 67t142.5 27q102 6 116 17q3 2 9.5 9.5t11.5 7.5q4 0 6.5 -2.5t3.5 -8.5t-4 -15q-11 -23 -27 -40t-30 -26t-38.5 -15.5t-38 -8.5t-44.5 -5
q-6 -1 -9 -1q-42 -4 -69 -8.5t-63.5 -19t-58.5 -36.5t-39 -62.5t-20 -95.5v-15q2 -11 5 -12h4q4 1 29 26q88 89 212 89zM304 446q-78 0 -124 -56.5t-46 -148.5q0 -101 53.5 -166.5t133.5 -65.5q74 0 121 58t47 153q0 103 -50 164.5t-135 61.5z" />
    <glyph glyph-name="afii10067" unicode="&#x432;" horiz-adv-x="535" 
d="M111 93v315q0 33 -10 48t-44 16q-27 0 -27 14q0 15 31 15q16 0 47.5 -2t46.5 -2q24 0 72.5 3t72.5 3q89 0 131.5 -28.5t42.5 -74.5q0 -49 -33 -83.5t-88 -39.5v-3q23 -1 46 -7.5t48.5 -20.5t41.5 -42t16 -66q0 -57 -52 -99t-174 -42q-21 0 -62.5 3.5t-62.5 3.5
q-16 0 -47 -2t-46 -2q-31 0 -31 15q0 14 27 14q34 1 44 16t10 48zM195 438v-130q0 -14 6 -18t20 -4h54q57 0 86.5 28.5t29.5 71.5q0 49 -37 71t-93 22q-42 0 -54 -9.5t-12 -31.5zM195 239v-125v-8q0 -22 1.5 -33t8.5 -25.5t25.5 -20.5t48.5 -6q73 0 106.5 33.5t33.5 82.5
q0 54 -37 88.5t-116 34.5h-50q-21 0 -21 -21z" />
    <glyph glyph-name="afii10068" unicode="&#x433;" horiz-adv-x="465" 
d="M111 93v315q0 33 -10 48t-44 16q-27 0 -27 14q0 15 31 15h239q70 0 87.5 2.5t21.5 13.5q5 17 17 17q17 0 17 -22q0 -19 2 -33l9 -86q4 -36 -14 -36q-4 0 -7 1.5t-5 3t-4 5.5l-3 6t-3 8l-3 9q-18 52 -37.5 68t-57.5 16h-107q-18 0 -18 -16v-365q0 -33 10 -48t44 -16
q27 0 27 -14q0 -15 -31 -15q-15 0 -46 2t-46 2t-46 -2t-46 -2q-31 0 -31 15q0 14 27 14q34 1 44 16t10 48z" />
    <glyph glyph-name="afii10069" unicode="&#x434;" horiz-adv-x="567" 
d="M456 408v-296q0 -27 4 -45t13 -25.5t16.5 -10t19.5 -3.5q33 -2 35 -6q1 -2 1 -9q0 -5 -9 -81l-8 -66q-3 -28 -18 -28q-17 0 -18 28q-4 89 -27 114q-10 11 -29 16t-32 5.5t-44 -0.5t-41 -1h-109q-10 0 -36 1.5t-39.5 1t-30.5 -5.5t-28 -17q-3 -3 -5.5 -7t-5 -9t-4 -9.5
l-4 -12t-3.5 -12t-3.5 -14.5t-3.5 -15.5t-4 -17.5t-4 -19q-5 -26 -20 -26q-5 0 -8.5 1t-6 4.5t-3.5 7t-2 11t-1 13.5t-0.5 17.5t-1.5 21.5q-6 73 -6 91q0 17 4.5 21t16.5 5q36 1 50 12q49 34 80 170.5t31 215.5q0 13 -1.5 19t-13 13t-33.5 8q-10 1 -13.5 1t-9.5 1.5t-8 5
t-2 9.5q0 15 23 15h392q31 0 31 -15q0 -11 -12 -13q-5 -1 -17.5 -1.5t-19.5 -2t-15.5 -7t-12.5 -19t-4 -35.5zM372 93v317q0 24 -3 37.5t-14 19t-18.5 6.5t-29.5 1h-14q-50 0 -64.5 -15t-18.5 -53q-29 -241 -91 -352q-6 -13 0 -19q8 -8 43 -8h156q11 0 19 2t17 8t13.5 20
t4.5 36z" />
    <glyph glyph-name="afii10070" unicode="&#x435;" horiz-adv-x="536" 
d="M486 341h-325q-21 0 -29 -15t-8 -70q0 -95 57.5 -157.5t148.5 -62.5q74 0 123 40l16.5 15t12.5 11t8 3q12 0 12 -9q0 -13 -21 -35q-78 -82 -194 -82q-109 0 -180.5 76.5t-71.5 193.5q0 116 73 194.5t188 78.5q59 0 103.5 -19t65.5 -47t31 -53t10 -44q0 -18 -20 -18z
M167 368l118 1q82 1 105 14q21 12 21 37q0 27 -31.5 49.5t-80.5 22.5q-82 0 -131 -62q-22 -30 -22 -46t21 -16z" />
    <glyph glyph-name="afii10072" unicode="&#x436;" horiz-adv-x="782" 
d="M433 237v-144q0 -33 10 -48t44 -16q27 0 27 -14q0 -15 -31 -15q-15 0 -46 2t-46 2t-46 -2t-46 -2q-31 0 -31 15q0 14 27 14q34 1 44 16t10 48v144q0 10 -10 10q-41 0 -65.5 -22.5t-52.5 -71.5q-16 -27 -32.5 -58t-23.5 -43t-16 -26t-16 -17.5t-16.5 -6t-24.5 -2.5
q-8 0 -22 0.5t-21 0.5q-8 0 -24 -0.5t-24 -0.5q-21 0 -21 13q0 12 26 16q34 8 52 24.5t37 48.5l24 40q1 2 8 14t9.5 16l10 15.5t12 16l13.5 13.5t16.5 13.5l18.5 11t22 9.5t25 5.5t30 2.5v4q-42 16 -61 42.5t-38 79.5q-19 52 -32 60q-5 4 -11 4q-12 0 -25 -13
q-24 -22 -48 -22q-26 0 -37.5 16t-11.5 34q0 20 12.5 36.5t44.5 16.5q51 0 83 -31t61 -95l13 -30t12.5 -28.5t11.5 -21t15 -19t18 -11t24 -6.5l11 -1q15 -1 19 1t4 9v124q0 33 -10 48t-44 16q-27 0 -27 14q0 15 31 15q15 0 46 -2t46 -2t46 2t46 2q31 0 31 -15q0 -14 -27 -14
q-34 -1 -44 -16t-10 -48v-124q0 -10 12 -10h11l11 1q13 1 24 6.5t18 11t15 19t11.5 21t12.5 28.5l13 30q29 64 61 95t83 31q32 0 44.5 -16.5t12.5 -36.5q0 -18 -11.5 -34t-37.5 -16q-24 0 -48 22q-13 13 -25 13q-14 0 -22.5 -15.5t-18.5 -42.5q-1 -4 -2 -6
q-12 -35 -18.5 -50.5t-27.5 -37.5t-53 -34v-4q17 0 32 -2.5t28.5 -8l23 -9.5t20 -14.5t15.5 -14.5t14.5 -17.5l11.5 -16.5t11 -18t9 -16l24 -40q17 -29 34.5 -45.5t26 -20t24.5 -6.5q3 -1 4 -1q26 -4 26 -16q0 -13 -21 -13q-8 0 -24 0.5t-24 0.5q-7 0 -21 -0.5t-22 -0.5
q-15 0 -24.5 2.5t-16.5 6t-16 17.5t-16 26t-23.5 43t-32.5 58q-28 49 -52.5 71.5t-65.5 22.5q-10 0 -10 -10z" />
    <glyph glyph-name="afii10073" unicode="&#x437;" horiz-adv-x="483" 
d="M190 293h34q18 0 26 0.5t29.5 5.5t32.5 14.5t21.5 30.5t10.5 51q0 37 -24 67t-75 30q-111 0 -159 -119q-7 -16 -17 -16q-6 0 -9.5 2.5t-4.5 9t-1 11t1 14t1 13.5l4 62q3 39 8 43q3 3 8 3q9 0 13 -11q6 -19 14 -19q3 0 17 7q58 30 123 30q97 0 140.5 -37.5t43.5 -84.5
t-33 -81.5t-88 -41.5v-4q16 -1 32.5 -5t37 -13.5t36 -23t26 -37t10.5 -52.5q0 -73 -58 -118t-158 -45q-87 0 -144.5 29t-57.5 70q0 19 11 35t27 16q23 0 38 -41q8 -21 13 -31t17 -23.5t32 -19t49 -5.5q37 0 64.5 11t41.5 25.5t23 34.5t11 34t2 28q0 48 -32 83.5t-106 35.5
h-38q-7 0 -5 6l5 20q1 6 7 6z" />
    <glyph glyph-name="afii10074" unicode="&#x438;" horiz-adv-x="672" 
d="M195 408v-246q0 -15 2 -15q5 0 15 10l265 253v3q0 20 -4.5 33t-13.5 18t-17 6.5t-19 1.5t-15 1q-12 2 -12 13q0 15 31 15q15 0 46 -2t46 -2t46 2t46 2q31 0 31 -15q0 -11 -12 -13q-5 -1 -17.5 -1.5t-19.5 -2t-15.5 -7t-12.5 -19t-4 -35.5v-315q0 -22 4 -35.5t12.5 -19
t15.5 -7t19.5 -2t17.5 -1.5q12 -2 12 -13q0 -15 -31 -15q-15 0 -46 2t-46 2t-46 -2t-46 -2q-31 0 -31 15q0 11 12 13q5 1 17.5 1.5t19.5 2t15.5 7t12.5 19t4 35.5v253q0 15 -2 15q-5 0 -15 -10l-265 -253v-15q0 -22 8.5 -35t16.5 -15.5t24.5 -3.5t19.5 -1q12 -2 12 -13
q0 -15 -31 -15q-15 0 -46 2t-46 2t-46 -2t-46 -2q-31 0 -31 15q0 11 12 13q5 1 17.5 1.5t19.5 2t15.5 7t12.5 19t4 35.5v315q0 22 -4 35.5t-12.5 19t-15.5 7t-19.5 2t-17.5 1.5q-12 2 -12 13q0 15 31 15q15 0 46 -2t46 -2t46 2t46 2q31 0 31 -15q0 -11 -12 -13
q-5 -1 -17.5 -1.5t-19.5 -2t-15.5 -7t-12.5 -19t-4 -35.5z" />
    <glyph glyph-name="afii10075" unicode="&#x439;" horiz-adv-x="672" 
d="M195 408v-246q0 -15 2 -15q5 0 15 10l265 253v3q0 20 -4.5 33t-13.5 18t-17 6.5t-19 1.5t-15 1q-12 2 -12 13q0 15 31 15q15 0 46 -2t46 -2t46 2t46 2q31 0 31 -15q0 -11 -12 -13q-5 -1 -17.5 -1.5t-19.5 -2t-15.5 -7t-12.5 -19t-4 -35.5v-315q0 -22 4 -35.5t12.5 -19
t15.5 -7t19.5 -2t17.5 -1.5q12 -2 12 -13q0 -15 -31 -15q-15 0 -46 2t-46 2t-46 -2t-46 -2q-31 0 -31 15q0 11 12 13q5 1 17.5 1.5t19.5 2t15.5 7t12.5 19t4 35.5v253q0 15 -2 15q-5 0 -15 -10l-265 -253v-15q0 -22 8.5 -35t16.5 -15.5t24.5 -3.5t19.5 -1q12 -2 12 -13
q0 -15 -31 -15q-15 0 -46 2t-46 2t-46 -2t-46 -2q-31 0 -31 15q0 11 12 13q5 1 17.5 1.5t19.5 2t15.5 7t12.5 19t4 35.5v315q0 22 -4 35.5t-12.5 19t-15.5 7t-19.5 2t-17.5 1.5q-12 2 -12 13q0 15 31 15q15 0 46 -2t46 -2t46 2t46 2q31 0 31 -15q0 -11 -12 -13
q-5 -1 -17.5 -1.5t-19.5 -2t-15.5 -7t-12.5 -19t-4 -35.5zM527 689q-76 -138 -185 -138q-49 0 -89.5 24.5t-40.5 57.5q0 23 24.5 52t41.5 29q4 0 6.5 -2.5t3 -6.5t1 -9t0.5 -10.5v-10.5q4 -80 76 -80q71 0 123 86q2 3 6 9.5l6 10t5.5 8t7 6.5t6.5 2q13 0 13 -9t-5 -19z" />
    <glyph glyph-name="afii10076" unicode="&#x43a;" horiz-adv-x="564" 
d="M195 408v-119q0 -8 3 -9t20 -1h21q14 0 25 2.5t20.5 10l15.5 12t14.5 19.5t11 20.5l12 26t12.5 26.5l18.5 38t19.5 32.5t26 30.5t31.5 17t42.5 8q30 0 45.5 -14.5t15.5 -38.5q0 -20 -13 -35t-36 -15q-26 0 -48 22q-12 12 -24 12q-4 0 -7.5 -1t-6.5 -4l-5.5 -5.5t-5 -7.5
t-4.5 -8.5t-4 -9.5t-3.5 -9t-3.5 -9.5t-3 -8.5q-21 -56 -41.5 -84t-58.5 -38v-4q22 -1 41 -5t34 -14t24.5 -15t21 -21l14.5 -20t14 -23l11 -20l24 -41q15 -25 26.5 -40.5t24.5 -22.5t17.5 -8.5t20.5 -4.5q26 -4 26 -16q0 -13 -21 -13q-8 0 -24 0.5t-24 0.5q-7 0 -21 -0.5
t-22 -0.5q-10 0 -16.5 0.5t-13.5 3.5t-11 5t-10.5 10t-10.5 14t-12 20.5l-14 26l-18.5 34.5l-22.5 42q-16 29 -30 47.5t-23.5 28.5t-25.5 14.5t-25 5t-31 0.5q-5 0 -7.5 -0.5t-4 -2.5t-1.5 -7v-149q0 -33 10 -48t44 -16q27 0 27 -14q0 -15 -31 -15q-15 0 -46 2t-46 2t-46 -2
t-46 -2q-31 0 -31 15q0 14 27 14q34 1 44 16t10 48v315q0 33 -10 48t-44 16q-27 0 -27 14q0 15 31 15q15 0 46 -2t46 -2t46 2t46 2q31 0 31 -15q0 -14 -27 -14q-34 -1 -44 -16t-10 -48z" />
    <glyph glyph-name="afii10077" unicode="&#x43b;" horiz-adv-x="578" 
d="M383 93v317q0 39 -15 52t-74 13q-24 0 -39 -3.5t-22 -12.5t-9 -17t-3 -25q-35 -429 -169 -429q-28 0 -45 13.5t-17 36.5q0 27 15 42.5t37 15.5q17 0 32 -11.5t23 -11.5q32 0 56 128.5t24 210.5q0 10 -1 18t-3.5 14t-4.5 10t-7 7t-7 4.5t-8 2.5t-7.5 1.5t-8.5 0.5h-6
q-11 1 -15.5 1.5t-9 4t-4.5 11.5q0 14 20 14h402q31 0 31 -15q0 -14 -27 -14q-20 -1 -31.5 -6t-16 -16t-5.5 -18.5t-1 -23.5v-315q0 -16 1 -23.5t5.5 -18.5t16 -16t31.5 -6q27 0 27 -14q0 -15 -31 -15q-15 0 -46 2t-46 2t-46 -2t-46 -2q-31 0 -31 15q0 14 27 14q20 1 31.5 6
t16 16t5.5 18.5t1 23.5z" />
    <glyph glyph-name="afii10078" unicode="&#x43c;" horiz-adv-x="752" 
d="M227 488l143 -336q3 -9 5 -9q1 0 5 9l153 340q1 3 1.5 3.5t2 2.5t3 2t5 0.5t8.5 0.5q9 0 25 -2t23 -2q12 0 38.5 2t39.5 2q31 0 31 -15q0 -14 -27 -14q-29 -1 -42 -14t-12 -50l13 -315q1 -23 4 -34t15 -20.5t36 -9.5q27 0 27 -14q0 -15 -31 -15q-15 0 -46 2t-46 2t-46 -2
t-46 -2q-31 0 -31 15q0 14 27 14q35 1 45 16t8 48l-13 315v16q0 10 -2 10t-6 -8l-154 -344q-25 -56 -35 -56q-8 0 -32 56l-144 336q-3 8 -6 8q-2 0 -2 -9l-14 -257q-5 -79 2 -103t40 -27q4 0 11.5 -0.5t11 -1t7.5 -2t5.5 -4t1.5 -7.5q0 -15 -31 -15q-12 0 -38 2t-38 2
q-10 0 -31 -2t-32 -2q-31 0 -31 15q0 14 27 14q30 1 42 14t15 49l23 316q0 12 0.5 26t-13.5 25.5t-41 12.5q-27 0 -27 14q0 15 31 15q9 0 29 -2t29 -2l42 3q8 1 25 1q12 0 17 -13z" />
    <glyph glyph-name="afii10079" unicode="&#x43d;" horiz-adv-x="678" 
d="M473 254h-268q-10 0 -10 -10v-151q0 -23 4 -36.5t14.5 -19t15 -6.5t20.5 -2l15 -1q12 0 12 -13q0 -15 -31 -15q-15 0 -46 2t-46 2t-46 -2t-46 -2q-31 0 -31 15q0 13 12 13l15 1q32 2 41 13q13 14 13 51v315q0 23 -4 36.5t-14.5 19t-15 6.5t-20.5 2l-15 1q-12 0 -12 13
q0 15 31 15q15 0 46 -2t46 -2t46 2t46 2q31 0 31 -15q0 -13 -12 -13l-15 -1q-32 -2 -41 -13q-13 -14 -13 -51v-117q0 -10 10 -10h268q10 0 10 10v117q0 23 -4 36.5t-14.5 19t-15 6.5t-20.5 2l-15 1q-12 0 -12 13q0 15 31 15q15 0 46 -2t46 -2t46 2t46 2q31 0 31 -15
q0 -13 -12 -13l-15 -1q-32 -2 -41 -13q-13 -14 -13 -51v-315q0 -23 4 -36.5t14.5 -19t15 -6.5t20.5 -2l15 -1q12 0 12 -13q0 -15 -31 -15q-15 0 -46 2t-46 2t-46 -2t-46 -2q-31 0 -31 15q0 13 12 13l15 1q32 2 41 13q13 14 13 51v151q0 10 -10 10z" />
    <glyph glyph-name="afii10080" unicode="&#x43e;" horiz-adv-x="634" 
d="M317 -21q-68 0 -123.5 25.5t-89 66t-51.5 87t-18 92.5t18 93t51.5 87.5t89 66t123.5 25.5t123.5 -25.5t89 -66t51.5 -87.5t18 -93t-18 -92.5t-51.5 -87t-89 -66t-123.5 -25.5zM315 9q83 0 139 63.5t56 178.5q0 62 -20 115t-65.5 89.5t-109.5 36.5q-91 0 -141 -71
t-50 -170q0 -97 50 -169.5t141 -72.5z" />
    <glyph glyph-name="afii10081" unicode="&#x43f;" horiz-adv-x="651" 
d="M456 93v341q0 35 -35 35h-191q-35 0 -35 -35v-341q0 -23 4 -36.5t14.5 -19t15 -6.5t20.5 -2l15 -1q12 0 12 -13q0 -15 -31 -15q-15 0 -46 2t-46 2t-46 -2t-46 -2q-31 0 -31 15q0 13 12 13l15 1q32 2 41 13q13 14 13 51v315q0 23 -4 36.5t-14.5 19t-15 6.5t-20.5 2l-15 1
q-12 0 -12 13q0 15 31 15h529q31 0 31 -15q0 -13 -12 -13l-15 -1q-32 -2 -41 -13q-13 -14 -13 -51v-315q0 -23 4 -36.5t14.5 -19t15 -6.5t20.5 -2l15 -1q12 0 12 -13q0 -15 -31 -15q-16 0 -46 2t-46 2t-46 -2t-46 -2q-31 0 -31 15q0 13 12 13l15 1q32 2 41 13q13 14 13 51z
" />
    <glyph glyph-name="afii10082" unicode="&#x440;" horiz-adv-x="649" 
d="M96 -155v567q0 32 -6.5 43t-20.5 11h-17q-21 0 -21 11q0 12 19 16q54 13 86 29q33 17 36 17q4 0 6 -2t2.5 -6t0.5 -8t-0.5 -11.5t-0.5 -12.5v-50q0 -9 7 -9q4 0 8 3t16 14t27 22q56 43 128 43q111 0 179.5 -71t68.5 -182q0 -130 -79 -210t-204 -80q-68 0 -133 27
q-8 5 -13 3t-5 -17v-147q0 -17 3 -28t17.5 -22t42.5 -13q4 0 10.5 -0.5t10.5 -1t8.5 -1.5t6.5 -3.5t2 -7.5q0 -17 -32 -17q-17 0 -51 2t-51 2t-50 -2t-50 -2q-32 0 -32 17q0 13 26 13q25 0 38.5 12.5t15 23t1.5 28.5zM180 356v-209q0 -19 1 -32t9 -35t22.5 -35.5t44.5 -24.5
t72 -11q84 0 140 64t56 172t-57.5 167.5t-135.5 59.5q-56 0 -104 -30.5t-48 -85.5z" />
    <glyph glyph-name="afii10083" unicode="&#x441;" horiz-adv-x="532" 
d="M494 452l-5 -56q-2 -27 -16 -27q-3 0 -6 1t-6 3.5t-5 4t-5 5.5l-4.5 6t-4.5 7.5t-4 6.5q-14 22 -21.5 32.5t-23 26.5t-34 23t-41.5 7q-73 0 -133.5 -67.5t-60.5 -169.5q0 -108 67 -168.5t152 -60.5q68 0 132 52q11 9 17 9q8 0 8 -9q0 -8 -12 -21q-69 -78 -188 -78
q-115 0 -190 71.5t-75 179.5q0 117 84.5 204.5t212.5 87.5q40 0 83 -11t68 -31q13 -11 11 -28z" />
    <glyph glyph-name="afii10084" unicode="&#x442;" horiz-adv-x="522" 
d="M101 501h351q21 0 26 14q5 12 7.5 15t9.5 3q17 0 17 -17q0 -6 -1 -19t-1 -23l-2 -88q-1 -17 -4 -23t-11 -6q-15 0 -19 18q-15 69 -27.5 84t-46.5 15h-78q-18 0 -18 -16v-365q0 -23 4 -36.5t14.5 -19t15 -6.5t20.5 -2l15 -1q12 0 12 -13q0 -15 -31 -15q-16 0 -46 2t-46 2
t-46 -2t-46 -2q-31 0 -31 15q0 13 12 13l15 1q32 2 41 13q13 14 13 51v365q0 11 -7 13.5t-34 2.5q-54 0 -78.5 -14t-56.5 -74q-6 -12 -9 -16.5t-8 -8.5t-12 -4q-15 0 -15 15q0 7 10 40l18 62q15 51 20 56q4 4 12 4q5 0 8 -1t4.5 -3.5t2 -3.5t1.5 -5.5t1 -5.5q3 -14 24 -14z
" />
    <glyph glyph-name="afii10085" unicode="&#x443;" horiz-adv-x="511" 
d="M159 408l123 -291l10 -21l10 21l98 231q24 55 24 79q0 44 -56 45q-27 0 -27 14q0 15 31 15q16 0 46 -2t46 -2q8 0 25 2t26 2q26 0 26 -14q0 -13 -12 -14l-12 -1q-10 -1 -17.5 -4.5t-12.5 -7.5t-11 -14.5t-9.5 -18t-11 -25.5l-12.5 -30l-159 -361q-56 -132 -76 -209
q-1 -3 -3 -11l-2.5 -10t-2.5 -8.5t-3 -7.5t-4 -5.5t-5.5 -5.5t-7 -3.5t-9.5 -3t-12 -1t-15 -0.5q-35 0 -48.5 9.5t-13.5 32.5q0 26 12.5 36t37.5 10q4 0 12 -0.5t13 -0.5q18 0 27.5 11.5t25.5 52.5l23 58q11 29 11 33q0 11 -14 43l-169 392q-2 4 -4.5 10.5l-3.5 9t-3.5 7.5
t-4 6.5t-4 5t-4.5 4t-5.5 2.5t-7 2.5t-8 1t-10.5 0.5q-26 0 -26 14q0 15 27 15q15 0 45.5 -2t46.5 -2t48 2t48 2q31 0 31 -15q0 -5 -1.5 -7.5t-5.5 -4t-7.5 -2t-11 -1t-11.5 -0.5q-35 -3 -39.5 -21t9.5 -42z" />
    <glyph glyph-name="afii10086" unicode="&#x444;" horiz-adv-x="842" 
d="M468 696v-215q0 -11 3 -11q4 0 12 8q47 44 123 44q86 0 148.5 -71.5t62.5 -194.5q0 -65 -22.5 -119t-58 -87.5t-77.5 -52t-82 -18.5q-59 0 -99 28q-3 3 -7 3q-3 0 -3 -4v-161q0 -14 1 -21.5t5.5 -19t17 -17t31.5 -6.5q26 0 26 -13q0 -17 -32 -17q-15 0 -45 2t-45 2
q-16 0 -46.5 -2t-45.5 -2q-32 0 -32 17q0 13 26 13q19 1 31.5 6.5t17 17t5.5 19t1 21.5v174q0 14 -1 14t-4 -2q-14 -12 -24 -18q-53 -34 -110 -34q-85 0 -147.5 73.5t-62.5 199.5q0 63 22 115.5t57 85.5t77 51t83 18q53 0 101 -27q1 0 3.5 -1.5t3.5 -1.5q2 0 2 13v109
q0 30 -6.5 41t-20.5 11h-16q-21 0 -21 12q0 11 19 15q56 15 85 29q33 17 35 17q4 0 6.5 -2t3 -7t0.5 -9t-0.5 -12t-0.5 -13zM384 112v269q0 111 -107 111q-72 0 -112.5 -67.5t-40.5 -168.5q0 -61 14 -112t51 -87.5t92 -36.5q35 0 58 11.5t31.5 30t11 29t2.5 21.5zM468 389
v-269q0 -35 11 -59t29 -34.5t33.5 -14t32.5 -3.5q65 0 109.5 64.5t44.5 177.5q0 109 -43 169.5t-113 60.5q-104 0 -104 -92z" />
    <glyph glyph-name="afii10087" unicode="&#x445;" horiz-adv-x="613" 
d="M351 277l152 -198q25 -32 40 -40.5t38 -9.5q27 0 27 -14q0 -15 -31 -15q-15 0 -45.5 2t-46.5 2q-22 0 -66 -2t-66 -2q-31 0 -31 15q0 14 25 14h10.5t10.5 0.5t9.5 1t9.5 1t8 2t7.5 3t5 4t3.5 6.5t1 8q0 14 -17 36l-91 122q-12 12 -16.5 11t-14.5 -14l-45 -56
q-2 -3 -12.5 -15.5t-16.5 -21l-14.5 -20.5t-12.5 -21.5t-4 -16.5q0 -5 1.5 -9t4 -7t5.5 -5t8 -3.5t8 -2.5t9 -1.5t8.5 -0.5t8 -0.5t6.5 -0.5q19 -2 19 -14q0 -15 -31 -15q-15 0 -46 2t-46 2q-16 0 -46.5 -2t-45.5 -2q-26 0 -26 15q0 14 25 14q57 2 139 100l89 106
q4 5 6.5 8.5l4 5.5t0.5 5t-1.5 4t-4 5t-5.5 6l-137 169q-9 11 -16.5 18t-16 10t-12 4t-16 1.5t-16.5 0.5l-15 1q-12 0 -12 13q0 15 31 15q16 0 46.5 -2t45.5 -2q20 0 62 2t62 2q31 0 31 -15q0 -14 -27 -14q-28 -1 -38 -11t4 -30l80 -107q10 -13 20 0l55 69q34 44 34 54
q0 11 -7 16.5t-13 6.5t-25 2l-15 1q-12 0 -12 13q0 15 31 15q15 0 45 -2t45 -2t46.5 2t47.5 2q31 0 31 -15q0 -5 -1.5 -7.5t-6 -4t-7.5 -2t-10 -1t-11 -0.5q-14 -1 -27 -4.5t-22 -6.5t-20 -10.5t-16.5 -10.5t-16 -14t-13.5 -13.5t-15 -16.5t-14 -16l-66 -74q-9 -13 -9 -15
t9 -13z" />
    <glyph glyph-name="afii10088" unicode="&#x446;" horiz-adv-x="671" 
d="M195 408v-346q0 -35 35 -35h201q35 0 35 35v346q0 23 -4 36.5t-14.5 19t-15 6.5t-20.5 2l-15 1q-12 0 -12 13q0 15 31 15q16 0 46.5 -2t45.5 -2q16 0 46 2t46 2q31 0 31 -15q0 -13 -12 -13l-15 -1q-32 -2 -41 -13q-13 -14 -13 -51v-296q0 -1 -0.5 -13.5t0 -16l2 -14.5
t6 -15.5l11 -11.5t17.5 -10t25 -3h22q6 0 9 -1t5 -5.5t2 -13.5q0 -13 -7 -80l-7 -62q-4 -28 -19 -28t-18 28q-9 93 -30 114q-11 12 -31.5 17t-36.5 5.5t-46.5 -1t-41.5 -1.5h-351q-31 0 -31 15q0 13 12 13l15 1q32 2 41 13q13 14 13 51v315q0 23 -4 36.5t-14.5 19t-15 6.5
t-20.5 2l-15 1q-12 0 -12 13q0 15 31 15q15 0 46 -2t46 -2t46 2t46 2q31 0 31 -15q0 -13 -12 -13l-15 -1q-32 -2 -41 -13q-13 -14 -13 -51z" />
    <glyph glyph-name="afii10089" unicode="&#x447;" horiz-adv-x="615" 
d="M420 93v125q0 8 -4 9q-5 1 -14 -4q-70 -36 -157 -36q-74 0 -116.5 41.5t-42.5 113.5v66q0 15 -0.5 21.5t-4.5 18t-14.5 17.5t-28.5 7q-1 0 -4.5 0.5t-5.5 0.5t-5 1t-4.5 2.5t-2.5 4t-1 5.5q0 15 31 15q14 0 43 -2t44 -2t44 2t43 2q31 0 31 -15q0 -14 -27 -14
q-20 -1 -31.5 -6t-16 -16t-5.5 -18.5t-1 -23.5v-42q0 -131 117 -131q63 0 102 18q20 9 25.5 19t5.5 32v104q0 33 -10 48t-44 16q-27 0 -27 14q0 15 31 15q16 0 46 -2t46 -2t46 2t46 2q31 0 31 -15q0 -14 -27 -14q-34 -1 -44 -16t-10 -48v-315q0 -33 10 -48t44 -16
q27 0 27 -14q0 -15 -31 -15q-17 0 -51 2t-51 2t-51 -2t-51 -2q-31 0 -31 15q0 14 27 14q46 1 60 16t14 48z" />
    <glyph glyph-name="afii10090" unicode="&#x448;" horiz-adv-x="896" 
d="M195 408v-346q0 -35 35 -35h141q35 0 35 35v346q0 16 -1 23.5t-5.5 18.5t-16 16t-31.5 6q-27 0 -27 14q0 15 31 15q16 0 46 -2t46 -2t46 2t46 2q31 0 31 -15q0 -14 -27 -14q-20 -1 -31.5 -6t-16 -16t-5.5 -18.5t-1 -23.5v-346q0 -35 35 -35h141q35 0 35 35v346
q0 16 -1 23.5t-5.5 18.5t-16 16t-31.5 6q-27 0 -27 14q0 15 31 15q15 0 46 -2t46 -2t46 2t46 2q31 0 31 -15q0 -14 -27 -14q-20 -1 -31.5 -6t-16 -16t-5.5 -18.5t-1 -23.5v-315q0 -16 1 -23.5t5.5 -18.5t16 -16t31.5 -6q27 0 27 -14q0 -15 -31 -15h-774q-31 0 -31 15
q0 14 27 14q20 1 31.5 6t16 16t5.5 18.5t1 23.5v315q0 16 -1 23.5t-5.5 18.5t-16 16t-31.5 6q-27 0 -27 14q0 15 31 15q15 0 46 -2t46 -2t46 2t46 2q31 0 31 -15q0 -14 -27 -14q-20 -1 -31.5 -6t-16 -16t-5.5 -18.5t-1 -23.5z" />
    <glyph glyph-name="afii10091" unicode="&#x449;" horiz-adv-x="907" 
d="M195 408v-346q0 -35 35 -35h141q35 0 35 35v346q0 16 -1 23.5t-5.5 18.5t-16 16t-31.5 6q-27 0 -27 14q0 15 31 15q16 0 46 -2t46 -2t46 2t46 2q31 0 31 -15q0 -14 -27 -14q-20 -1 -31.5 -6t-16 -16t-5.5 -18.5t-1 -23.5v-346q0 -35 35 -35h142q35 0 35 35v346
q0 16 -1 23.5t-5.5 18.5t-16 16t-31.5 6q-27 0 -27 14q0 15 31 15q16 0 46 -2t46 -2t46 2t46 2q31 0 31 -15q0 -14 -27 -14q-20 -1 -31.5 -6t-16 -16t-5.5 -18.5t-1 -23.5v-300v-22.5t3 -20t9 -20t18.5 -11t30.5 -6.5h22q6 0 9 -1t5 -5.5t2 -13.5t-7 -78l-7 -64
q-3 -28 -19 -28q-15 0 -18 28q-8 91 -30 114q-11 11 -30.5 16.5t-35.5 5.5t-47 -1t-43 -1h-587q-31 0 -31 15q0 14 27 14q34 1 44 16t10 48v315q0 16 -1 23.5t-5.5 18.5t-16 16t-31.5 6q-27 0 -27 14q0 15 31 15q15 0 46 -2t46 -2t46 2t46 2q31 0 31 -15q0 -14 -27 -14
q-20 -1 -31.5 -6t-16 -16t-5.5 -18.5t-1 -23.5z" />
    <glyph glyph-name="afii10092" unicode="&#x44a;" horiz-adv-x="624" 
d="M205 93v365q0 10 -6.5 13t-30.5 3q-51 0 -73.5 -18t-50.5 -70q-6 -12 -9 -16.5t-8 -8.5t-12 -4q-15 0 -15 15q0 7 10 40l18 62q15 51 20 56q4 4 12 4q5 0 8 -1t4.5 -3.5t2 -3.5t1.5 -5.5t1 -5.5q3 -14 24 -14h238q31 0 31 -15q0 -14 -27 -14q-34 -1 -44 -16t-10 -48v-101
q0 -18 2.5 -20.5t16.5 0.5q55 11 102 11q57 0 97 -14t58.5 -37.5t26 -46t7.5 -47.5q0 -64 -49.5 -110t-151.5 -46q-25 0 -75.5 3.5t-75.5 3.5q-15 0 -46 -2t-46 -2q-31 0 -31 15q0 14 27 14q34 1 44 16t10 48zM289 238v-124q0 -49 9 -64q17 -27 75 -27q17 0 35 3.5t44 14.5
t42 38.5t16 67.5q0 33 -12.5 57t-27.5 35.5t-37 18t-33.5 7.5t-23.5 1q-30 0 -65 -6q-8 -1 -12 -2.5t-7 -6t-3 -13.5z" />
    <glyph glyph-name="afii10093" unicode="&#x44b;" horiz-adv-x="791" 
d="M111 93v315q0 33 -10 48t-44 16q-27 0 -27 14q0 15 31 15q15 0 46 -2t46 -2t46 2t46 2q31 0 31 -15q0 -14 -27 -14q-34 -1 -44 -16t-10 -48v-101q0 -18 3.5 -21t18.5 1q53 11 107 11q48 0 83.5 -11.5t53.5 -27.5t28.5 -38.5t13 -37t2.5 -30.5q0 -64 -49.5 -110
t-151.5 -46q-25 0 -75.5 3.5t-75.5 3.5q-15 0 -46 -2t-46 -2q-31 0 -31 15q0 14 27 14q34 1 44 16t10 48zM195 238v-124q0 -49 9 -64q17 -27 75 -27q17 0 35 3.5t44 14.5t42 38.5t16 67.5q0 33 -12.5 57t-27.5 35.5t-37 18t-33.5 7.5t-23.5 1q-30 0 -65 -6q-8 -1 -12 -2.5
t-7 -6t-3 -13.5zM596 93v315q0 33 -10 48t-44 16q-27 0 -27 14q0 15 31 15q16 0 46 -2t46 -2t46 2t46 2q31 0 31 -15q0 -14 -27 -14q-34 -1 -44 -16t-10 -48v-315q0 -33 10 -48t44 -16q27 0 27 -14q0 -15 -31 -15q-16 0 -46 2t-46 2t-46 -2t-46 -2q-31 0 -31 15q0 14 27 14
q34 1 44 16t10 48z" />
    <glyph glyph-name="afii10094" unicode="&#x44c;" horiz-adv-x="530" 
d="M111 93v315q0 33 -10 48t-44 16q-27 0 -27 14q0 15 31 15q15 0 46 -2t46 -2t46 2t46 2q31 0 31 -15q0 -14 -27 -14q-34 -1 -44 -16t-10 -48v-101q0 -18 3.5 -21t18.5 1q53 11 111 11q51 0 87.5 -13.5t55 -36t26.5 -46t8 -49.5q0 -64 -49.5 -110t-151.5 -46
q-25 0 -75.5 3.5t-75.5 3.5q-15 0 -46 -2t-46 -2q-31 0 -31 15q0 14 27 14q34 1 44 16t10 48zM195 238v-124q0 -58 17.5 -74.5t66.5 -16.5q17 0 35 3.5t44 14.5t42 38.5t16 67.5q0 33 -12.5 57t-27.5 35.5t-37 18t-33.5 7.5t-23.5 1q-30 0 -65 -6q-8 -1 -12 -2.5t-7 -6
t-3 -13.5z" />
    <glyph glyph-name="afii10095" unicode="&#x44d;" horiz-adv-x="551" 
d="M60 409l6 72q2 30 6 36q4 4 9 4q7 0 10 -8q1 -2 3.5 -9t4.5 -9.5t7 -2.5q4 0 20 6q66 24 136 24q109 0 181.5 -68t72.5 -194q0 -122 -80 -201.5t-204 -79.5q-76 0 -139 27.5t-63 71.5q0 20 11.5 35.5t27.5 15.5q10 0 18 -7.5t11.5 -15.5t9.5 -23.5t9 -21.5
q23 -52 100 -52q54 0 97 25t67 62.5t36.5 75t12.5 69.5q0 12 -10 12q-8 0 -31 -17q-30 -21 -65 -21q-19 0 -49 13q-13 5 -28.5 12l-23.5 10.5t-16.5 6t-14.5 2.5q-17 0 -37 -10l-20 -10q-5 -2 -10 0q-8 2 -8 12q0 3 1.5 6t4.5 6t6 4.5t8.5 4.5t8.5 5q56 35 91 35
q28 0 74 -23q50 -24 70 -24q47 0 47 49q0 68 -51 123t-134 55q-50 0 -86.5 -26.5t-67.5 -81.5q-7 -15 -17 -15q-16 0 -12 40z" />
    <glyph glyph-name="afii10096" unicode="&#x44e;" horiz-adv-x="882" 
d="M111 93v315q0 23 -4 36.5t-14.5 19t-15 6.5t-20.5 2l-15 1q-12 0 -12 13q0 15 31 15q15 0 46 -2t46 -2t46 2t46 2q31 0 31 -15q0 -13 -12 -13l-15 -1q-32 -2 -41 -13q-13 -14 -13 -51v-117q0 -10 10 -10h100q12 110 91 175.5t179 65.5q66 0 119.5 -25.5t86 -66t49.5 -87
t17 -93.5q0 -114 -79 -192.5t-193 -78.5q-117 0 -195 78.5t-77 196.5h-98q-10 0 -10 -10v-151q0 -23 4 -36.5t14.5 -19t15 -6.5t20.5 -2l15 -1q12 0 12 -13q0 -15 -31 -15q-15 0 -46 2t-46 2t-46 -2t-46 -2q-31 0 -31 15q0 13 12 13l15 1q32 2 41 13q13 14 13 51zM573 9
q78 0 131.5 63.5t53.5 178.5q0 62 -18.5 115t-61.5 89.5t-105 36.5q-88 0 -134.5 -71t-46.5 -170q0 -109 51 -175.5t130 -66.5z" />
    <glyph glyph-name="afii10097" unicode="&#x44f;" horiz-adv-x="540" 
d="M345 93v119v6v5t-1 3.5t-2.5 3.5t-5.5 1.5t-9 0.5h-25q-24 0 -37.5 -9t-26.5 -30l-99 -162q-3 -5 -6.5 -11.5t-5 -9t-4 -5t-5 -3.5t-6.5 -1.5t-10 -0.5q-7 0 -20.5 0.5t-19.5 0.5q-8 0 -23 -0.5t-23 -0.5q-31 0 -31 15q0 4 1.5 7t5 4t5.5 1.5t8 1t7 0.5q31 2 53 35
l100 155q16 26 39 25v3q-55 0 -97 31t-42 90q0 133 172 133q60 0 97 -2t53 -2q15 0 46 2t46 2q31 0 31 -15q0 -14 -27 -14q-34 -1 -44 -16t-10 -48v-315q0 -33 10 -48t44 -16q27 0 27 -14q0 -15 -31 -15q-15 0 -46 2t-46 2t-46 -2t-46 -2q-31 0 -31 15q0 14 27 14
q34 1 44 16t10 48zM345 279v145q0 36 -13 43t-60 7q-15 0 -29.5 -2.5t-37.5 -11.5t-37 -32.5t-14 -58.5q0 -51 32 -80.5t89 -29.5h55q15 0 15 20z" />
    <glyph glyph-name="afii10071" unicode="&#x451;" horiz-adv-x="536" 
d="M486 341h-325q-21 0 -29 -15t-8 -70q0 -95 57.5 -157.5t148.5 -62.5q74 0 123 40l16.5 15t12.5 11t8 3q12 0 12 -9q0 -13 -21 -35q-78 -82 -194 -82q-109 0 -180.5 76.5t-71.5 193.5q0 116 73 194.5t188 78.5q99 0 154.5 -51.5t55.5 -111.5q0 -18 -20 -18zM167 368l118 1
q34 1 47.5 1.5t36.5 5t32.5 15.5t9.5 29q0 27 -31.5 49.5t-80.5 22.5q-82 0 -131 -62q-22 -30 -22 -46t21 -16zM187 710q23 0 37 -16t14 -42q0 -27 -13.5 -41.5t-36.5 -14.5q-25 0 -38 18t-13 42q0 21 13.5 37.5t36.5 16.5zM388 710q23 0 37 -16t14 -42q0 -27 -13.5 -41.5
t-36.5 -14.5q-25 0 -38 18t-13 42q0 21 13.5 37.5t36.5 16.5z" />
    <glyph glyph-name="afii10099" unicode="&#x452;" horiz-adv-x="618" 
d="M195 595h191v-30h-191v-122q0 -14 5 -14q2 0 4.5 2t7 6.5l10 10t15.5 14.5t22 18q52 42 114 42q18 0 35.5 -2.5t50 -19.5t55.5 -47t41 -91.5t18 -145.5q0 -162 -46.5 -266t-129.5 -173q-36 -31 -51 -31q-11 0 -14.5 6t5.5 17l23 22.5t32.5 34.5t31 49.5t31.5 75t20 103.5
t9 142q0 275 -144 275q-56 0 -100.5 -35.5t-44.5 -82.5v-260q0 -33 10 -48t44 -16q27 0 27 -14q0 -15 -31 -15q-15 0 -46 2t-46 2t-46 -2t-46 -2q-31 0 -31 15q0 14 27 14q34 1 44 16t10 48v472h-91v30h91q2 17 -5.5 31t-24.5 15l-19 1h-8.5t-8 0.5t-5.5 2.5t-2 7q0 8 13 14
q26 11 44.5 20t31.5 18t17.5 12.5t14.5 14l11 11.5q7 7 15 7q3 0 5 -0.5t3.5 -2.5t2 -4t0.5 -6t-0.5 -7.5t-0.5 -10v-12.5v-111z" />
    <glyph glyph-name="afii10100" unicode="&#x453;" horiz-adv-x="465" 
d="M111 93v315q0 33 -10 48t-44 16q-27 0 -27 14q0 15 31 15h239q70 0 87.5 2.5t21.5 13.5q5 17 17 17q17 0 17 -22q0 -19 2 -33l9 -86q4 -36 -14 -36q-4 0 -7 1.5t-5 3t-4 5.5l-3 6t-3 8l-3 9q-18 52 -37.5 68t-57.5 16h-107q-18 0 -18 -16v-365q0 -33 10 -48t44 -16
q27 0 27 -14q0 -15 -31 -15q-15 0 -46 2t-46 2t-46 -2t-46 -2q-31 0 -31 15q0 14 27 14q34 1 44 16t10 48zM379 659l-187 -66q-35 -12 -40 -12q-9 0 -9 7q0 3 2 5.5t6.5 6t8 5.5l10.5 6t11 6l171 101q20 11 32 11q14 0 22.5 -8.5t8.5 -22.5q0 -26 -36 -39z" />
    <glyph glyph-name="afii10101" unicode="&#x454;" horiz-adv-x="529" 
d="M491 452l-3 -45q-2 -32 -12 -36q-3 -1 -6 -1q-4 0 -8 1.5t-6 3t-5.5 5.5t-5 6t-5 8t-4.5 8q0 1 -7 12t-9.5 14.5l-10.5 14t-13.5 15.5t-15.5 13t-19.5 11.5t-23 6.5t-27.5 3q-73 0 -129.5 -60t-56.5 -141q0 -12 4 -16h5l36 19q36 20 62 20q10 0 21.5 -3t17.5 -5.5t22 -10
t19 -8.5q39 -17 58 -17q17 0 33 11q19 11 23 11q14 0 14 -13q0 -8 -12 -17q-20 -16 -53 -30.5t-56 -14.5q-17 0 -38 7q-17 6 -51.5 23t-53.5 17q-46 0 -46 -53q0 -79 56 -132t145 -53q73 0 141 53q10 8 17 8q8 0 9 -7v-6q-1 -5 -11 -18q-72 -77 -188 -77q-121 0 -192 73
t-71 184q0 123 85.5 204.5t209.5 81.5q42 0 86.5 -12t64.5 -30q11 -10 10 -28z" />
    <glyph glyph-name="afii10102" unicode="&#x455;" horiz-adv-x="424" 
d="M366 484v-54q0 -41 -15 -41q-3 0 -6.5 2.5t-6 7t-4.5 8.5t-4 10t-3 8q-6 14 -10 21t-16.5 21.5t-32 22t-46.5 7.5q-51 0 -75.5 -27.5t-24.5 -60.5q0 -59 90 -90l47 -17q30 -11 48 -20t41 -26.5t34.5 -44.5t11.5 -63q0 -71 -58.5 -120t-147.5 -49q-51 0 -105 18t-53 45
l1 71q0 48 17 48q5 0 9 -3.5t6 -10t3.5 -12t2.5 -14t2 -12.5q10 -49 36.5 -77t84.5 -28q51 0 90 28.5t39 77.5q0 76 -91 108q-5 2 -31 10.5t-35.5 13l-31.5 14.5t-32.5 19.5t-23.5 23.5t-18.5 32t-5.5 39q0 64 48 108t139 44q54 0 111 -19q16 -5 16 -19z" />
    <glyph glyph-name="afii10103" unicode="&#x456;" horiz-adv-x="295" 
d="M197 481v-388q0 -16 1 -23.5t5.5 -18.5t16 -16t31.5 -6q27 0 27 -14q0 -15 -31 -15q-15 0 -46 2t-46 2t-46 -2t-46 -2q-31 0 -31 15q0 13 12 13l15 1q32 2 41 13q13 14 13 51v270q0 36 -11.5 45t-37.5 9h-11q-13 0 -13 10q0 8 13 14q18 7 31.5 13t24.5 13t17 10t14.5 10
t10.5 8.5t11 11l10 10.5q9 7 15 7q5 0 8 -2.5t3.5 -7t0 -9t-1 -12t-0.5 -12.5zM151 710q23 0 37 -16t14 -42q0 -27 -13.5 -41.5t-36.5 -14.5q-25 0 -38 18t-13 42q0 21 13.5 37.5t36.5 16.5z" />
    <glyph glyph-name="afii10104" unicode="&#x457;" horiz-adv-x="295" 
d="M197 481v-388q0 -16 1 -23.5t5.5 -18.5t16 -16t31.5 -6q27 0 27 -14q0 -15 -31 -15q-15 0 -46 2t-46 2t-46 -2t-46 -2q-31 0 -31 15q0 13 12 13l15 1q32 2 41 13q13 14 13 51v270q0 36 -11.5 45t-37.5 9h-11q-13 0 -13 10q0 8 13 14q18 7 31.5 13t24.5 13t17 10t14.5 10
t10.5 8.5t11 11l10 10.5q9 7 15 7q5 0 8 -2.5t3.5 -7t0 -9t-1 -12t-0.5 -12.5zM47 710q23 0 37 -16t14 -43q0 -26 -13.5 -40.5t-35.5 -14.5q-27 0 -39.5 18.5t-12.5 39.5q0 22 13.5 39t36.5 17zM248 710q23 0 37 -16t14 -42q0 -25 -13 -40.5t-36 -15.5q-26 0 -39 18.5
t-13 41.5q0 21 13.5 37.5t36.5 16.5z" />
    <glyph glyph-name="afii10105" unicode="&#x458;" horiz-adv-x="279" 
d="M194 471v-448q0 -41 -0.5 -56.5t-6 -45t-17.5 -47.5t-35 -44t-59 -54q-38 -30 -49 -30q-12 0 -12 10q0 5 6.5 11.5t21 23.5t29.5 42q38 64 38 185v345q0 36 -11.5 45t-37.5 9h-11q-13 0 -13 10q0 8 13 14q15 6 27.5 12l21.5 10.5t17.5 10l13 8.5t11 9t9 8.5l9 9l8.5 8.5
q7 7 14 7q4 0 6.5 -1.5t4 -4t2 -5.5t1 -8.5t0 -10t-0.5 -11.5v-12zM148 710q23 0 37 -16t14 -42q0 -27 -13.5 -41.5t-36.5 -14.5q-25 0 -38 18t-13 42q0 21 13.5 37.5t36.5 16.5z" />
    <glyph glyph-name="afii10106" unicode="&#x459;" horiz-adv-x="785" 
d="M366 93v317q0 24 -4.5 38t-16.5 19.5t-21 6.5t-30 1q-24 0 -38.5 -3.5t-21.5 -12.5t-9.5 -17.5t-3.5 -24.5q-35 -429 -173 -429q-26 0 -42 15t-16 41q0 24 15 38t37 14q13 0 31 -11q18 -12 24 -12q32 0 56 128.5t24 210.5q0 10 -1 18t-3.5 14t-4.5 10t-7 7t-7 4.5t-8 2.5
t-7.5 1.5t-8.5 0.5h-6q-11 1 -15.5 1.5t-9 4t-4.5 11.5q0 14 20 14h385q31 0 31 -15q0 -14 -27 -14q-34 -1 -44 -16t-10 -48v-101q0 -18 3.5 -21t17.5 1q59 11 104 11q55 0 93.5 -13.5t57.5 -36.5t26.5 -46t7.5 -49q0 -64 -49.5 -110t-151.5 -46q-25 0 -75.5 3.5t-75.5 3.5
q-16 0 -46 -2t-46 -2q-31 0 -31 15q0 14 27 14q34 1 44 16t10 48zM450 238v-124v-28.5t4 -23t11.5 -22t24 -11.5t40.5 -6q63 0 102 30.5t39 93.5q0 33 -12.5 57t-27.5 35.5t-37 18t-33.5 7.5t-23.5 1q-54 0 -70.5 -6.5t-16.5 -21.5z" />
    <glyph glyph-name="afii10107" unicode="&#x45a;" horiz-adv-x="902" 
d="M111 93v315q0 23 -4 36.5t-14.5 19t-15 6.5t-20.5 2l-15 1q-12 0 -12 13q0 15 31 15q15 0 46 -2t46 -2t46 2t46 2q31 0 31 -15q0 -13 -12 -13l-15 -1q-32 -2 -41 -13q-13 -14 -13 -51v-117q0 -10 10 -10h268q10 0 10 10v117q0 23 -4 36.5t-14.5 19t-15 6.5t-20.5 2l-15 1
q-12 0 -12 13q0 15 31 15q15 0 46 -2t46 -2t46 2t46 2q31 0 31 -15q0 -4 -1.5 -7t-5 -4t-5.5 -1.5t-8 -1t-7 -0.5l-20 -2q-34 -3 -34 -62v-101q0 -18 3.5 -21t17.5 1q53 11 110 11q47 0 82 -11.5t53 -27.5t28.5 -38t13 -37t2.5 -31q0 -64 -49 -110t-150 -46q-26 0 -77 3.5
t-76 3.5q-15 0 -46 -2t-46 -2q-31 0 -31 15q0 13 12 13l15 1q32 2 41 13q13 14 13 51v151q0 10 -10 10h-268q-10 0 -10 -10v-151q0 -23 4 -36.5t14.5 -19t15 -6.5t20.5 -2l15 -1q12 0 12 -13q0 -15 -31 -15q-15 0 -46 2t-46 2t-46 -2t-46 -2q-31 0 -31 15q0 13 12 13l15 1
q32 2 41 13q13 14 13 51zM567 238v-124q0 -49 9 -64q17 -27 75 -27q17 0 35 3.5t44 14.5t42 38.5t16 67.5q0 58 -35.5 88.5t-95.5 30.5q-56 0 -73 -6.5t-17 -21.5z" />
    <glyph glyph-name="afii10108" unicode="&#x45b;" horiz-adv-x="657" 
d="M195 595h191v-30h-191v-122q0 -14 5 -14q2 0 4.5 2t7 6.5l10 10t16 14.5t22.5 18q53 42 118 42q20 0 41 -3.5t47.5 -16t46.5 -32.5t34 -57t14 -86v-234q0 -33 10 -48t44 -16q27 0 27 -14q0 -15 -31 -15q-15 0 -46 2t-46 2t-46 -2t-46 -2q-31 0 -31 15q0 14 27 14
q34 1 44 16t10 48v220q0 158 -132 158q-49 0 -99.5 -33t-50.5 -85v-260q0 -33 10 -48t44 -16q27 0 27 -14q0 -15 -31 -15q-15 0 -46 2t-46 2t-46 -2t-46 -2q-31 0 -31 15q0 14 27 14q34 1 44 16t10 48v472h-91v30h91q2 17 -5.5 31t-24.5 15l-19 1h-8.5t-8 0.5t-5.5 2.5t-2 7
q0 8 13 14q26 11 44.5 20t31.5 18t17.5 12.5t14.5 14l11 11.5q7 7 15 7q3 0 5 -0.5t3.5 -2.5t2 -4t0.5 -6t-0.5 -7.5t-0.5 -10v-12.5v-111z" />
    <glyph glyph-name="afii10109" unicode="&#x45c;" horiz-adv-x="564" 
d="M195 408v-119q0 -8 3 -9t20 -1h21q14 0 25 2.5t20.5 10l15.5 12t14.5 19.5t11 20.5l12 26t12.5 26.5l18.5 38t19.5 32.5t26 30.5t31.5 17t42.5 8q30 0 45.5 -14.5t15.5 -38.5q0 -20 -13 -35t-36 -15q-26 0 -48 22q-12 12 -24 12q-4 0 -7.5 -1t-6.5 -4l-5.5 -5.5t-5 -7.5
t-4.5 -8.5t-4 -9.5t-3.5 -9t-3.5 -9.5t-3 -8.5q-21 -56 -41.5 -84t-58.5 -38v-4q22 -1 41 -5t34 -14t24.5 -15t21 -21l14.5 -20t14 -23l11 -20l24 -41q15 -25 26.5 -40.5t24.5 -22.5t17.5 -8.5t20.5 -4.5q26 -4 26 -16q0 -13 -21 -13q-8 0 -24 0.5t-24 0.5q-7 0 -21 -0.5
t-22 -0.5q-10 0 -16.5 0.5t-13.5 3.5t-11 5t-10.5 10t-10.5 14t-12 20.5l-14 26l-18.5 34.5l-22.5 42q-16 29 -30 47.5t-23.5 28.5t-25.5 14.5t-25 5t-31 0.5q-5 0 -7.5 -0.5t-4 -2.5t-1.5 -7v-149q0 -33 10 -48t44 -16q27 0 27 -14q0 -15 -31 -15q-15 0 -46 2t-46 2t-46 -2
t-46 -2q-31 0 -31 15q0 14 27 14q34 1 44 16t10 48v315q0 33 -10 48t-44 16q-27 0 -27 14q0 15 31 15q15 0 46 -2t46 -2t46 2t46 2q31 0 31 -15q0 -14 -27 -14q-34 -1 -44 -16t-10 -48zM423 659l-187 -66q-35 -12 -40 -12q-9 0 -9 7q0 3 2 5.5t6.5 6t8 5.5l10.5 6t11 6
l171 101q20 11 32 11q14 0 22.5 -8.5t8.5 -22.5q0 -26 -36 -39z" />
    <glyph glyph-name="afii10110" unicode="&#x45e;" horiz-adv-x="511" 
d="M159 408l123 -291l10 -21l10 21l98 231q24 55 24 79q0 44 -56 45q-27 0 -27 14q0 15 31 15q16 0 46 -2t46 -2q8 0 25 2t26 2q26 0 26 -14q0 -13 -12 -14l-12 -1q-10 -1 -17.5 -4.5t-12.5 -7.5t-11 -14.5t-9.5 -18t-11 -25.5l-12.5 -30l-159 -361q-56 -132 -76 -209
q-1 -3 -3 -11l-2.5 -10t-2.5 -8.5t-3 -7.5t-4 -5.5t-5.5 -5.5t-7 -3.5t-9.5 -3t-12 -1t-15 -0.5q-35 0 -48.5 9.5t-13.5 32.5q0 26 12.5 36t37.5 10q4 0 12 -0.5t13 -0.5q18 0 27.5 11.5t25.5 52.5l23 58q11 29 11 33q0 11 -14 43l-169 392q-2 4 -4.5 10.5l-3.5 9t-3.5 7.5
t-4 6.5t-4 5t-4.5 4t-5.5 2.5t-7 2.5t-8 1t-10.5 0.5q-26 0 -26 14q0 15 27 15q15 0 45.5 -2t46.5 -2t48 2t48 2q31 0 31 -15q0 -5 -1.5 -7.5t-5.5 -4t-7.5 -2t-11 -1t-11.5 -0.5q-35 -3 -39.5 -21t9.5 -42zM446 689q-76 -138 -185 -138q-42 0 -86 22.5t-44 59.5
q0 23 24.5 52t41.5 29q4 0 6.5 -2.5t3 -6.5t1 -9t0.5 -10.5v-10.5q4 -80 76 -80q71 0 123 86q2 3 6 9.5l6 10t5.5 8t7 6.5t6.5 2q13 0 13 -9t-5 -19z" />
    <glyph glyph-name="afii10193" unicode="&#x45f;" horiz-adv-x="664" 
d="M195 408v-346q0 -35 35 -35h204q35 0 35 35v346q0 23 -4 36.5t-14.5 19t-15 6.5t-20.5 2l-15 1q-12 0 -12 13q0 15 31 15q15 0 46 -2t46 -2t46 2t46 2q31 0 31 -15q0 -13 -12 -13l-15 -1q-32 -2 -41 -13q-13 -14 -13 -51v-315q0 -23 4 -36.5t14.5 -19t15 -6.5t20.5 -2
l15 -1q12 0 12 -13q0 -15 -31 -15h-252l18 -97q4 -24 4 -33q0 -27 -13 -37.5t-28 -10.5t-28 10.5t-13 37.5q0 9 4 33l18 97h-252q-31 0 -31 15q0 13 12 13l15 1q32 2 41 13q13 14 13 51v315q0 23 -4 36.5t-14.5 19t-15 6.5t-20.5 2l-15 1q-12 0 -12 13q0 15 31 15
q15 0 46 -2t46 -2t46 2t46 2q31 0 31 -15q0 -13 -12 -13l-15 -1q-32 -2 -41 -13q-13 -14 -13 -51z" />
    <glyph glyph-name="afii10050" unicode="&#x490;" horiz-adv-x="550" 
d="M134 108v484q0 18 -2 31t-7.5 21.5t-10 13.5t-13.5 7t-14 3t-16.5 1h-15.5q-20 0 -20 16q0 15 22 15q9 0 18 -0.5t19.5 -1.5t41.5 -1h79l103 1q30 0 54 1.5t42.5 5.5t31.5 6.5t23.5 10t16.5 11t12 15t8 16t7.5 19.5t7.5 21q8 21 21 21q11 0 11 -15v-11v-47
q0 -24 0.5 -40.5t1 -22.5t0.5 -7q0 -14 -7 -16q-3 -1 -6 -1h-10h-15.5t-25 0.5t-35.5 0.5h-112q-22 0 -36.5 -0.5t-28 -0.5t-21 -1.5t-15 -2t-10.5 -4t-5.5 -4.5t-3 -7t-0.5 -8.5v-11.5v-518q0 -21 4 -35.5t8.5 -22t16 -12t17 -5.5t21 -1.5t19.5 -0.5q19 -1 19 -16t-21 -15
t-62.5 3t-62.5 3t-63 -3t-63 -3q-22 0 -22 15q0 16 20 16h15.5t16.5 1t14 3t13.5 7t10 13.5t7.5 21.5t2 31z" />
    <glyph glyph-name="afii10098" unicode="&#x491;" horiz-adv-x="453" 
d="M111 93v315q0 33 -10 48t-44 16q-27 0 -27 14q0 15 31 15h260q30 0 48.5 16t40.5 69q7 16 18 16q15 0 15 -16l-2 -71q-1 -33 -4 -39.5t-20 -6.5q-6 0 -11.5 0.5t-15.5 1t-19 0.5q-48 3 -75 3h-83q-18 0 -18 -16v-365q0 -33 10 -48t44 -16q27 0 27 -14q0 -15 -31 -15
q-15 0 -46 2t-46 2t-46 -2t-46 -2q-31 0 -31 15q0 14 27 14q34 1 44 16t10 48z" />
    <glyph glyph-name="endash" unicode="&#x2013;" horiz-adv-x="704" 
d="M73 293h576l-16 -54h-578z" />
    <glyph glyph-name="emdash" unicode="&#x2014;" horiz-adv-x="1010" 
d="M83 290h862l-13 -47h-867z" />
    <glyph glyph-name="quoteleft" unicode="&#x2018;" horiz-adv-x="217" 
d="M118 464q-38 0 -55.5 27t-17.5 67q0 67 41 124q50 69 69 69q16 0 16 -10q0 -5 -4 -10.5t-14.5 -16.5l-14.5 -15q-48 -53 -53 -101q-1 -7 0 -14q3 -21 22 -21q2 0 6 0.5t6 0.5q20 0 36.5 -12.5t16.5 -35.5q0 -10 -3 -20t-16 -21t-35 -11z" />
    <glyph glyph-name="quoteright" unicode="&#x2019;" horiz-adv-x="217" 
d="M58 463l21 23q48 53 53 101q1 7 0 14q-3 21 -22 21q-2 0 -6 -0.5t-6 -0.5q-20 0 -36.5 12.5t-16.5 35.5q0 10 3 20t16 21t35 11q38 0 55.5 -27t17.5 -67q0 -93 -86 -175q-19 -18 -27 -18q-13 0 -13 12q0 5 12 17z" />
    <glyph glyph-name="quotesinglbase" unicode="&#x201a;" horiz-adv-x="217" 
d="M99 91q30 0 51.5 -21.5t21.5 -75.5q0 -49 -19 -85t-54 -74q-29 -31 -41 -31t-12 11q0 6 12 18q74 74 74 130q0 29 -22 29q-2 0 -6 -0.5t-6 -0.5q-20 0 -36.5 12.5t-16.5 35.5q0 20 13 36t41 16z" />
    <glyph glyph-name="quotedblleft" unicode="&#x201c;" horiz-adv-x="412" 
d="M118 464q-38 0 -55.5 27t-17.5 67q0 67 41 124q50 69 69 69q16 0 16 -10q0 -5 -4 -10.5t-14.5 -16.5l-14.5 -15q-48 -53 -53 -101q-1 -7 0 -14q3 -21 22 -21q2 0 6 0.5t6 0.5q20 0 36.5 -12.5t16.5 -35.5q0 -10 -3 -20t-16 -21t-35 -11zM313 464q-38 0 -55.5 27t-17.5 67
q0 67 41 124q50 69 69 69q16 0 16 -10q0 -5 -4 -10.5t-14.5 -16.5l-14.5 -15q-48 -53 -53 -101q-1 -7 0 -14q3 -21 22 -21q2 0 6 0.5t6 0.5q20 0 36.5 -12.5t16.5 -35.5q0 -10 -3 -20t-16 -21t-35 -11z" />
    <glyph glyph-name="quotedblright" unicode="&#x201d;" horiz-adv-x="412" 
d="M99 721q38 0 55.5 -27t17.5 -67q0 -67 -41 -124q-50 -69 -69 -69q-16 0 -16 10q0 6 10 18t26 29.5t25 31.5q22 34 25 64q1 7 0 14q-3 21 -22 21q-2 0 -6 -0.5t-6 -0.5q-20 0 -36.5 12.5t-16.5 35.5q0 10 3 20t16 21t35 11zM294 721q38 0 55.5 -27t17.5 -67
q0 -67 -41 -124q-50 -69 -69 -69q-16 0 -16 10q0 6 10 18t26 29.5t25 31.5q22 34 25 64q1 7 0 14q-3 21 -22 21q-2 0 -6 -0.5t-6 -0.5q-20 0 -36.5 12.5t-16.5 35.5q0 10 3 20t16 21t35 11z" />
    <glyph glyph-name="quotedblbase" unicode="&#x201e;" horiz-adv-x="412" 
d="M99 91q38 0 55.5 -27t17.5 -67q0 -67 -41 -124q-50 -69 -69 -69q-16 0 -16 10q0 5 4 10.5t14.5 16.5l14.5 15q48 53 53 101q1 7 0 14q-3 21 -22 21q-2 0 -6 -0.5t-6 -0.5q-20 0 -36.5 12.5t-16.5 35.5q0 10 3 20t16 21t35 11zM294 91q38 0 55.5 -27t17.5 -67
q0 -67 -41 -124q-50 -69 -69 -69q-16 0 -16 10q0 5 4 10.5t14.5 16.5l14.5 15q48 53 53 101q1 7 0 14q-3 21 -22 21q-2 0 -6 -0.5t-6 -0.5q-20 0 -36.5 12.5t-16.5 35.5q0 10 3 20t16 21t35 11z" />
    <glyph glyph-name="dagger" unicode="&#x2020;" horiz-adv-x="572" 
d="M268 -254v255q0 51 -7 198q-2 51 -20 78t-18 34q0 8 12.5 19t20.5 39q13 45 13 85q-14 -1 -19 1t-16 -1t-14.5 -2.5t-13 -3t-11.5 -3.5t-10 -4.5t-9 -5t-9 -5.5t-9 -5q-34 -19 -56.5 -15t-34.5 21t-12 40t12 40t34.5 21t56.5 -15q43 -25 73 -28q17 -2 37 -1q0 70 -29 118
q-21 34 -24 58t9.5 35.5t28 16.5t33.5 5t33.5 -5t28 -16.5t9.5 -35.5t-24 -58q-29 -48 -29 -118q54 -4 105 26q3 2 5 3q34 19 56.5 15t34.5 -21t12 -40t-12 -40t-34.5 -21t-56.5 15q-2 1 -8 4.5t-7.5 4.5t-8.5 4.5l-9 4.5t-9.5 4t-11 3t-12 2.5t-13.5 1.5t-15 0.5t-17 -0.5
q0 -40 13 -85q8 -28 20.5 -39t12.5 -19q0 -7 -18 -34t-20 -78q-7 -147 -7 -198v-255h-36z" />
    <glyph glyph-name="daggerdbl" unicode="&#x2021;" horiz-adv-x="572" 
d="M268 -254v255q0 45 -5 153q-5 3 -18.5 0t-16.5 -1t-14 -2.5t-12.5 -4t-12 -4.5t-11 -5.5t-11 -6t-11.5 -6.5q-48 -24 -74.5 -7t-26.5 54q0 36 26.5 53.5t74.5 -4.5q4 -2 15 -9.5t17 -10t17.5 -6.5t25 -5.5t31.5 -0.5q-2 23 -1 45t2.5 31.5t3.5 60t2 129.5q-14 -1 -19 1
t-16 -1t-14.5 -2.5t-13 -3t-11.5 -3.5t-10 -4.5t-9 -5t-9 -5.5t-9 -5q-34 -19 -56.5 -15t-34.5 21t-12 40t12 40t34.5 21t56.5 -15q43 -25 73 -28q17 -2 37 -1q0 70 -29 118q-21 34 -24 58t9.5 35.5t28 16.5t33.5 5t33.5 -5t28 -16.5t9.5 -35.5t-24 -58q-29 -48 -29 -118
q54 -4 105 26q3 2 5 3q34 19 56.5 15t34.5 -21t12 -40t-12 -40t-34.5 -21t-56.5 15q-2 1 -8 4.5t-7.5 4.5t-8.5 4.5l-9 4.5t-9.5 4t-11 3t-12 2.5t-13.5 1.5t-15 0.5t-17 -0.5q0 -100 3 -155t4.5 -56t-0.5 -55q18 -1 31.5 0.5t25 5.5t17.5 6.5t17 10t15 9.5q48 22 74.5 4.5
t26.5 -53.5q0 -37 -26.5 -54t-74.5 7q-2 1 -10 5.5t-10 5.5l-10 5t-10 4.5t-10.5 4t-12 3t-13.5 2t-14.5 1t-16.5 -0.5q-5 -108 -5 -153v-255h-36z" />
    <glyph glyph-name="bullet" unicode="&#x2022;" 
d="M158 350q0 61 43 104t104 43q60 0 103.5 -43t43.5 -104q0 -60 -43.5 -103.5t-103.5 -43.5q-61 0 -104 43.5t-43 103.5z" />
    <glyph glyph-name="ellipsis" unicode="&#x2026;" horiz-adv-x="612" 
d="M95 94q20 0 36 -15t16 -43t-15.5 -42.5t-35.5 -14.5q-22 0 -36.5 17.5t-14.5 43.5q0 23 14.5 38.5t35.5 15.5zM305 94q20 0 36 -15t16 -43t-15.5 -42.5t-35.5 -14.5q-22 0 -36.5 17.5t-14.5 43.5q0 23 14.5 38.5t35.5 15.5zM515 94q20 0 36 -15t16 -43t-15.5 -42.5
t-35.5 -14.5q-22 0 -36.5 17.5t-14.5 43.5q0 23 14.5 38.5t35.5 15.5z" />
    <glyph glyph-name="perthousand" unicode="&#x2030;" horiz-adv-x="1156" 
d="M206 370q-80 0 -125.5 51.5t-45.5 112.5q0 62 45.5 113.5t125.5 51.5q72 0 120.5 -47t48.5 -118q0 -70 -48.5 -117t-120.5 -47zM205 392q31 0 54 14t33.5 31t16.5 41t7 35.5t1 21.5q0 8 -0.5 18.5t-6.5 34.5t-17 42t-34 32.5t-54 14.5q-48 0 -80 -37.5t-32 -104.5
q0 -65 31.5 -104t80.5 -39zM653 703h35l-566 -713h-39zM563 0q-80 0 -125.5 51.5t-45.5 112.5q0 62 45.5 113.5t125.5 51.5q72 0 120.5 -47t48.5 -118q0 -70 -48.5 -117t-120.5 -47zM562 22q31 0 54 14t33.5 31t16.5 41t7 35.5t1 21.5q0 8 -0.5 18.5t-6.5 34.5t-17 42
t-34 32.5t-54 14.5q-48 0 -80 -37.5t-32 -104.5q0 -65 31.5 -104t80.5 -39zM951 0q-80 0 -125.5 51.5t-45.5 112.5q0 62 45.5 113.5t125.5 51.5q79 0 124.5 -51.5t45.5 -113.5t-45.5 -113t-124.5 -51zM949 22q44 0 79 34t35 109q0 64 -31.5 103t-82.5 39q-47 0 -79 -37.5
t-32 -104.5q0 -65 31 -104t80 -39z" />
    <glyph glyph-name="Euro" unicode="&#x20ac;" 
d="M560 571h-20q-8 56 -49 83.5t-103 27.5q-99 0 -145.5 -67t-58.5 -193h317l-16 -37h-304q0 -5 -0.5 -17t-0.5 -17q0 -25 1 -34h274l-16 -37h-256q10 -125 63 -193.5t142 -68.5q58 0 101 27.5t51 86.5h20l-6 -85q-54 -67 -183 -67q-249 0 -275 300h-73l16 37h52q-1 9 -1 35
q0 4 0.5 16t0.5 17h-68l16 37h56q17 147 80.5 223t195.5 76q131 0 183 -63z" />
    <glyph glyph-name="trademark" unicode="&#x2122;" horiz-adv-x="756" 
d="M76 699h205q15 0 15 11q1 7 9 7q7 0 7 -5q0 -1 -0.5 -4t-1 -11.5t-0.5 -20.5l-1 -36q0 -8 -8 -8q-7 0 -9 8q-10 34 -26 41q-6 2 -14 2h-45q-10 0 -10 -8v-208q0 -33 20 -35l19 -2q7 0 7 -7t-8 -8h-9q-17 1 -53 1q-9 0 -26.5 -0.5t-25.5 -0.5h-9q-9 0 -9 8q0 6 16 8l11 1
q19 2 19 35v208q0 5 -1.5 6.5t-7.5 1.5l-17 1q-51 3 -76 -38q-7 -14 -15 -14q-6 0 -7 6v6q1 4 4.5 14t7.5 23l7 27q3 10 10 10q6 0 7 -6.5t3 -9.5q3 -3 12 -3zM448 692l81 -191l3 -6l3 6l87 193q8 5 11 5h72q18 0 18 -8q0 -9 -17 -9q-8 0 -12 -1t-9 -4.5t-6.5 -11
t-1.5 -19.5l7 -179q1 -22 7 -28.5t19 -7.5q20 -4 21 -8q0 -9 -13 -9q-10 0 -29 1t-28 1q-10 0 -29.5 -1t-30.5 -1q-10 0 -10 8t17 9q7 0 10 0.5t7.5 2.5t6 5.5t3 10.5t1.5 17l-7 179v9q0 6 -1 6q-2 0 -4 -5l-87 -195q-14 -32 -20 -32q-4 0 -18 32l-82 191q-1 4 -4 4
q-1 0 -1 -5l-8 -146q-4 -36 -0.5 -54.5t18.5 -19.5l20 -2q7 0 7 -7q0 -5 -8 -7h-9q-28 2 -44 2q-12 0 -36 -2h-9q-8 2 -8 7q0 7 12 8h5q16 1 23 7.5t8 27.5l13 181q2 33 -25 36h-6t-6 0.5t-4.5 1.5t-3.5 2.5t-1 4.5q0 8 9 8h79q6 0 10 -7z" />
    <glyph glyph-name="hyphenminus" horiz-adv-x="398" 
d="M64 296h289l-18 -62h-290z" />
    <glyph glyph-name="quilsinglleft" horiz-adv-x="341" 
d="M143 267l150 -187q5 -5 3 -11t-9 -6q-3 0 -8 3l-227 191q-7 7 -7 10t7 10l227 191q5 3 8 3q9 0 9 -9q0 -3 -3 -8z" />
    <glyph glyph-name="quilsinglright" horiz-adv-x="341" 
d="M198 267l-150 187q-3 5 -3 8q0 9 10 9q4 0 7 -3l227 -191q7 -7 7 -10t-7 -10l-227 -191q-4 -3 -8 -3q-7 0 -9 6t3 11z" />
    <glyph glyph-name="numero" horiz-adv-x="1156" 
d="M931 220q-80 0 -125.5 51.5t-45.5 112.5q0 62 45.5 113.5t125.5 51.5q79 0 124.5 -51.5t45.5 -113.5t-45.5 -113t-124.5 -51zM929 242q44 0 79 34t35 109q0 64 -31.5 103t-82.5 39q-47 0 -79 -37.5t-32 -104.5q0 -65 31 -104t80 -39zM770 102v34h321v-34h-321zM244 677
l399 -515v372q0 71 -4.5 95t-24.5 33q-9 4 -23 5t-23.5 1t-17 3.5t-7.5 13.5q0 15 21 15q17 0 51 -3t51 -3q16 0 47.5 3t47.5 3q21 0 21 -15q0 -9 -8 -13t-18.5 -4.5t-23.5 -1.5t-20 -4q-20 -9 -24.5 -33.5t-4.5 -96.5v-510q0 -31 -13 -31q-6 0 -12 5.5t-15 18.5t-12 16
l-455 585l2 -331q1 -180 6 -207q6 -36 32 -43q10 -2 29 -3h7.5t6.5 -0.5t5.5 -0.5t5 -0.5t4 -1.5t3.5 -2t2 -2.5t1.5 -4t0.5 -5.5q0 -15 -21 -15q-17 0 -51.5 3t-51.5 3t-50.5 -3t-50.5 -3q-21 0 -21 15q0 16 20 16q6 0 18.5 0.5t17.5 1t14 3.5t12.5 8.5t8.5 15.5t6.5 25.5
t1.5 36.5l2 456q0 25 -3.5 42t-6.5 26.5t-13.5 14.5t-14 6t-20.5 1.5t-21 0.5q-19 1 -19 16t21 15h153q8 0 13.5 -3t7.5 -5.5t11 -14.5z" />
    </font>
</defs>
</svg>
